<mxfile host="app.diagrams.net" modified="2023-07-05T19:53:10.813Z" agent="Mozilla/5.0 (X11; Linux x86_64; rv:102.0) Gecko/20100101 Firefox/102.0" etag="1I4tRMZLzYoa7SEKhRwJ" version="21.4.0" type="device">
  <diagram name="Page-1" id="oi3TKpDYZiHlEUOqHfkn">
    <mxGraphModel dx="1430" dy="759" grid="1" gridSize="10" guides="1" tooltips="1" connect="1" arrows="1" fold="1" page="1" pageScale="1" pageWidth="850" pageHeight="1100" math="0" shadow="0">
      <root>
        <mxCell id="0" />
        <mxCell id="1" parent="0" />
        <mxCell id="mJLMkSrUWdxbOe2Fe1_0-23" value="" style="rounded=0;whiteSpace=wrap;html=1;" vertex="1" parent="1">
          <mxGeometry x="1070" y="150" width="560" height="350" as="geometry" />
        </mxCell>
        <mxCell id="mJLMkSrUWdxbOe2Fe1_0-2" value="" style="rounded=0;whiteSpace=wrap;html=1;" vertex="1" parent="1">
          <mxGeometry x="50" y="180" width="680" height="460" as="geometry" />
        </mxCell>
        <mxCell id="mJLMkSrUWdxbOe2Fe1_0-6" value="Object store&#xa;internal&#xa;" style="shape=image;verticalLabelPosition=bottom;labelBackgroundColor=default;verticalAlign=top;aspect=fixed;imageAspect=0;image=data:image/png,iVBORw0KGgoAAAANSUhEUgAAAFcAAABiCAYAAAAlf09yAAAgAElEQVR4nOWdaYxlx3Xff1V1l7f23rN1z8rZuAwlkRRJibLEOBIpi5Jsw1CsOLJj2YbgJLYSIwpgBLYDyAgcf4gBSUGAxDbiTUiCiDIl2Y5EkbEkUqQoiqIpDjkkh7Nzpqf37tf93rtbVeVD3fv6dfcbTjdHMmfGB5jpt9x3b9W5p06d8z//qiustZarTiwgVn9iQYjeR1+t4r3RH1prEUKs+1t8B6x+XxyDQFvb9ZlZdV5BfpwUYCEzFikFUoDVK59LIRDupXsvBRRtsGCFu9abKWKjltutxEJRco0pFfZmXZfRxmIsKClQb9DsTApSAury7dPWXdt1yanW3RineBB/r9Z/SeWuUiass85CZpoRgVJUPIGnFMYIMOsV0kwyMqNpp4bvnL3IVDMmtbAUJaxyAyK/QdYipCTLNGlqKYceBkOgFCNln5FqifH+GpmxDJVDdg/W1t3sdX1ipavW5ld01pArff0IXNGBQAibu6eN3aF1bqHXyYvWCCGYWGpxbrFJKAU3bhliIUp4aXoBXwr2DNY5NDLAi1MLnF1Y5qlzk3xvco5WktFMM7QxJNryyswCUZQgrMCm6arrr3U1IBBSYI1xSvAk1lfUSiHDlRKZMdRDny21MiUl8KTCVwqLZfdAlRtH+rl71xZ29dcZLodg3E3vdMs4F6KNRQpW3aBO34XAGINCOlfUw8h6ySrL7WWtcaY5PrPIidkGg5USeweqzLRTXpicpeL7jPdXePj4eQxw9OIsz0zMsxgnpNrQiBJIMtcTudJQz/fwcp8phCiMp6eCsXT5YNsZ/tpYMqMBAcaAsfnQ77J8T6E8RV8pIJCSSuBz2/ZBbt8xwjt2b+WWLf3MtmL29A8w1W5yYanN1kpI4CuUEIxUQhJjKXluCBprEWvbt1Hldis41YZ2lvHS1AIzrZi3bR/k+cl5ppZjKl7IC9Mz/O3JCR47M4nu3BScAnAW4CmJWuOnC/dnum7kRi3BWouUsoe/t0gh1xmHwWIMaGvcZ3lPi5t5aEs/t28f4ZZtg9yxY5hd9Roj1RJPvDbJQpTQTFJqYQBGsGugxrv3bV1nhK/X7nWWC26GXmzHHJteYGd/lafPz/D/Tl5EG80jJyY4PTGLlRIR+HhKrpysh68qFPtmzNu9Ol5YNUCiDcIYbJIiyyG3bhvizrER3n9gB+/avYOpdsTL0/M8dW6GV+cb/Pa7b+XItiGUkhvyvT3dgrGWr796nv7Q52svn+PzPzjJ8YvzbuiVAiq+h8VijMXm/qiwqGtJCutXUmAsRHGKyDR+OWB3f433HdjBp+65GaMV3z53gfceGGOwHLIQJWyvV96Y5X7/wiznF5v8wePP882TEyAk5ZIP1oVWZk0EcS2LyI1DCIGSboSlxqJTDUYzNtTHX3zkPZyYXeDmrSPcuWuUVBsCJS+r3FXRQnHg5FKTP332ON86MUGpFGBFHrPmjSjkWlcsdM/8Am3cawmE5YBmnHJ+eoGppSa7B/rdZAb48vKKBZDdb6y1GGt5375xBssBNk5IjSHN3ISg8kxJUGRI4pq3XiFckqGke51pQ2oMzcVldg1U+ctfeoAPH95LIAXD5ZBYG4qZ8XL9Xh8t5P9Fieah50/z6cf/jhNzS2Rp5nyuFC5DyGNCKQSBUmhrKILwIhJYa+lvtjhFutytiBgSrdGZBq1BSjzfY89gjU/fexvv2reNWGs+/oVvcs/uLfzsrTewa6DOcCXckOWuSyIEYAWUQ8VPH9nH3Xu2kZDx0NEzfPX4eWaimLlWRJxpojQjyjTN5TbCU1gpQCkXgoGbVfNuGMuPfOITXZOri0fd5xIQQpJoTZQZSDNEprECwlqZfVsGGa9X+dChnXzg8BieFLwwOc+//Zvv8JWXzhIvtnjn7i1kWmOM2XD7e2ZoxlqUlHzj1Hl+69Gn+bE923nPrh388h0HGamFHJ9u8PzUPC9NzdOIU1qp4fxSk+lmxPnFJhNLLaIoAW2wngQhUZ7EV8p1vttvsz552YgSe2MbFk9JMm3I3N1EaOPaYQxBvcLewRo3bRlk31CNnbUa9+zewv7RfhrNhGcuzPDHTx/noZdOc/y1GUQpIPQ9UAJfeNSDAKXkhtvaExUrrKsVa45NN3jm1Yt8NnyefVsHOTxc584dI7xlbISfvnkvN24ZwFr47rlJFqKUZpoy14pZSDTtJOH5iTkmmxFHpxaYm19CeC6M65hV56/7b9VbVjK3oi9CgM0nniIldmkcnc/KlRK3bKmztVbm5q2D7BnqY2etRsUT7B6os3uoynSrzfdfm+PBY2d44ZvzPDcxy8WZBUBCKaDUV8EYN8+49Nel4tZsfNT1VK4xBiUlUkCgJLqvghKCEzMNTkzM8dcvv0Z/KaQW+oz1VRgIPQ6ODHDH2Ag3bR3k3j3bWU4S5qKM990wRtlX9IUhRmtenmvw0vQCJ2YbTDcjnnxtBm0MmbWk2qBNkeK6TighsIAnJUq4v56UDJYDbhypc2h0kIrnsW+4j/3DNfqCAKyHNJYwkFR8n4lWi9l2xMWlFp/92nd5eXaRuXbCfKsNcebmkcCn0lcHa9AWMl24MOMySqFZjCOGq+GVKbdw1Jk1zulnmsBTBJ5EeCHaWhbjhMUo4bX5JYSSPHLyYgerrfmKA0M1xgfqjPdV2N5XYUdflb19/fSHIXfsGOLdu7fQH5Qp+z4CQ8tmCCtoJiklXzHfjrEWBiuBy108D09Yal6A7ynmmwkLSYsozci0BxLOLCxzamGSV2canJ5vcHJuideWI9px6oAnKd2kLMAKB/J4VacCYy2p1h0X1Q2vgnOTjSjt3PQ3rNxCCoiuULbBDTspnf8kB0eKpMJaixLQyjTfv7jA9y/MgcmnNG3AaIRU+JWAkUpINfQpex4jlZBaGDBUDil5kkrgdYa5MQ6PWIpTN3mmGctxwnyUsthOWIxiZloxpp241kqBi6skSJcY+J5awQJU0bf8/IDJAXnbM7rJ3QEWvYnJ7LLKXa/t9RNPr5BECoEnQRTYXo5qFXm9tjCxHGOXohzFyX2nMe79Ss7ICs6bB9hCIKTE5kiblAJfKWS93AGPHGC+chpjTH6K1dhHEVl4SuQKlh3gqTu5AIuyHsOVivPBV6LcohHa6g2jVWvfd+XU5CdbhWoFSq4Bq9cCj5eSYriunNpYi0VgdO/29ga/wfcUmTZEcYryPUIlaaeG0FPOCIxBCJdnGaFpxDHGVjfQRic9ldvtd4r3PwxZBQcW51wbDlxW1vyu8/ONwZZFYiOFoN2MkIHHO/duZ3K5zclTFxnZMcT0UhuhJKHn5VYvOi5vMynR61quyS2wo+hrOM0tRAqBwUUmHzqyh4/espeP3rqfs41lHnn1AneNj/Lo8Ql+91vPMrfUol4tO8DKWOqlACXk5S+SyyV8rvN1Y7U6VV+x2I6xduMnvZpFCIGOUz52235+8z1voeR7/M6jz/D0uWlu3T7EcDnk37z7Zj50yzi/+tCTPHryggP6gXrgI9UV+lxww2yq1aSd6je9RP3DEiEESaY5tHWQ9x/cSZYJfv/x5/jDp17EGsvXXz7Hf/YUe4f6+IuP/Bh/+FP38MCff51jpy4ihaCZpgxtIom4hDmKPExZ4xaucTF5NPKJtx+mHgY8fOIcj5y5CJ5HuV7BLwUEnuLkxAy/+fAzLEQJv33vWzrRQ5HgbFR6Klfg8NtWqjvh07UMKxYipYt9B8o+860I31OcvjBLGPhk2uThnkCWQiaWWrw8s8CNWwZd9fkN2FZP5TprBS+31uvBasH1a7Bc4uDAAMemF/j2mSlsV32vMCJPSU7MNPCEYDGKQVuEFXhSbkoXl7RcayG7Dqy1W4rYdbAacGh0gGNT8+D7IFaHcVaA50m2lKucXWgBGiU8xuo1/E1MaBuy3OtFJNBoRjRjzVA5ZHK5jecJ8gSuM7ekScah0QH2b63zue+8CFpgRMaphUWSzLzuNdZeb510fG6mL0sRuuZECP7k2WMcGK7TzjRpqkm0JtUabYxLFOKEO7dvYW455tW5BlYVpaAfgltwbXAnvB4mskIsgBI8+OI5lJT8yc+8i585spe9gzUGSyFl36PdThge6uO3730rn33yGPNLTYTvvSE9XBa46aTAmz711ScWh09PLTb5hQcf4z+973b+6a37+JXb9/Pk2VkWophmHPPztx3mzFKD/3P0BH4YkKZRDpZvTl43iViZRVcoQNeyFP2RnuLU/DJPnZui7Cs8qbhv/3a21yvsG67zhefP8Ot/9SSNOKUS+iRF7S//fRH7X07WFyjzH3lS0k4zMm0cdfKH1ME3W7SxKE8x3Wzzm3/9FGMj/RweHeDp81PUfJ/nphZ54uwkxlgCTzlkTDqSds33kV3Q6aarvzaH7yRQ9iTmEiS3a1UKHNeXElUtc77R4vxMI08UHDjlhz6e58aqrxRtbVlopxwa7SM2V2C5kEOMUqAtNKMU3/cc4NGDcXMtKlzkQIy2ltBTCN+DnPum5MocH6UZSTNm23CNO8e3I4TEk1dQiXDKchjmO3Zv557dW3j8xAR4CqkUwq4ouIAhV5M5N46tvhnSXYEojKIb3I+zDKMNIjPcPD7MR27Zy08e3sst2/t4ZWaBXQN1vA3SmXrycwEyY4jTjLOLLb59dpovvXiab5yepJWmeZHP1ZVEXlcTRYXB9/BkXorOld89Efx9MCJ783idewPbRVuyjmljLcr38ZSgHvq8f/8YHzq8k0Oj/dw6Msynvvpd+iseHzmyl+19NfpCf0M44euC5Q8dO0sjzvhHu8a4d3wHQQAnFxs8fW4GJeDUXINvnp0mM4ZWmmGM5XyjSRIloJQrFEqBEK5Mr4Sg5HtO8TKvdxWupcO/Wq2kXiTjTnmoeGddgTHXITK/uZm1pMa4Iqcx2Czn4xqDKIeM1stsr1cYKgfsHahx966t3Ld/O63MUA88Hjp6mvv/x9eZnJjhk/fdQV8QdKKoNzShdb6QiulmxL/76tPoNGP/6ABvGxvh9rER3rlzlHqoGL/9IAYIpeB752ex1vK3Jy9wZrHFVLPNbDNmMYppxCmpMSxGKUmjhVDSoUxSOouHVbT+4gZLsVKRtcZ0lYbsyl2wIKx11WVs57VQEkohAyWf/lLA9nqF4VqZ8b6KA72loOZJBsoht24dJvQl862Ex05PMdVs8/nnTvDsyYuEtRLWUwTKGccm6pOvM6G5AU8t8GkryclGixMzJ/nCM8cJKgFj/TUODPUxWi9zcKjGkW3D7B+q8zv/+DZC6erXZxYWOTXfItIZoYCTjTbCQiNOmGknTC41mW/FJMYy04wcuzBJEcBynJJqjZSy40rqoQ9AyfcYLpc6ScG2WpnhaglfSXZUq/SVAhyCmGJxXAhPSlppRpZl9JVKtLWmFvhsLVf4weQccaZ5cXqR//vKOS5OL2JDn1K9gspBHSkkzTQj8C+zZutyyi34Air3W5k2+EohQh9R8kmN5dT8MqemFsBYSpWAkWqZkqdywxMcGKxxx/gwmRFsq5XoL/mMlkMOjQ5Q8iRtbelTAcKCDCxxph0xI3MUoiQzWA3KgzR1axtCX7rVN1KjpCVQilgbUpvPEVqjtWu3I7JIziw0GSwFIARRmtHnl4hMysn5JU7NNXh8aZqjU3O8NL1Ie7mFKAWU6xW0NWRaI3OSszGms9jkipQLbkXRYCmkHHg0ksxNRjkZQAmBUiBUAAJSbTi3sNzhHAgpeGVqnr85fn6Vb3Tzm+u8IKco5eOswDEqgUc98BFCsKe/wnKcdErv1dBjrhmxva9KrDX9pYChcolzjSa+lPSFAanRaGOpBj4DpYCLS21inWGspdFOmI0SJpsx7TQj1po0ybAW/MCjUq90+LnAqqwM3HKGKyaFuDKyYLrVppVkKClWZWgF/1bnw1VKSSjXJxq263wdyY+zOG6szbpIeTh3MCXaWGs5Pr2wrm1CCOyF+RXQ2bLir3N31vO74vedmykRWILAdzGvydeiFRNt0dz8vEJYyr7aFErYI0Nzs602hdddwRnsquN6K7I71OqOh9fO/J3XedDeOb4Lp+u+ZtElYy3S64ocLlHxF9367pLCMLAWgyBOUvrKIdWSYmKp7UIzIUFJfCUxObNnKdF4SuG9UcZN9zoxjIukNpsQrFJ4DybO2te9Puu8v8Rr033cpUbpJT4vrqGtRQH/4b238Qu3HqDk+1hpaLctXz15mj96+iV+MLWIrzwEgpIn8daM4MvJKjx3hQzilu2WPLmpk10LUkzW/b7ib37+ffzibYfQwvLK3DzPnp+mFAoeODjGo7/0AR44uJMo1Z1UebOw43q3AEhhSQw0E1eJuF4wMQsuXjaWr3zsfiqlEp957Hmm4ojHT15kvh2xa6DO9r4Kv3//nfzGO29iKUn51tHTWCu6aYEbknVuAWGxWpJltkNRx177q3bAKSbLNJ9691sYLNe4579+gcVWglWO/OxLxQuTCxybmONz/TX+2a17eeDgON86drZD7dqMrHMLwgqssEgJy1FKlGZuI4lrXLGQr5i08IFDO/nO+UkWlyL6BqqUq2VCpQBLtRRgJbwwOc/FZsRNWwdB4OJpvbnVSevWoSHAWENmXWxYsAKvB+WavH+tNKXf81GhR6wtWaY7VpkZgxWCVpqSZJq3j40iPRd3F/zdjcolqr/FSq3rTHJGzdHJBcplyQ1bh4iSZFUhVgjAWPrDsMNuDCuhUzpurfNGZZ1yRU5RT23aSRCuZnx2M1L04EvHznLfgZ28a89WZKpXELVCpGQxdpt0TC43iZpt6r7HcMlDXonlWhwG6hZ5KLeA+Ep6dBVJkbS8MDXPs+dn+Pm37aevXiXNVtbGKSHwhCDKND/31gN84ktPYtsxqbEsJebKLVcbS6gkmda00+y64S8I4TbYWI4SfuPLT3BwuJ9/cfdhslaEEG5rgFacki23+bm33MBQyee1xjJWSlJr3T4+VwrcFC6gWDzdjexfy1IQ7YLA54kzk/zknz/Mox//CaaaEX/8zb+DMOSuPdv4lTsO8E9u3sMnvvwkE4uOFFLJR/Fm+HOXQMUMiTG0M71qT5frQVyJR1Oulnn6zBS/+pUn+NwD9/DJO24CzxBry43DdX79r5/ii8+fohwGtOIWcZa57WY2MdFfkvysxHUZLzgRgjTLCEoB//O5k9z137/ES/OLhL7PK7MNPvK/v8GfPnPcVTMAxMqmRVeM52pjO7sSdTNvrhfpRts8T/Hq7BI/+2dfA8/LYUGB73udgmqxXEpKuQrZu5z0XvuLpao8QuGhrUGhVqC660SK8pEQgsBTKL9SLFLo8Hg7c04OnrtqhEAob0MKvqRbaCQZ9x/eyc6Bemf19vXid2E1lGqtzSmkTqkF+aWANn3PAwHlMMRTasN66J2hWWhkCTeM1PnwoT3oVgR5GLOZYXEtyarSfd5Hle8DmS01WY6yjjvZaP97K1fAlrDMc+fnufeGLfzaj7+NOIqJomQd1rCSNoprOrIoqiNFMiGEIEkyWqnml+59K796543ozGLtxrGWnvuKpcbw2vwyw2GZ//b9l9g9UGG0Uua/fOcFHj4xwXKSInANCX03TNqpRliL57k601pe2RuR7vhadEUvRaFzbSdX3hfF0Et0uvP7FSBGW+vwA+0mMJukvPvgOL93/+3cPjZKI04wmWVrXyXnoWySzlT8oJ1p5loR3zpxgePzy/z0jXsYqSiW2q6YOFjz8YxiJop5ZXaO0wstjk7M8u1zUxydnMciqAQembE9ldAthaUUWaCQjmFZ1PKMsXkB0bgd7AQru3WYlVGDWGEfWnAr4KXslPpXXb9ok9YIi/sbBtRCn+FyyAcOjfGJOw6zrV7ifKPFr335Sd66Y5jPfvAdIISj9m82WuisVteGkpK8PNvg01/7Hp998kVGygFCCAbLIXeNj/L28WGGq2VOziwy245529gI9x0c54nTE/zR90+wsLhMUHFEjV6FyGLRXKLzPQwyvTIza9PZ/FJ4EiskwleM1ssYa+kLQ5SASuhjje3sIhqlGpGX+muhTyPKSLUmM4ZK4HesuuQ5pfeVAsfGqZV5y2g/H75lL4dHBnhlZoHvnp/lU199mUdPXsQ2I8YHayQxlELW7UOxIeV2V2aNdeRfKyXLScZsK3YnBJ48cQGpFD9+cIy3j40y3l8lzjI8Ab/3/rv48I17+IPHj/LVExdoLbUodnNGdFWCARv6bKuW6C8FHN4yABaqYcCewSrbyhWCwKPiK6qhx3DJZ6xWYylO6Su7XUL7yiFaa0IZ4PuCZpqRJoZWYqiVPCaWl4hSTWqcsgseWVkp+kslRitlMgxIy5OnL/LoiQv87t8+xxNnJzl9cR4ReJQDj7bvr/DTxMZXlPa03OJ1t68L821OrbV4tTLGWB55+TUe+cEpRKXEjVsHGCoH/NnfneC+/WN89sPvZHYpJU41pZIk1oYoNp2wTgqBUhmtTLOcpOwd6kMJwXhfmTAIODYxx0Qz4sWLc5xYWGJiOaKVZGhjSY3ulF0cx0IhpaAaeNR8H2MsQ6GHFYa+UkAp382knWqaSYq1sJhYlpKEiaU2jThmIUpYWG47nxv6lGulHFwXnUmMVZ7lDRLxrFnxgWv3RygWJ0spKZdDRDkkNYZjk/NuKCvFF188S9V/mh+/YRufuOMmbqjUaeuURtpGCEHdC5BKUAt8lAiYiWIeevEMRy/OcXRynlOLrU7cabV27sG64Shy0kaPVlMQQkQOiucNXtO3fMIyOv/akQKlUpRKQWd7rrTYEtwd9YYioJ5uwQrrCHE97ky3z8zsyoTl9pFRWOtuxFKS8qUXzvDlH5zCKsktWwephj7GWjJjmW22mWjGZFHiWDi5IoRameCUFAjl55Oem927Q6HVMbc7xto1XIg17ZeiyK488tMi8wipHae0s8j5/HJI4KmV0JNud3AF6S9svIQsuiykQ28SgqDY4yaXo9MLq3oqpCNZhOWwk3bC6k2LV3gUOX2q2GalUF7XX2tXh36XSna6CSXGuPoZSUa1Xuaendu5ZdswB4b6+IMnnufcQpNy4Dlrz4/Pg5DNu4XOwdaRlFd14DLSK+Tq/mXoeSsjNOdiGWu7tpK6PBvn9Tqz9rvXY/043q8mjVP++Z038tFb9+IphdaG994wxoWlZf7jI99zPh1nCMZafD9/ZMIGLbc3tpC7hbzVlz3JRsTkoZc2TqFmgzfthy1un0eLzQy//8F38FvveStVX5FpTWYtiXUb1v3Vx+/nJw6N04pThARfSTxvc7ul9Pa5WHypUKhNlZKvZunE1tpFGp/7qXv42JF9/Ou/eopHT55jvp1RDX0eOLyT9+/fwYvTi/zGXUdYbMY88co5fOm4x2uJga8nl7wVCoUvnO6vRaxgrRQ8L6MNv/i2/RwYqvOvvvJtHjx2ivONmMRaZloRf/LY8zz4whmw8MzEDO/avQWEcAseM4MUG8e3exLxpHC70mXWrTOQcnPD4WqUonxeKQXctXMLT5yZZLy/j6idUgrcxOsrRdBX5cvHzrJ7sMYdO4eYWG4hfJ9mkhFn7tEJGzW13vstGBfStFPtwpLrwHKlcDyxu8aGUUpyZqHNeF8dHcWdupiLSiCOEh584TRHtgwz2YywWncY63Bp1uq6a3a/6axB044rFvqyw1K51sXmU/9QJaSdZm4ll+cMp7taaC3gKc4sNDFGs5wYyDTDlRKV0CPP4jckPd1Clgg8TxAbDZletWTzWhUXHhuUkCzFbpPNmWbsHsXAyu4fBe7hSWehzTQF4Z4pYTbJIe1puW3bzi/icmut9Q+he2+uGGsRSnFyvsGh4X4ODtfyFemys2hPCuH2ccw0nlRsr1cpfOxynBKnK9WIjUhPyy35ilJe/QQ6cOG1LMa4Su+x6SU8PO7atZXFKO6ASIGnyIxhqdEikPDJu27i22cmOTW7AJ5D4aRaQfQ2Iuss12JpxBnCGqLUPbRocysBrk4p9kloxim/9Y2nuX//TkbDElmc0owSWotN+kOfj7/jRr788Q/wwUM7+diD36ARpav2CO6A8RuQnulvIAUzzYilPEszduM7El2tUiB8nid54bVZfuUvH+MzD9zNDVsHOLewzL6hOv0lnyjVHN4ywC8/9Dhn5paolkOarahTMdmM5fZYE2EZrVbIirKKkrApT3P1SlGPK5UCPv/My0y12nzy7pt5755xahXFd85OkWjDZ554jEdevUDgOxRPasu2eplajuptVNaviQBemF7gju0jLEUpZMatx8KsCnevxaytsN4M8MOAh185z8MvnkVYiwx9AiVptxPwFH7uCqQFnWYrrrHo9wbC054FyhNzDdqJZrGV8tH/9QivzS/lS/xFvgv/yurtYpBcS0+WKmp1sihgWrcc11q3njgzurPjvjCan731AP/+3iPcsn3YzYwbLPP0fKqUEILjM4uEwgMPXp6a53uvzfDFY2d5/uIcqXV7FzhwWxJIiZISbQwIOpnM1SZuDVqBOUMeaTrih3EbFlutQQjCwMMHPn3fHfzLO28k8OQq/WzoenaNqXWfINOGxTih7nv4nqKdZDx7YZavHDvH0xdmmGi2ON9osbQUYbPMbW7mKULfw8sreiYHsY1ZQdzcdbo7zaoKQjEj98SINwBSd4t7DFeOweLKOpkxxJnOn36iXd2sFLCtv8q2aol9gzV+5ua9vHf/GKPVUm4wppNMbbQNr/MMypWnjRSfR2lKSan80agwsxzx8KvnODq1yHKScXK+wYsX5zk1v4RoJ47inv8TaqWUA7hkf+UCnaHWsa68zNN5jFbnZ+tB8Z7lqLzkk2Yuy8R2bXRRCtk/0seuwRr7BusMlELG+ircvWuUu8ZHHZ/LinxpFB1+2GapXJd8BuXaIbC67GIwCLxihTiA1sw2M6Yj93yeRpLRShLm84d1TC61WYpTlpMMi2G6GXcenrSlVmG22Wa2FeYfQ4AAAAGsSURBVCEF1MKAqVZMI87oC13Nq5k6HLYdJRucTMD3FXfvHOXItiFGayXGam5bwb6Kz+6BKttqZfpKwZqbsvJirXFtVjb0UOVeCrd2ZUVhZizaaEqejxBwcm6JmWbEbDOiHnqMD9TAWqoyRAUQxZqFdowRGVFm8KREG1hMUof4S0HFU5Q9yVzkdg7ZUa0T24RA+bQjQ1NHCGFpJobYOAsLlaLmS6p+iKcknoKB/DE3lxJHanZbhxdP8iv6uLbvm1Xwhp9Y3VPWABmd51Jah1RKKUhiw1IW09aGZpLQTjWNOEHmXLOhSkhmLP0lH18pQk9SVYJQlfA8F4XE2mKwKAkl65FYjREarHCgvi8vC6gUxlDEqZ2dmtj4BLVZuSLlXsld3cDZyYylnaREmSHWBolguJI/RqvrxnaPokI6C2W6LDD/plOu+VEDqVdmuZcRd2a7zo2s0oRY/XKzN6u77sdVtu7zRwp3CbEy5AruqxTueTqdf12f9yqPF/9M1+viu+K8wFWzoDZNUx555BEajcaP1nL/IUqz2aRarfLFL37xR2u5/xCleILVkSNH+P9KxWbGgTHiRQAAAABJRU5ErkJggg==;fontSize=15;" vertex="1" parent="1">
          <mxGeometry x="520" width="87" height="98" as="geometry" />
        </mxCell>
        <mxCell id="mJLMkSrUWdxbOe2Fe1_0-7" value="Object store dev&#xa;" style="shape=image;verticalLabelPosition=bottom;labelBackgroundColor=default;verticalAlign=top;aspect=fixed;imageAspect=0;image=data:image/png,iVBORw0KGgoAAAANSUhEUgAAAFcAAABiCAYAAAAlf09yAAAgAElEQVR4nOWdaYxlx3Xff1V1l7f23rN1z8rZuAwlkRRJibLEOBIpi5Jsw1CsOLJj2YbgJLYSIwpgBLYDyAgcf4gBSUGAxDbiTUiCiDIl2Y5EkbEkUqQoiqIpDjkkh7Nzpqf37tf93rtbVeVD3fv6dfcbTjdHMmfGB5jpt9x3b9W5p06d8z//qiustZarTiwgVn9iQYjeR1+t4r3RH1prEUKs+1t8B6x+XxyDQFvb9ZlZdV5BfpwUYCEzFikFUoDVK59LIRDupXsvBRRtsGCFu9abKWKjltutxEJRco0pFfZmXZfRxmIsKClQb9DsTApSAury7dPWXdt1yanW3RineBB/r9Z/SeWuUiass85CZpoRgVJUPIGnFMYIMOsV0kwyMqNpp4bvnL3IVDMmtbAUJaxyAyK/QdYipCTLNGlqKYceBkOgFCNln5FqifH+GpmxDJVDdg/W1t3sdX1ipavW5ld01pArff0IXNGBQAibu6eN3aF1bqHXyYvWCCGYWGpxbrFJKAU3bhliIUp4aXoBXwr2DNY5NDLAi1MLnF1Y5qlzk3xvco5WktFMM7QxJNryyswCUZQgrMCm6arrr3U1IBBSYI1xSvAk1lfUSiHDlRKZMdRDny21MiUl8KTCVwqLZfdAlRtH+rl71xZ29dcZLodg3E3vdMs4F6KNRQpW3aBO34XAGINCOlfUw8h6ySrL7WWtcaY5PrPIidkGg5USeweqzLRTXpicpeL7jPdXePj4eQxw9OIsz0zMsxgnpNrQiBJIMtcTudJQz/fwcp8phCiMp6eCsXT5YNsZ/tpYMqMBAcaAsfnQ77J8T6E8RV8pIJCSSuBz2/ZBbt8xwjt2b+WWLf3MtmL29A8w1W5yYanN1kpI4CuUEIxUQhJjKXluCBprEWvbt1Hldis41YZ2lvHS1AIzrZi3bR/k+cl5ppZjKl7IC9Mz/O3JCR47M4nu3BScAnAW4CmJWuOnC/dnum7kRi3BWouUsoe/t0gh1xmHwWIMaGvcZ3lPi5t5aEs/t28f4ZZtg9yxY5hd9Roj1RJPvDbJQpTQTFJqYQBGsGugxrv3bV1nhK/X7nWWC26GXmzHHJteYGd/lafPz/D/Tl5EG80jJyY4PTGLlRIR+HhKrpysh68qFPtmzNu9Ol5YNUCiDcIYbJIiyyG3bhvizrER3n9gB+/avYOpdsTL0/M8dW6GV+cb/Pa7b+XItiGUkhvyvT3dgrGWr796nv7Q52svn+PzPzjJ8YvzbuiVAiq+h8VijMXm/qiwqGtJCutXUmAsRHGKyDR+OWB3f433HdjBp+65GaMV3z53gfceGGOwHLIQJWyvV96Y5X7/wiznF5v8wePP882TEyAk5ZIP1oVWZk0EcS2LyI1DCIGSboSlxqJTDUYzNtTHX3zkPZyYXeDmrSPcuWuUVBsCJS+r3FXRQnHg5FKTP332ON86MUGpFGBFHrPmjSjkWlcsdM/8Am3cawmE5YBmnHJ+eoGppSa7B/rdZAb48vKKBZDdb6y1GGt5375xBssBNk5IjSHN3ISg8kxJUGRI4pq3XiFckqGke51pQ2oMzcVldg1U+ctfeoAPH95LIAXD5ZBYG4qZ8XL9Xh8t5P9Fieah50/z6cf/jhNzS2Rp5nyuFC5DyGNCKQSBUmhrKILwIhJYa+lvtjhFutytiBgSrdGZBq1BSjzfY89gjU/fexvv2reNWGs+/oVvcs/uLfzsrTewa6DOcCXckOWuSyIEYAWUQ8VPH9nH3Xu2kZDx0NEzfPX4eWaimLlWRJxpojQjyjTN5TbCU1gpQCkXgoGbVfNuGMuPfOITXZOri0fd5xIQQpJoTZQZSDNEprECwlqZfVsGGa9X+dChnXzg8BieFLwwOc+//Zvv8JWXzhIvtnjn7i1kWmOM2XD7e2ZoxlqUlHzj1Hl+69Gn+bE923nPrh388h0HGamFHJ9u8PzUPC9NzdOIU1qp4fxSk+lmxPnFJhNLLaIoAW2wngQhUZ7EV8p1vttvsz552YgSe2MbFk9JMm3I3N1EaOPaYQxBvcLewRo3bRlk31CNnbUa9+zewv7RfhrNhGcuzPDHTx/noZdOc/y1GUQpIPQ9UAJfeNSDAKXkhtvaExUrrKsVa45NN3jm1Yt8NnyefVsHOTxc584dI7xlbISfvnkvN24ZwFr47rlJFqKUZpoy14pZSDTtJOH5iTkmmxFHpxaYm19CeC6M65hV56/7b9VbVjK3oi9CgM0nniIldmkcnc/KlRK3bKmztVbm5q2D7BnqY2etRsUT7B6os3uoynSrzfdfm+PBY2d44ZvzPDcxy8WZBUBCKaDUV8EYN8+49Nel4tZsfNT1VK4xBiUlUkCgJLqvghKCEzMNTkzM8dcvv0Z/KaQW+oz1VRgIPQ6ODHDH2Ag3bR3k3j3bWU4S5qKM990wRtlX9IUhRmtenmvw0vQCJ2YbTDcjnnxtBm0MmbWk2qBNkeK6TighsIAnJUq4v56UDJYDbhypc2h0kIrnsW+4j/3DNfqCAKyHNJYwkFR8n4lWi9l2xMWlFp/92nd5eXaRuXbCfKsNcebmkcCn0lcHa9AWMl24MOMySqFZjCOGq+GVKbdw1Jk1zulnmsBTBJ5EeCHaWhbjhMUo4bX5JYSSPHLyYgerrfmKA0M1xgfqjPdV2N5XYUdflb19/fSHIXfsGOLdu7fQH5Qp+z4CQ8tmCCtoJiklXzHfjrEWBiuBy108D09Yal6A7ynmmwkLSYsozci0BxLOLCxzamGSV2canJ5vcHJuideWI9px6oAnKd2kLMAKB/J4VacCYy2p1h0X1Q2vgnOTjSjt3PQ3rNxCCoiuULbBDTspnf8kB0eKpMJaixLQyjTfv7jA9y/MgcmnNG3AaIRU+JWAkUpINfQpex4jlZBaGDBUDil5kkrgdYa5MQ6PWIpTN3mmGctxwnyUsthOWIxiZloxpp241kqBi6skSJcY+J5awQJU0bf8/IDJAXnbM7rJ3QEWvYnJ7LLKXa/t9RNPr5BECoEnQRTYXo5qFXm9tjCxHGOXohzFyX2nMe79Ss7ICs6bB9hCIKTE5kiblAJfKWS93AGPHGC+chpjTH6K1dhHEVl4SuQKlh3gqTu5AIuyHsOVivPBV6LcohHa6g2jVWvfd+XU5CdbhWoFSq4Bq9cCj5eSYriunNpYi0VgdO/29ga/wfcUmTZEcYryPUIlaaeG0FPOCIxBCJdnGaFpxDHGVjfQRic9ldvtd4r3PwxZBQcW51wbDlxW1vyu8/ONwZZFYiOFoN2MkIHHO/duZ3K5zclTFxnZMcT0UhuhJKHn5VYvOi5vMynR61quyS2wo+hrOM0tRAqBwUUmHzqyh4/espeP3rqfs41lHnn1AneNj/Lo8Ql+91vPMrfUol4tO8DKWOqlACXk5S+SyyV8rvN1Y7U6VV+x2I6xduMnvZpFCIGOUz52235+8z1voeR7/M6jz/D0uWlu3T7EcDnk37z7Zj50yzi/+tCTPHryggP6gXrgI9UV+lxww2yq1aSd6je9RP3DEiEESaY5tHWQ9x/cSZYJfv/x5/jDp17EGsvXXz7Hf/YUe4f6+IuP/Bh/+FP38MCff51jpy4ihaCZpgxtIom4hDmKPExZ4xaucTF5NPKJtx+mHgY8fOIcj5y5CJ5HuV7BLwUEnuLkxAy/+fAzLEQJv33vWzrRQ5HgbFR6Klfg8NtWqjvh07UMKxYipYt9B8o+860I31OcvjBLGPhk2uThnkCWQiaWWrw8s8CNWwZd9fkN2FZP5TprBS+31uvBasH1a7Bc4uDAAMemF/j2mSlsV32vMCJPSU7MNPCEYDGKQVuEFXhSbkoXl7RcayG7Dqy1W4rYdbAacGh0gGNT8+D7IFaHcVaA50m2lKucXWgBGiU8xuo1/E1MaBuy3OtFJNBoRjRjzVA5ZHK5jecJ8gSuM7ekScah0QH2b63zue+8CFpgRMaphUWSzLzuNdZeb510fG6mL0sRuuZECP7k2WMcGK7TzjRpqkm0JtUabYxLFOKEO7dvYW455tW5BlYVpaAfgltwbXAnvB4mskIsgBI8+OI5lJT8yc+8i585spe9gzUGSyFl36PdThge6uO3730rn33yGPNLTYTvvSE9XBa46aTAmz711ScWh09PLTb5hQcf4z+973b+6a37+JXb9/Pk2VkWophmHPPztx3mzFKD/3P0BH4YkKZRDpZvTl43iViZRVcoQNeyFP2RnuLU/DJPnZui7Cs8qbhv/3a21yvsG67zhefP8Ot/9SSNOKUS+iRF7S//fRH7X07WFyjzH3lS0k4zMm0cdfKH1ME3W7SxKE8x3Wzzm3/9FGMj/RweHeDp81PUfJ/nphZ54uwkxlgCTzlkTDqSds33kV3Q6aarvzaH7yRQ9iTmEiS3a1UKHNeXElUtc77R4vxMI08UHDjlhz6e58aqrxRtbVlopxwa7SM2V2C5kEOMUqAtNKMU3/cc4NGDcXMtKlzkQIy2ltBTCN+DnPum5MocH6UZSTNm23CNO8e3I4TEk1dQiXDKchjmO3Zv557dW3j8xAR4CqkUwq4ouIAhV5M5N46tvhnSXYEojKIb3I+zDKMNIjPcPD7MR27Zy08e3sst2/t4ZWaBXQN1vA3SmXrycwEyY4jTjLOLLb59dpovvXiab5yepJWmeZHP1ZVEXlcTRYXB9/BkXorOld89Efx9MCJ783idewPbRVuyjmljLcr38ZSgHvq8f/8YHzq8k0Oj/dw6Msynvvpd+iseHzmyl+19NfpCf0M44euC5Q8dO0sjzvhHu8a4d3wHQQAnFxs8fW4GJeDUXINvnp0mM4ZWmmGM5XyjSRIloJQrFEqBEK5Mr4Sg5HtO8TKvdxWupcO/Wq2kXiTjTnmoeGddgTHXITK/uZm1pMa4Iqcx2Czn4xqDKIeM1stsr1cYKgfsHahx966t3Ld/O63MUA88Hjp6mvv/x9eZnJjhk/fdQV8QdKKoNzShdb6QiulmxL/76tPoNGP/6ABvGxvh9rER3rlzlHqoGL/9IAYIpeB752ex1vK3Jy9wZrHFVLPNbDNmMYppxCmpMSxGKUmjhVDSoUxSOouHVbT+4gZLsVKRtcZ0lYbsyl2wIKx11WVs57VQEkohAyWf/lLA9nqF4VqZ8b6KA72loOZJBsoht24dJvQl862Ex05PMdVs8/nnTvDsyYuEtRLWUwTKGccm6pOvM6G5AU8t8GkryclGixMzJ/nCM8cJKgFj/TUODPUxWi9zcKjGkW3D7B+q8zv/+DZC6erXZxYWOTXfItIZoYCTjTbCQiNOmGknTC41mW/FJMYy04wcuzBJEcBynJJqjZSy40rqoQ9AyfcYLpc6ScG2WpnhaglfSXZUq/SVAhyCmGJxXAhPSlppRpZl9JVKtLWmFvhsLVf4weQccaZ5cXqR//vKOS5OL2JDn1K9gspBHSkkzTQj8C+zZutyyi34Air3W5k2+EohQh9R8kmN5dT8MqemFsBYSpWAkWqZkqdywxMcGKxxx/gwmRFsq5XoL/mMlkMOjQ5Q8iRtbelTAcKCDCxxph0xI3MUoiQzWA3KgzR1axtCX7rVN1KjpCVQilgbUpvPEVqjtWu3I7JIziw0GSwFIARRmtHnl4hMysn5JU7NNXh8aZqjU3O8NL1Ie7mFKAWU6xW0NWRaI3OSszGms9jkipQLbkXRYCmkHHg0ksxNRjkZQAmBUiBUAAJSbTi3sNzhHAgpeGVqnr85fn6Vb3Tzm+u8IKco5eOswDEqgUc98BFCsKe/wnKcdErv1dBjrhmxva9KrDX9pYChcolzjSa+lPSFAanRaGOpBj4DpYCLS21inWGspdFOmI0SJpsx7TQj1po0ybAW/MCjUq90+LnAqqwM3HKGKyaFuDKyYLrVppVkKClWZWgF/1bnw1VKSSjXJxq263wdyY+zOG6szbpIeTh3MCXaWGs5Pr2wrm1CCOyF+RXQ2bLir3N31vO74vedmykRWILAdzGvydeiFRNt0dz8vEJYyr7aFErYI0Nzs602hdddwRnsquN6K7I71OqOh9fO/J3XedDeOb4Lp+u+ZtElYy3S64ocLlHxF9367pLCMLAWgyBOUvrKIdWSYmKp7UIzIUFJfCUxObNnKdF4SuG9UcZN9zoxjIukNpsQrFJ4DybO2te9Puu8v8Rr033cpUbpJT4vrqGtRQH/4b238Qu3HqDk+1hpaLctXz15mj96+iV+MLWIrzwEgpIn8daM4MvJKjx3hQzilu2WPLmpk10LUkzW/b7ib37+ffzibYfQwvLK3DzPnp+mFAoeODjGo7/0AR44uJMo1Z1UebOw43q3AEhhSQw0E1eJuF4wMQsuXjaWr3zsfiqlEp957Hmm4ojHT15kvh2xa6DO9r4Kv3//nfzGO29iKUn51tHTWCu6aYEbknVuAWGxWpJltkNRx177q3bAKSbLNJ9691sYLNe4579+gcVWglWO/OxLxQuTCxybmONz/TX+2a17eeDgON86drZD7dqMrHMLwgqssEgJy1FKlGZuI4lrXLGQr5i08IFDO/nO+UkWlyL6BqqUq2VCpQBLtRRgJbwwOc/FZsRNWwdB4OJpvbnVSevWoSHAWENmXWxYsAKvB+WavH+tNKXf81GhR6wtWaY7VpkZgxWCVpqSZJq3j40iPRd3F/zdjcolqr/FSq3rTHJGzdHJBcplyQ1bh4iSZFUhVgjAWPrDsMNuDCuhUzpurfNGZZ1yRU5RT23aSRCuZnx2M1L04EvHznLfgZ28a89WZKpXELVCpGQxdpt0TC43iZpt6r7HcMlDXonlWhwG6hZ5KLeA+Ep6dBVJkbS8MDXPs+dn+Pm37aevXiXNVtbGKSHwhCDKND/31gN84ktPYtsxqbEsJebKLVcbS6gkmda00+y64S8I4TbYWI4SfuPLT3BwuJ9/cfdhslaEEG5rgFacki23+bm33MBQyee1xjJWSlJr3T4+VwrcFC6gWDzdjexfy1IQ7YLA54kzk/zknz/Mox//CaaaEX/8zb+DMOSuPdv4lTsO8E9u3sMnvvwkE4uOFFLJR/Fm+HOXQMUMiTG0M71qT5frQVyJR1Oulnn6zBS/+pUn+NwD9/DJO24CzxBry43DdX79r5/ii8+fohwGtOIWcZa57WY2MdFfkvysxHUZLzgRgjTLCEoB//O5k9z137/ES/OLhL7PK7MNPvK/v8GfPnPcVTMAxMqmRVeM52pjO7sSdTNvrhfpRts8T/Hq7BI/+2dfA8/LYUGB73udgmqxXEpKuQrZu5z0XvuLpao8QuGhrUGhVqC660SK8pEQgsBTKL9SLFLo8Hg7c04OnrtqhEAob0MKvqRbaCQZ9x/eyc6Bemf19vXid2E1lGqtzSmkTqkF+aWANn3PAwHlMMRTasN66J2hWWhkCTeM1PnwoT3oVgR5GLOZYXEtyarSfd5Hle8DmS01WY6yjjvZaP97K1fAlrDMc+fnufeGLfzaj7+NOIqJomQd1rCSNoprOrIoqiNFMiGEIEkyWqnml+59K796543ozGLtxrGWnvuKpcbw2vwyw2GZ//b9l9g9UGG0Uua/fOcFHj4xwXKSInANCX03TNqpRliL57k601pe2RuR7vhadEUvRaFzbSdX3hfF0Et0uvP7FSBGW+vwA+0mMJukvPvgOL93/+3cPjZKI04wmWVrXyXnoWySzlT8oJ1p5loR3zpxgePzy/z0jXsYqSiW2q6YOFjz8YxiJop5ZXaO0wstjk7M8u1zUxydnMciqAQembE9ldAthaUUWaCQjmFZ1PKMsXkB0bgd7AQru3WYlVGDWGEfWnAr4KXslPpXXb9ok9YIi/sbBtRCn+FyyAcOjfGJOw6zrV7ifKPFr335Sd66Y5jPfvAdIISj9m82WuisVteGkpK8PNvg01/7Hp998kVGygFCCAbLIXeNj/L28WGGq2VOziwy245529gI9x0c54nTE/zR90+wsLhMUHFEjV6FyGLRXKLzPQwyvTIza9PZ/FJ4EiskwleM1ssYa+kLQ5SASuhjje3sIhqlGpGX+muhTyPKSLUmM4ZK4HesuuQ5pfeVAsfGqZV5y2g/H75lL4dHBnhlZoHvnp/lU199mUdPXsQ2I8YHayQxlELW7UOxIeV2V2aNdeRfKyXLScZsK3YnBJ48cQGpFD9+cIy3j40y3l8lzjI8Ab/3/rv48I17+IPHj/LVExdoLbUodnNGdFWCARv6bKuW6C8FHN4yABaqYcCewSrbyhWCwKPiK6qhx3DJZ6xWYylO6Su7XUL7yiFaa0IZ4PuCZpqRJoZWYqiVPCaWl4hSTWqcsgseWVkp+kslRitlMgxIy5OnL/LoiQv87t8+xxNnJzl9cR4ReJQDj7bvr/DTxMZXlPa03OJ1t68L821OrbV4tTLGWB55+TUe+cEpRKXEjVsHGCoH/NnfneC+/WN89sPvZHYpJU41pZIk1oYoNp2wTgqBUhmtTLOcpOwd6kMJwXhfmTAIODYxx0Qz4sWLc5xYWGJiOaKVZGhjSY3ulF0cx0IhpaAaeNR8H2MsQ6GHFYa+UkAp382knWqaSYq1sJhYlpKEiaU2jThmIUpYWG47nxv6lGulHFwXnUmMVZ7lDRLxrFnxgWv3RygWJ0spKZdDRDkkNYZjk/NuKCvFF188S9V/mh+/YRufuOMmbqjUaeuURtpGCEHdC5BKUAt8lAiYiWIeevEMRy/OcXRynlOLrU7cabV27sG64Shy0kaPVlMQQkQOiucNXtO3fMIyOv/akQKlUpRKQWd7rrTYEtwd9YYioJ5uwQrrCHE97ky3z8zsyoTl9pFRWOtuxFKS8qUXzvDlH5zCKsktWwephj7GWjJjmW22mWjGZFHiWDi5IoRameCUFAjl55Oem927Q6HVMbc7xto1XIg17ZeiyK488tMi8wipHae0s8j5/HJI4KmV0JNud3AF6S9svIQsuiykQ28SgqDY4yaXo9MLq3oqpCNZhOWwk3bC6k2LV3gUOX2q2GalUF7XX2tXh36XSna6CSXGuPoZSUa1Xuaendu5ZdswB4b6+IMnnufcQpNy4Dlrz4/Pg5DNu4XOwdaRlFd14DLSK+Tq/mXoeSsjNOdiGWu7tpK6PBvn9Tqz9rvXY/043q8mjVP++Z038tFb9+IphdaG994wxoWlZf7jI99zPh1nCMZafD9/ZMIGLbc3tpC7hbzVlz3JRsTkoZc2TqFmgzfthy1un0eLzQy//8F38FvveStVX5FpTWYtiXUb1v3Vx+/nJw6N04pThARfSTxvc7ul9Pa5WHypUKhNlZKvZunE1tpFGp/7qXv42JF9/Ou/eopHT55jvp1RDX0eOLyT9+/fwYvTi/zGXUdYbMY88co5fOm4x2uJga8nl7wVCoUvnO6vRaxgrRQ8L6MNv/i2/RwYqvOvvvJtHjx2ivONmMRaZloRf/LY8zz4whmw8MzEDO/avQWEcAseM4MUG8e3exLxpHC70mXWrTOQcnPD4WqUonxeKQXctXMLT5yZZLy/j6idUgrcxOsrRdBX5cvHzrJ7sMYdO4eYWG4hfJ9mkhFn7tEJGzW13vstGBfStFPtwpLrwHKlcDyxu8aGUUpyZqHNeF8dHcWdupiLSiCOEh584TRHtgwz2YywWncY63Bp1uq6a3a/6axB044rFvqyw1K51sXmU/9QJaSdZm4ll+cMp7taaC3gKc4sNDFGs5wYyDTDlRKV0CPP4jckPd1Clgg8TxAbDZletWTzWhUXHhuUkCzFbpPNmWbsHsXAyu4fBe7hSWehzTQF4Z4pYTbJIe1puW3bzi/icmut9Q+he2+uGGsRSnFyvsGh4X4ODtfyFemys2hPCuH2ccw0nlRsr1cpfOxynBKnK9WIjUhPyy35ilJe/QQ6cOG1LMa4Su+x6SU8PO7atZXFKO6ASIGnyIxhqdEikPDJu27i22cmOTW7AJ5D4aRaQfQ2Iuss12JpxBnCGqLUPbRocysBrk4p9kloxim/9Y2nuX//TkbDElmc0owSWotN+kOfj7/jRr788Q/wwUM7+diD36ARpav2CO6A8RuQnulvIAUzzYilPEszduM7El2tUiB8nid54bVZfuUvH+MzD9zNDVsHOLewzL6hOv0lnyjVHN4ywC8/9Dhn5paolkOarahTMdmM5fZYE2EZrVbIirKKkrApT3P1SlGPK5UCPv/My0y12nzy7pt5755xahXFd85OkWjDZ554jEdevUDgOxRPasu2eplajuptVNaviQBemF7gju0jLEUpZMatx8KsCnevxaytsN4M8MOAh185z8MvnkVYiwx9AiVptxPwFH7uCqQFnWYrrrHo9wbC054FyhNzDdqJZrGV8tH/9QivzS/lS/xFvgv/yurtYpBcS0+WKmp1sihgWrcc11q3njgzurPjvjCan731AP/+3iPcsn3YzYwbLPP0fKqUEILjM4uEwgMPXp6a53uvzfDFY2d5/uIcqXV7FzhwWxJIiZISbQwIOpnM1SZuDVqBOUMeaTrih3EbFlutQQjCwMMHPn3fHfzLO28k8OQq/WzoenaNqXWfINOGxTih7nv4nqKdZDx7YZavHDvH0xdmmGi2ON9osbQUYbPMbW7mKULfw8sreiYHsY1ZQdzcdbo7zaoKQjEj98SINwBSd4t7DFeOweLKOpkxxJnOn36iXd2sFLCtv8q2aol9gzV+5ua9vHf/GKPVUm4wppNMbbQNr/MMypWnjRSfR2lKSan80agwsxzx8KvnODq1yHKScXK+wYsX5zk1v4RoJ47inv8TaqWUA7hkf+UCnaHWsa68zNN5jFbnZ+tB8Z7lqLzkk2Yuy8R2bXRRCtk/0seuwRr7BusMlELG+ircvWuUu8ZHHZ/LinxpFB1+2GapXJd8BuXaIbC67GIwCLxihTiA1sw2M6Yj93yeRpLRShLm84d1TC61WYpTlpMMi2G6GXcenrSlVmG22Wa2FeYfQ4AAAAGsSURBVCEF1MKAqVZMI87oC13Nq5k6HLYdJRucTMD3FXfvHOXItiFGayXGam5bwb6Kz+6BKttqZfpKwZqbsvJirXFtVjb0UOVeCrd2ZUVhZizaaEqejxBwcm6JmWbEbDOiHnqMD9TAWqoyRAUQxZqFdowRGVFm8KREG1hMUof4S0HFU5Q9yVzkdg7ZUa0T24RA+bQjQ1NHCGFpJobYOAsLlaLmS6p+iKcknoKB/DE3lxJHanZbhxdP8iv6uLbvm1Xwhp9Y3VPWABmd51Jah1RKKUhiw1IW09aGZpLQTjWNOEHmXLOhSkhmLP0lH18pQk9SVYJQlfA8F4XE2mKwKAkl65FYjREarHCgvi8vC6gUxlDEqZ2dmtj4BLVZuSLlXsld3cDZyYylnaREmSHWBolguJI/RqvrxnaPokI6C2W6LDD/plOu+VEDqVdmuZcRd2a7zo2s0oRY/XKzN6u77sdVtu7zRwp3CbEy5AruqxTueTqdf12f9yqPF/9M1+viu+K8wFWzoDZNUx555BEajcaP1nL/IUqz2aRarfLFL37xR2u5/xCleILVkSNH+P9KxWbGgTHiRQAAAABJRU5ErkJggg==;fontSize=15;" vertex="1" parent="1">
          <mxGeometry x="860" y="160" width="87" height="98" as="geometry" />
        </mxCell>
        <mxCell id="mJLMkSrUWdxbOe2Fe1_0-8" value="&lt;div style=&quot;font-size: 15px;&quot;&gt;&lt;b&gt;&lt;font style=&quot;font-size: 15px;&quot;&gt;k8s cluster &lt;br&gt;&lt;/font&gt;&lt;/b&gt;&lt;/div&gt;&lt;div style=&quot;font-size: 15px;&quot;&gt;&lt;b&gt;&lt;font style=&quot;font-size: 15px;&quot;&gt;internal&lt;br&gt;&lt;/font&gt;&lt;/b&gt;&lt;/div&gt;" style="text;html=1;strokeColor=none;fillColor=none;align=center;verticalAlign=middle;whiteSpace=wrap;rounded=0;" vertex="1" parent="1">
          <mxGeometry x="590" y="600" width="130" height="30" as="geometry" />
        </mxCell>
        <mxCell id="mJLMkSrUWdxbOe2Fe1_0-9" value="&lt;div style=&quot;font-size: 15px;&quot;&gt;&lt;b&gt;&lt;font style=&quot;font-size: 15px;&quot;&gt;k8s cluster dev&lt;br&gt;&lt;/font&gt;&lt;/b&gt;&lt;/div&gt;" style="text;html=1;strokeColor=none;fillColor=none;align=center;verticalAlign=middle;whiteSpace=wrap;rounded=0;" vertex="1" parent="1">
          <mxGeometry x="1080" y="460" width="130" height="30" as="geometry" />
        </mxCell>
        <mxCell id="mJLMkSrUWdxbOe2Fe1_0-11" value="Object store prod" style="shape=image;verticalLabelPosition=bottom;labelBackgroundColor=default;verticalAlign=top;aspect=fixed;imageAspect=0;image=data:image/png,iVBORw0KGgoAAAANSUhEUgAAAFcAAABiCAYAAAAlf09yAAAgAElEQVR4nOWdaYxlx3Xff1V1l7f23rN1z8rZuAwlkRRJibLEOBIpi5Jsw1CsOLJj2YbgJLYSIwpgBLYDyAgcf4gBSUGAxDbiTUiCiDIl2Y5EkbEkUqQoiqIpDjkkh7Nzpqf37tf93rtbVeVD3fv6dfcbTjdHMmfGB5jpt9x3b9W5p06d8z//qiustZarTiwgVn9iQYjeR1+t4r3RH1prEUKs+1t8B6x+XxyDQFvb9ZlZdV5BfpwUYCEzFikFUoDVK59LIRDupXsvBRRtsGCFu9abKWKjltutxEJRco0pFfZmXZfRxmIsKClQb9DsTApSAury7dPWXdt1yanW3RineBB/r9Z/SeWuUiass85CZpoRgVJUPIGnFMYIMOsV0kwyMqNpp4bvnL3IVDMmtbAUJaxyAyK/QdYipCTLNGlqKYceBkOgFCNln5FqifH+GpmxDJVDdg/W1t3sdX1ipavW5ld01pArff0IXNGBQAibu6eN3aF1bqHXyYvWCCGYWGpxbrFJKAU3bhliIUp4aXoBXwr2DNY5NDLAi1MLnF1Y5qlzk3xvco5WktFMM7QxJNryyswCUZQgrMCm6arrr3U1IBBSYI1xSvAk1lfUSiHDlRKZMdRDny21MiUl8KTCVwqLZfdAlRtH+rl71xZ29dcZLodg3E3vdMs4F6KNRQpW3aBO34XAGINCOlfUw8h6ySrL7WWtcaY5PrPIidkGg5USeweqzLRTXpicpeL7jPdXePj4eQxw9OIsz0zMsxgnpNrQiBJIMtcTudJQz/fwcp8phCiMp6eCsXT5YNsZ/tpYMqMBAcaAsfnQ77J8T6E8RV8pIJCSSuBz2/ZBbt8xwjt2b+WWLf3MtmL29A8w1W5yYanN1kpI4CuUEIxUQhJjKXluCBprEWvbt1Hldis41YZ2lvHS1AIzrZi3bR/k+cl5ppZjKl7IC9Mz/O3JCR47M4nu3BScAnAW4CmJWuOnC/dnum7kRi3BWouUsoe/t0gh1xmHwWIMaGvcZ3lPi5t5aEs/t28f4ZZtg9yxY5hd9Roj1RJPvDbJQpTQTFJqYQBGsGugxrv3bV1nhK/X7nWWC26GXmzHHJteYGd/lafPz/D/Tl5EG80jJyY4PTGLlRIR+HhKrpysh68qFPtmzNu9Ol5YNUCiDcIYbJIiyyG3bhvizrER3n9gB+/avYOpdsTL0/M8dW6GV+cb/Pa7b+XItiGUkhvyvT3dgrGWr796nv7Q52svn+PzPzjJ8YvzbuiVAiq+h8VijMXm/qiwqGtJCutXUmAsRHGKyDR+OWB3f433HdjBp+65GaMV3z53gfceGGOwHLIQJWyvV96Y5X7/wiznF5v8wePP882TEyAk5ZIP1oVWZk0EcS2LyI1DCIGSboSlxqJTDUYzNtTHX3zkPZyYXeDmrSPcuWuUVBsCJS+r3FXRQnHg5FKTP332ON86MUGpFGBFHrPmjSjkWlcsdM/8Am3cawmE5YBmnHJ+eoGppSa7B/rdZAb48vKKBZDdb6y1GGt5375xBssBNk5IjSHN3ISg8kxJUGRI4pq3XiFckqGke51pQ2oMzcVldg1U+ctfeoAPH95LIAXD5ZBYG4qZ8XL9Xh8t5P9Fieah50/z6cf/jhNzS2Rp5nyuFC5DyGNCKQSBUmhrKILwIhJYa+lvtjhFutytiBgSrdGZBq1BSjzfY89gjU/fexvv2reNWGs+/oVvcs/uLfzsrTewa6DOcCXckOWuSyIEYAWUQ8VPH9nH3Xu2kZDx0NEzfPX4eWaimLlWRJxpojQjyjTN5TbCU1gpQCkXgoGbVfNuGMuPfOITXZOri0fd5xIQQpJoTZQZSDNEprECwlqZfVsGGa9X+dChnXzg8BieFLwwOc+//Zvv8JWXzhIvtnjn7i1kWmOM2XD7e2ZoxlqUlHzj1Hl+69Gn+bE923nPrh388h0HGamFHJ9u8PzUPC9NzdOIU1qp4fxSk+lmxPnFJhNLLaIoAW2wngQhUZ7EV8p1vttvsz552YgSe2MbFk9JMm3I3N1EaOPaYQxBvcLewRo3bRlk31CNnbUa9+zewv7RfhrNhGcuzPDHTx/noZdOc/y1GUQpIPQ9UAJfeNSDAKXkhtvaExUrrKsVa45NN3jm1Yt8NnyefVsHOTxc584dI7xlbISfvnkvN24ZwFr47rlJFqKUZpoy14pZSDTtJOH5iTkmmxFHpxaYm19CeC6M65hV56/7b9VbVjK3oi9CgM0nniIldmkcnc/KlRK3bKmztVbm5q2D7BnqY2etRsUT7B6os3uoynSrzfdfm+PBY2d44ZvzPDcxy8WZBUBCKaDUV8EYN8+49Nel4tZsfNT1VK4xBiUlUkCgJLqvghKCEzMNTkzM8dcvv0Z/KaQW+oz1VRgIPQ6ODHDH2Ag3bR3k3j3bWU4S5qKM990wRtlX9IUhRmtenmvw0vQCJ2YbTDcjnnxtBm0MmbWk2qBNkeK6TighsIAnJUq4v56UDJYDbhypc2h0kIrnsW+4j/3DNfqCAKyHNJYwkFR8n4lWi9l2xMWlFp/92nd5eXaRuXbCfKsNcebmkcCn0lcHa9AWMl24MOMySqFZjCOGq+GVKbdw1Jk1zulnmsBTBJ5EeCHaWhbjhMUo4bX5JYSSPHLyYgerrfmKA0M1xgfqjPdV2N5XYUdflb19/fSHIXfsGOLdu7fQH5Qp+z4CQ8tmCCtoJiklXzHfjrEWBiuBy108D09Yal6A7ynmmwkLSYsozci0BxLOLCxzamGSV2canJ5vcHJuideWI9px6oAnKd2kLMAKB/J4VacCYy2p1h0X1Q2vgnOTjSjt3PQ3rNxCCoiuULbBDTspnf8kB0eKpMJaixLQyjTfv7jA9y/MgcmnNG3AaIRU+JWAkUpINfQpex4jlZBaGDBUDil5kkrgdYa5MQ6PWIpTN3mmGctxwnyUsthOWIxiZloxpp241kqBi6skSJcY+J5awQJU0bf8/IDJAXnbM7rJ3QEWvYnJ7LLKXa/t9RNPr5BECoEnQRTYXo5qFXm9tjCxHGOXohzFyX2nMe79Ss7ICs6bB9hCIKTE5kiblAJfKWS93AGPHGC+chpjTH6K1dhHEVl4SuQKlh3gqTu5AIuyHsOVivPBV6LcohHa6g2jVWvfd+XU5CdbhWoFSq4Bq9cCj5eSYriunNpYi0VgdO/29ga/wfcUmTZEcYryPUIlaaeG0FPOCIxBCJdnGaFpxDHGVjfQRic9ldvtd4r3PwxZBQcW51wbDlxW1vyu8/ONwZZFYiOFoN2MkIHHO/duZ3K5zclTFxnZMcT0UhuhJKHn5VYvOi5vMynR61quyS2wo+hrOM0tRAqBwUUmHzqyh4/espeP3rqfs41lHnn1AneNj/Lo8Ql+91vPMrfUol4tO8DKWOqlACXk5S+SyyV8rvN1Y7U6VV+x2I6xduMnvZpFCIGOUz52235+8z1voeR7/M6jz/D0uWlu3T7EcDnk37z7Zj50yzi/+tCTPHryggP6gXrgI9UV+lxww2yq1aSd6je9RP3DEiEESaY5tHWQ9x/cSZYJfv/x5/jDp17EGsvXXz7Hf/YUe4f6+IuP/Bh/+FP38MCff51jpy4ihaCZpgxtIom4hDmKPExZ4xaucTF5NPKJtx+mHgY8fOIcj5y5CJ5HuV7BLwUEnuLkxAy/+fAzLEQJv33vWzrRQ5HgbFR6Klfg8NtWqjvh07UMKxYipYt9B8o+860I31OcvjBLGPhk2uThnkCWQiaWWrw8s8CNWwZd9fkN2FZP5TprBS+31uvBasH1a7Bc4uDAAMemF/j2mSlsV32vMCJPSU7MNPCEYDGKQVuEFXhSbkoXl7RcayG7Dqy1W4rYdbAacGh0gGNT8+D7IFaHcVaA50m2lKucXWgBGiU8xuo1/E1MaBuy3OtFJNBoRjRjzVA5ZHK5jecJ8gSuM7ekScah0QH2b63zue+8CFpgRMaphUWSzLzuNdZeb510fG6mL0sRuuZECP7k2WMcGK7TzjRpqkm0JtUabYxLFOKEO7dvYW455tW5BlYVpaAfgltwbXAnvB4mskIsgBI8+OI5lJT8yc+8i585spe9gzUGSyFl36PdThge6uO3730rn33yGPNLTYTvvSE9XBa46aTAmz711ScWh09PLTb5hQcf4z+973b+6a37+JXb9/Pk2VkWophmHPPztx3mzFKD/3P0BH4YkKZRDpZvTl43iViZRVcoQNeyFP2RnuLU/DJPnZui7Cs8qbhv/3a21yvsG67zhefP8Ot/9SSNOKUS+iRF7S//fRH7X07WFyjzH3lS0k4zMm0cdfKH1ME3W7SxKE8x3Wzzm3/9FGMj/RweHeDp81PUfJ/nphZ54uwkxlgCTzlkTDqSds33kV3Q6aarvzaH7yRQ9iTmEiS3a1UKHNeXElUtc77R4vxMI08UHDjlhz6e58aqrxRtbVlopxwa7SM2V2C5kEOMUqAtNKMU3/cc4NGDcXMtKlzkQIy2ltBTCN+DnPum5MocH6UZSTNm23CNO8e3I4TEk1dQiXDKchjmO3Zv557dW3j8xAR4CqkUwq4ouIAhV5M5N46tvhnSXYEojKIb3I+zDKMNIjPcPD7MR27Zy08e3sst2/t4ZWaBXQN1vA3SmXrycwEyY4jTjLOLLb59dpovvXiab5yepJWmeZHP1ZVEXlcTRYXB9/BkXorOld89Efx9MCJ783idewPbRVuyjmljLcr38ZSgHvq8f/8YHzq8k0Oj/dw6Msynvvpd+iseHzmyl+19NfpCf0M44euC5Q8dO0sjzvhHu8a4d3wHQQAnFxs8fW4GJeDUXINvnp0mM4ZWmmGM5XyjSRIloJQrFEqBEK5Mr4Sg5HtO8TKvdxWupcO/Wq2kXiTjTnmoeGddgTHXITK/uZm1pMa4Iqcx2Czn4xqDKIeM1stsr1cYKgfsHahx966t3Ld/O63MUA88Hjp6mvv/x9eZnJjhk/fdQV8QdKKoNzShdb6QiulmxL/76tPoNGP/6ABvGxvh9rER3rlzlHqoGL/9IAYIpeB752ex1vK3Jy9wZrHFVLPNbDNmMYppxCmpMSxGKUmjhVDSoUxSOouHVbT+4gZLsVKRtcZ0lYbsyl2wIKx11WVs57VQEkohAyWf/lLA9nqF4VqZ8b6KA72loOZJBsoht24dJvQl862Ex05PMdVs8/nnTvDsyYuEtRLWUwTKGccm6pOvM6G5AU8t8GkryclGixMzJ/nCM8cJKgFj/TUODPUxWi9zcKjGkW3D7B+q8zv/+DZC6erXZxYWOTXfItIZoYCTjTbCQiNOmGknTC41mW/FJMYy04wcuzBJEcBynJJqjZSy40rqoQ9AyfcYLpc6ScG2WpnhaglfSXZUq/SVAhyCmGJxXAhPSlppRpZl9JVKtLWmFvhsLVf4weQccaZ5cXqR//vKOS5OL2JDn1K9gspBHSkkzTQj8C+zZutyyi34Air3W5k2+EohQh9R8kmN5dT8MqemFsBYSpWAkWqZkqdywxMcGKxxx/gwmRFsq5XoL/mMlkMOjQ5Q8iRtbelTAcKCDCxxph0xI3MUoiQzWA3KgzR1axtCX7rVN1KjpCVQilgbUpvPEVqjtWu3I7JIziw0GSwFIARRmtHnl4hMysn5JU7NNXh8aZqjU3O8NL1Ie7mFKAWU6xW0NWRaI3OSszGms9jkipQLbkXRYCmkHHg0ksxNRjkZQAmBUiBUAAJSbTi3sNzhHAgpeGVqnr85fn6Vb3Tzm+u8IKco5eOswDEqgUc98BFCsKe/wnKcdErv1dBjrhmxva9KrDX9pYChcolzjSa+lPSFAanRaGOpBj4DpYCLS21inWGspdFOmI0SJpsx7TQj1po0ybAW/MCjUq90+LnAqqwM3HKGKyaFuDKyYLrVppVkKClWZWgF/1bnw1VKSSjXJxq263wdyY+zOG6szbpIeTh3MCXaWGs5Pr2wrm1CCOyF+RXQ2bLir3N31vO74vedmykRWILAdzGvydeiFRNt0dz8vEJYyr7aFErYI0Nzs602hdddwRnsquN6K7I71OqOh9fO/J3XedDeOb4Lp+u+ZtElYy3S64ocLlHxF9367pLCMLAWgyBOUvrKIdWSYmKp7UIzIUFJfCUxObNnKdF4SuG9UcZN9zoxjIukNpsQrFJ4DybO2te9Puu8v8Rr033cpUbpJT4vrqGtRQH/4b238Qu3HqDk+1hpaLctXz15mj96+iV+MLWIrzwEgpIn8daM4MvJKjx3hQzilu2WPLmpk10LUkzW/b7ib37+ffzibYfQwvLK3DzPnp+mFAoeODjGo7/0AR44uJMo1Z1UebOw43q3AEhhSQw0E1eJuF4wMQsuXjaWr3zsfiqlEp957Hmm4ojHT15kvh2xa6DO9r4Kv3//nfzGO29iKUn51tHTWCu6aYEbknVuAWGxWpJltkNRx177q3bAKSbLNJ9691sYLNe4579+gcVWglWO/OxLxQuTCxybmONz/TX+2a17eeDgON86drZD7dqMrHMLwgqssEgJy1FKlGZuI4lrXLGQr5i08IFDO/nO+UkWlyL6BqqUq2VCpQBLtRRgJbwwOc/FZsRNWwdB4OJpvbnVSevWoSHAWENmXWxYsAKvB+WavH+tNKXf81GhR6wtWaY7VpkZgxWCVpqSZJq3j40iPRd3F/zdjcolqr/FSq3rTHJGzdHJBcplyQ1bh4iSZFUhVgjAWPrDsMNuDCuhUzpurfNGZZ1yRU5RT23aSRCuZnx2M1L04EvHznLfgZ28a89WZKpXELVCpGQxdpt0TC43iZpt6r7HcMlDXonlWhwG6hZ5KLeA+Ep6dBVJkbS8MDXPs+dn+Pm37aevXiXNVtbGKSHwhCDKND/31gN84ktPYtsxqbEsJebKLVcbS6gkmda00+y64S8I4TbYWI4SfuPLT3BwuJ9/cfdhslaEEG5rgFacki23+bm33MBQyee1xjJWSlJr3T4+VwrcFC6gWDzdjexfy1IQ7YLA54kzk/zknz/Mox//CaaaEX/8zb+DMOSuPdv4lTsO8E9u3sMnvvwkE4uOFFLJR/Fm+HOXQMUMiTG0M71qT5frQVyJR1Oulnn6zBS/+pUn+NwD9/DJO24CzxBry43DdX79r5/ii8+fohwGtOIWcZa57WY2MdFfkvysxHUZLzgRgjTLCEoB//O5k9z137/ES/OLhL7PK7MNPvK/v8GfPnPcVTMAxMqmRVeM52pjO7sSdTNvrhfpRts8T/Hq7BI/+2dfA8/LYUGB73udgmqxXEpKuQrZu5z0XvuLpao8QuGhrUGhVqC660SK8pEQgsBTKL9SLFLo8Hg7c04OnrtqhEAob0MKvqRbaCQZ9x/eyc6Bemf19vXid2E1lGqtzSmkTqkF+aWANn3PAwHlMMRTasN66J2hWWhkCTeM1PnwoT3oVgR5GLOZYXEtyarSfd5Hle8DmS01WY6yjjvZaP97K1fAlrDMc+fnufeGLfzaj7+NOIqJomQd1rCSNoprOrIoqiNFMiGEIEkyWqnml+59K796543ozGLtxrGWnvuKpcbw2vwyw2GZ//b9l9g9UGG0Uua/fOcFHj4xwXKSInANCX03TNqpRliL57k601pe2RuR7vhadEUvRaFzbSdX3hfF0Et0uvP7FSBGW+vwA+0mMJukvPvgOL93/+3cPjZKI04wmWVrXyXnoWySzlT8oJ1p5loR3zpxgePzy/z0jXsYqSiW2q6YOFjz8YxiJop5ZXaO0wstjk7M8u1zUxydnMciqAQembE9ldAthaUUWaCQjmFZ1PKMsXkB0bgd7AQru3WYlVGDWGEfWnAr4KXslPpXXb9ok9YIi/sbBtRCn+FyyAcOjfGJOw6zrV7ifKPFr335Sd66Y5jPfvAdIISj9m82WuisVteGkpK8PNvg01/7Hp998kVGygFCCAbLIXeNj/L28WGGq2VOziwy245529gI9x0c54nTE/zR90+wsLhMUHFEjV6FyGLRXKLzPQwyvTIza9PZ/FJ4EiskwleM1ssYa+kLQ5SASuhjje3sIhqlGpGX+muhTyPKSLUmM4ZK4HesuuQ5pfeVAsfGqZV5y2g/H75lL4dHBnhlZoHvnp/lU199mUdPXsQ2I8YHayQxlELW7UOxIeV2V2aNdeRfKyXLScZsK3YnBJ48cQGpFD9+cIy3j40y3l8lzjI8Ab/3/rv48I17+IPHj/LVExdoLbUodnNGdFWCARv6bKuW6C8FHN4yABaqYcCewSrbyhWCwKPiK6qhx3DJZ6xWYylO6Su7XUL7yiFaa0IZ4PuCZpqRJoZWYqiVPCaWl4hSTWqcsgseWVkp+kslRitlMgxIy5OnL/LoiQv87t8+xxNnJzl9cR4ReJQDj7bvr/DTxMZXlPa03OJ1t68L821OrbV4tTLGWB55+TUe+cEpRKXEjVsHGCoH/NnfneC+/WN89sPvZHYpJU41pZIk1oYoNp2wTgqBUhmtTLOcpOwd6kMJwXhfmTAIODYxx0Qz4sWLc5xYWGJiOaKVZGhjSY3ulF0cx0IhpaAaeNR8H2MsQ6GHFYa+UkAp382knWqaSYq1sJhYlpKEiaU2jThmIUpYWG47nxv6lGulHFwXnUmMVZ7lDRLxrFnxgWv3RygWJ0spKZdDRDkkNYZjk/NuKCvFF188S9V/mh+/YRufuOMmbqjUaeuURtpGCEHdC5BKUAt8lAiYiWIeevEMRy/OcXRynlOLrU7cabV27sG64Shy0kaPVlMQQkQOiucNXtO3fMIyOv/akQKlUpRKQWd7rrTYEtwd9YYioJ5uwQrrCHE97ky3z8zsyoTl9pFRWOtuxFKS8qUXzvDlH5zCKsktWwephj7GWjJjmW22mWjGZFHiWDi5IoRameCUFAjl55Oem927Q6HVMbc7xto1XIg17ZeiyK488tMi8wipHae0s8j5/HJI4KmV0JNud3AF6S9svIQsuiykQ28SgqDY4yaXo9MLq3oqpCNZhOWwk3bC6k2LV3gUOX2q2GalUF7XX2tXh36XSna6CSXGuPoZSUa1Xuaendu5ZdswB4b6+IMnnufcQpNy4Dlrz4/Pg5DNu4XOwdaRlFd14DLSK+Tq/mXoeSsjNOdiGWu7tpK6PBvn9Tqz9rvXY/043q8mjVP++Z038tFb9+IphdaG994wxoWlZf7jI99zPh1nCMZafD9/ZMIGLbc3tpC7hbzVlz3JRsTkoZc2TqFmgzfthy1un0eLzQy//8F38FvveStVX5FpTWYtiXUb1v3Vx+/nJw6N04pThARfSTxvc7ul9Pa5WHypUKhNlZKvZunE1tpFGp/7qXv42JF9/Ou/eopHT55jvp1RDX0eOLyT9+/fwYvTi/zGXUdYbMY88co5fOm4x2uJga8nl7wVCoUvnO6vRaxgrRQ8L6MNv/i2/RwYqvOvvvJtHjx2ivONmMRaZloRf/LY8zz4whmw8MzEDO/avQWEcAseM4MUG8e3exLxpHC70mXWrTOQcnPD4WqUonxeKQXctXMLT5yZZLy/j6idUgrcxOsrRdBX5cvHzrJ7sMYdO4eYWG4hfJ9mkhFn7tEJGzW13vstGBfStFPtwpLrwHKlcDyxu8aGUUpyZqHNeF8dHcWdupiLSiCOEh584TRHtgwz2YywWncY63Bp1uq6a3a/6axB044rFvqyw1K51sXmU/9QJaSdZm4ll+cMp7taaC3gKc4sNDFGs5wYyDTDlRKV0CPP4jckPd1Clgg8TxAbDZletWTzWhUXHhuUkCzFbpPNmWbsHsXAyu4fBe7hSWehzTQF4Z4pYTbJIe1puW3bzi/icmut9Q+he2+uGGsRSnFyvsGh4X4ODtfyFemys2hPCuH2ccw0nlRsr1cpfOxynBKnK9WIjUhPyy35ilJe/QQ6cOG1LMa4Su+x6SU8PO7atZXFKO6ASIGnyIxhqdEikPDJu27i22cmOTW7AJ5D4aRaQfQ2Iuss12JpxBnCGqLUPbRocysBrk4p9kloxim/9Y2nuX//TkbDElmc0owSWotN+kOfj7/jRr788Q/wwUM7+diD36ARpav2CO6A8RuQnulvIAUzzYilPEszduM7El2tUiB8nid54bVZfuUvH+MzD9zNDVsHOLewzL6hOv0lnyjVHN4ywC8/9Dhn5paolkOarahTMdmM5fZYE2EZrVbIirKKkrApT3P1SlGPK5UCPv/My0y12nzy7pt5755xahXFd85OkWjDZ554jEdevUDgOxRPasu2eplajuptVNaviQBemF7gju0jLEUpZMatx8KsCnevxaytsN4M8MOAh185z8MvnkVYiwx9AiVptxPwFH7uCqQFnWYrrrHo9wbC054FyhNzDdqJZrGV8tH/9QivzS/lS/xFvgv/yurtYpBcS0+WKmp1sihgWrcc11q3njgzurPjvjCan731AP/+3iPcsn3YzYwbLPP0fKqUEILjM4uEwgMPXp6a53uvzfDFY2d5/uIcqXV7FzhwWxJIiZISbQwIOpnM1SZuDVqBOUMeaTrih3EbFlutQQjCwMMHPn3fHfzLO28k8OQq/WzoenaNqXWfINOGxTih7nv4nqKdZDx7YZavHDvH0xdmmGi2ON9osbQUYbPMbW7mKULfw8sreiYHsY1ZQdzcdbo7zaoKQjEj98SINwBSd4t7DFeOweLKOpkxxJnOn36iXd2sFLCtv8q2aol9gzV+5ua9vHf/GKPVUm4wppNMbbQNr/MMypWnjRSfR2lKSan80agwsxzx8KvnODq1yHKScXK+wYsX5zk1v4RoJ47inv8TaqWUA7hkf+UCnaHWsa68zNN5jFbnZ+tB8Z7lqLzkk2Yuy8R2bXRRCtk/0seuwRr7BusMlELG+ircvWuUu8ZHHZ/LinxpFB1+2GapXJd8BuXaIbC67GIwCLxihTiA1sw2M6Yj93yeRpLRShLm84d1TC61WYpTlpMMi2G6GXcenrSlVmG22Wa2FeYfQ4AAAAGsSURBVCEF1MKAqVZMI87oC13Nq5k6HLYdJRucTMD3FXfvHOXItiFGayXGam5bwb6Kz+6BKttqZfpKwZqbsvJirXFtVjb0UOVeCrd2ZUVhZizaaEqejxBwcm6JmWbEbDOiHnqMD9TAWqoyRAUQxZqFdowRGVFm8KREG1hMUof4S0HFU5Q9yVzkdg7ZUa0T24RA+bQjQ1NHCGFpJobYOAsLlaLmS6p+iKcknoKB/DE3lxJHanZbhxdP8iv6uLbvm1Xwhp9Y3VPWABmd51Jah1RKKUhiw1IW09aGZpLQTjWNOEHmXLOhSkhmLP0lH18pQk9SVYJQlfA8F4XE2mKwKAkl65FYjREarHCgvi8vC6gUxlDEqZ2dmtj4BLVZuSLlXsld3cDZyYylnaREmSHWBolguJI/RqvrxnaPokI6C2W6LDD/plOu+VEDqVdmuZcRd2a7zo2s0oRY/XKzN6u77sdVtu7zRwp3CbEy5AruqxTueTqdf12f9yqPF/9M1+viu+K8wFWzoDZNUx555BEajcaP1nL/IUqz2aRarfLFL37xR2u5/xCleILVkSNH+P9KxWbGgTHiRQAAAABJRU5ErkJggg==;fontSize=15;" vertex="1" parent="1">
          <mxGeometry x="860" y="690" width="87" height="98" as="geometry" />
        </mxCell>
        <mxCell id="mJLMkSrUWdxbOe2Fe1_0-13" value="" style="rounded=0;whiteSpace=wrap;html=1;" vertex="1" parent="1">
          <mxGeometry x="1070" y="590" width="560" height="350" as="geometry" />
        </mxCell>
        <mxCell id="mJLMkSrUWdxbOe2Fe1_0-14" value="&lt;div style=&quot;font-size: 15px;&quot;&gt;&lt;b&gt;&lt;font style=&quot;font-size: 15px;&quot;&gt;k8s cluster prod&lt;br&gt;&lt;/font&gt;&lt;/b&gt;&lt;/div&gt;" style="text;html=1;strokeColor=none;fillColor=none;align=center;verticalAlign=middle;whiteSpace=wrap;rounded=0;" vertex="1" parent="1">
          <mxGeometry x="1080" y="900" width="130" height="30" as="geometry" />
        </mxCell>
        <mxCell id="mJLMkSrUWdxbOe2Fe1_0-15" value="&lt;font style=&quot;font-size: 14px;&quot;&gt;Prometheus&lt;/font&gt;" style="rounded=1;whiteSpace=wrap;html=1;fillColor=#f8cecc;strokeColor=#b85450;" vertex="1" parent="1">
          <mxGeometry x="1140" y="170" width="120" height="60" as="geometry" />
        </mxCell>
        <mxCell id="mJLMkSrUWdxbOe2Fe1_0-17" value="&lt;div style=&quot;&quot;&gt;&lt;font style=&quot;font-size: 12px;&quot;&gt;Thanos&lt;/font&gt;&lt;/div&gt;&lt;div style=&quot;&quot;&gt;&lt;font style=&quot;font-size: 12px;&quot;&gt;Sidecar&lt;br&gt;&lt;/font&gt;&lt;/div&gt;" style="rounded=0;whiteSpace=wrap;html=1;fillColor=#dae8fc;strokeColor=#6c8ebf;" vertex="1" parent="1">
          <mxGeometry x="1100" y="170" width="40" height="60" as="geometry" />
        </mxCell>
        <mxCell id="mJLMkSrUWdxbOe2Fe1_0-19" value="&lt;font style=&quot;font-size: 14px;&quot;&gt;Prometheus&lt;/font&gt;" style="rounded=1;whiteSpace=wrap;html=1;fillColor=#f8cecc;strokeColor=#b85450;" vertex="1" parent="1">
          <mxGeometry x="1130" y="600" width="120" height="60" as="geometry" />
        </mxCell>
        <mxCell id="mJLMkSrUWdxbOe2Fe1_0-20" value="&lt;div style=&quot;&quot;&gt;&lt;font style=&quot;font-size: 12px;&quot;&gt;Thanos&lt;/font&gt;&lt;/div&gt;&lt;div style=&quot;&quot;&gt;&lt;font style=&quot;font-size: 12px;&quot;&gt;Sidecar&lt;br&gt;&lt;/font&gt;&lt;/div&gt;" style="rounded=0;whiteSpace=wrap;html=1;fillColor=#dae8fc;strokeColor=#6c8ebf;" vertex="1" parent="1">
          <mxGeometry x="1090" y="600" width="40" height="60" as="geometry" />
        </mxCell>
        <mxCell id="mJLMkSrUWdxbOe2Fe1_0-21" value="&lt;font style=&quot;font-size: 14px;&quot;&gt;Prometheus&lt;/font&gt;" style="rounded=1;whiteSpace=wrap;html=1;fillColor=#f8cecc;strokeColor=#b85450;" vertex="1" parent="1">
          <mxGeometry x="530" y="198" width="120" height="60" as="geometry" />
        </mxCell>
        <mxCell id="mJLMkSrUWdxbOe2Fe1_0-22" value="&lt;div style=&quot;&quot;&gt;&lt;font style=&quot;font-size: 12px;&quot;&gt;Thanos&lt;/font&gt;&lt;/div&gt;&lt;div style=&quot;&quot;&gt;&lt;font style=&quot;font-size: 12px;&quot;&gt;Sidecar&lt;br&gt;&lt;/font&gt;&lt;/div&gt;" style="rounded=0;whiteSpace=wrap;html=1;fillColor=#dae8fc;strokeColor=#6c8ebf;" vertex="1" parent="1">
          <mxGeometry x="650" y="198" width="40" height="60" as="geometry" />
        </mxCell>
        <mxCell id="mJLMkSrUWdxbOe2Fe1_0-24" value="&lt;font style=&quot;font-size: 14px;&quot;&gt;Prometheus&lt;/font&gt;" style="rounded=1;whiteSpace=wrap;html=1;fillColor=#f8cecc;strokeColor=#b85450;" vertex="1" parent="1">
          <mxGeometry x="540" y="208" width="120" height="60" as="geometry" />
        </mxCell>
        <mxCell id="mJLMkSrUWdxbOe2Fe1_0-69" value="&lt;font style=&quot;font-size: 14px;&quot;&gt;Store&lt;/font&gt;" style="rounded=0;orthogonalLoop=1;jettySize=auto;html=1;exitX=0.5;exitY=0;exitDx=0;exitDy=0;fillColor=#fff2cc;strokeColor=#d6b656;" edge="1" parent="1" source="mJLMkSrUWdxbOe2Fe1_0-25" target="mJLMkSrUWdxbOe2Fe1_0-6">
          <mxGeometry relative="1" as="geometry">
            <Array as="points">
              <mxPoint x="680" y="160" />
            </Array>
          </mxGeometry>
        </mxCell>
        <mxCell id="mJLMkSrUWdxbOe2Fe1_0-25" value="&lt;div style=&quot;&quot;&gt;&lt;font style=&quot;font-size: 12px;&quot;&gt;Thanos&lt;/font&gt;&lt;/div&gt;&lt;div style=&quot;&quot;&gt;&lt;font style=&quot;font-size: 12px;&quot;&gt;Sidecar&lt;br&gt;&lt;/font&gt;&lt;/div&gt;" style="rounded=0;whiteSpace=wrap;html=1;fillColor=#dae8fc;strokeColor=#6c8ebf;" vertex="1" parent="1">
          <mxGeometry x="660" y="208" width="40" height="60" as="geometry" />
        </mxCell>
        <mxCell id="mJLMkSrUWdxbOe2Fe1_0-55" value="&lt;font style=&quot;font-size: 14px;&quot;&gt;Store&lt;/font&gt;" style="rounded=0;orthogonalLoop=1;jettySize=auto;html=1;exitX=0;exitY=0.5;exitDx=0;exitDy=0;fillColor=#fff2cc;strokeColor=#d6b656;" edge="1" parent="1" source="mJLMkSrUWdxbOe2Fe1_0-26" target="mJLMkSrUWdxbOe2Fe1_0-7">
          <mxGeometry relative="1" as="geometry" />
        </mxCell>
        <mxCell id="mJLMkSrUWdxbOe2Fe1_0-26" value="&lt;div style=&quot;&quot;&gt;&lt;font style=&quot;font-size: 12px;&quot;&gt;Thanos&lt;/font&gt;&lt;/div&gt;&lt;div style=&quot;&quot;&gt;&lt;font style=&quot;font-size: 12px;&quot;&gt;Sidecar&lt;br&gt;&lt;/font&gt;&lt;/div&gt;" style="rounded=0;whiteSpace=wrap;html=1;fillColor=#dae8fc;strokeColor=#6c8ebf;" vertex="1" parent="1">
          <mxGeometry x="1110" y="180" width="40" height="60" as="geometry" />
        </mxCell>
        <mxCell id="mJLMkSrUWdxbOe2Fe1_0-27" value="&lt;font style=&quot;font-size: 14px;&quot;&gt;Prometheus&lt;/font&gt;" style="rounded=1;whiteSpace=wrap;html=1;fillColor=#f8cecc;strokeColor=#b85450;" vertex="1" parent="1">
          <mxGeometry x="1150" y="180" width="120" height="60" as="geometry" />
        </mxCell>
        <mxCell id="mJLMkSrUWdxbOe2Fe1_0-67" value="&lt;font style=&quot;font-size: 14px;&quot;&gt;Store&lt;/font&gt;" style="rounded=0;orthogonalLoop=1;jettySize=auto;html=1;exitX=0;exitY=0.5;exitDx=0;exitDy=0;entryX=1;entryY=0;entryDx=0;entryDy=0;fillColor=#fff2cc;strokeColor=#d6b656;" edge="1" parent="1" source="mJLMkSrUWdxbOe2Fe1_0-28" target="mJLMkSrUWdxbOe2Fe1_0-11">
          <mxGeometry relative="1" as="geometry" />
        </mxCell>
        <mxCell id="mJLMkSrUWdxbOe2Fe1_0-28" value="&lt;div style=&quot;&quot;&gt;&lt;font style=&quot;font-size: 12px;&quot;&gt;Thanos&lt;/font&gt;&lt;/div&gt;&lt;div style=&quot;&quot;&gt;&lt;font style=&quot;font-size: 12px;&quot;&gt;Sidecar&lt;br&gt;&lt;/font&gt;&lt;/div&gt;" style="rounded=0;whiteSpace=wrap;html=1;fillColor=#dae8fc;strokeColor=#6c8ebf;" vertex="1" parent="1">
          <mxGeometry x="1100" y="610" width="40" height="60" as="geometry" />
        </mxCell>
        <mxCell id="mJLMkSrUWdxbOe2Fe1_0-29" value="&lt;font style=&quot;font-size: 14px;&quot;&gt;Prometheus&lt;/font&gt;" style="rounded=1;whiteSpace=wrap;html=1;fillColor=#f8cecc;strokeColor=#b85450;" vertex="1" parent="1">
          <mxGeometry x="1140" y="610" width="120" height="60" as="geometry" />
        </mxCell>
        <mxCell id="mJLMkSrUWdxbOe2Fe1_0-31" value="&lt;font style=&quot;font-size: 14px;&quot;&gt;Alertmanager&lt;/font&gt;" style="rounded=1;whiteSpace=wrap;html=1;fillColor=#f8cecc;strokeColor=#b85450;" vertex="1" parent="1">
          <mxGeometry x="290" y="550" width="120" height="60" as="geometry" />
        </mxCell>
        <mxCell id="mJLMkSrUWdxbOe2Fe1_0-90" style="rounded=0;orthogonalLoop=1;jettySize=auto;html=1;exitX=0;exitY=0.5;exitDx=0;exitDy=0;entryX=1;entryY=0.5;entryDx=0;entryDy=0;fillColor=#fff2cc;strokeColor=#d6b656;" edge="1" parent="1" source="mJLMkSrUWdxbOe2Fe1_0-32" target="mJLMkSrUWdxbOe2Fe1_0-88">
          <mxGeometry relative="1" as="geometry" />
        </mxCell>
        <mxCell id="mJLMkSrUWdxbOe2Fe1_0-32" value="&lt;font style=&quot;font-size: 14px;&quot;&gt;Alertmanager&lt;/font&gt;" style="rounded=1;whiteSpace=wrap;html=1;fillColor=#f8cecc;strokeColor=#b85450;" vertex="1" parent="1">
          <mxGeometry x="1085" y="820" width="120" height="60" as="geometry" />
        </mxCell>
        <mxCell id="mJLMkSrUWdxbOe2Fe1_0-34" value="&lt;font style=&quot;font-size: 14px;&quot;&gt;Alertmanager&lt;/font&gt;" style="rounded=1;whiteSpace=wrap;html=1;fillColor=#f8cecc;strokeColor=#b85450;" vertex="1" parent="1">
          <mxGeometry x="1095" y="830" width="120" height="60" as="geometry" />
        </mxCell>
        <mxCell id="mJLMkSrUWdxbOe2Fe1_0-89" style="rounded=0;orthogonalLoop=1;jettySize=auto;html=1;exitX=0.5;exitY=1;exitDx=0;exitDy=0;entryX=0;entryY=0.25;entryDx=0;entryDy=0;fillColor=#fff2cc;strokeColor=#d6b656;" edge="1" parent="1" source="mJLMkSrUWdxbOe2Fe1_0-36" target="mJLMkSrUWdxbOe2Fe1_0-88">
          <mxGeometry relative="1" as="geometry" />
        </mxCell>
        <mxCell id="mJLMkSrUWdxbOe2Fe1_0-36" value="&lt;font style=&quot;font-size: 14px;&quot;&gt;Alertmanager&lt;/font&gt;" style="rounded=1;whiteSpace=wrap;html=1;fillColor=#f8cecc;strokeColor=#b85450;" vertex="1" parent="1">
          <mxGeometry x="300" y="560" width="120" height="60" as="geometry" />
        </mxCell>
        <mxCell id="mJLMkSrUWdxbOe2Fe1_0-37" value="&lt;font style=&quot;font-size: 14px;&quot;&gt;Alertmanager&lt;/font&gt;" style="rounded=1;whiteSpace=wrap;html=1;fillColor=#f8cecc;strokeColor=#b85450;" vertex="1" parent="1">
          <mxGeometry x="1100" y="380" width="120" height="60" as="geometry" />
        </mxCell>
        <mxCell id="mJLMkSrUWdxbOe2Fe1_0-38" value="&lt;font style=&quot;font-size: 14px;&quot;&gt;Alertmanager&lt;/font&gt;" style="rounded=1;whiteSpace=wrap;html=1;fillColor=#f8cecc;strokeColor=#b85450;" vertex="1" parent="1">
          <mxGeometry x="1110" y="390" width="120" height="60" as="geometry" />
        </mxCell>
        <mxCell id="mJLMkSrUWdxbOe2Fe1_0-66" value="&lt;font style=&quot;font-size: 14px;&quot;&gt;compact&lt;/font&gt;" style="rounded=0;orthogonalLoop=1;jettySize=auto;html=1;exitX=0;exitY=0.25;exitDx=0;exitDy=0;entryX=1;entryY=0.5;entryDx=0;entryDy=0;fillColor=#fff2cc;strokeColor=#d6b656;" edge="1" parent="1" source="mJLMkSrUWdxbOe2Fe1_0-39" target="mJLMkSrUWdxbOe2Fe1_0-11">
          <mxGeometry relative="1" as="geometry" />
        </mxCell>
        <mxCell id="mJLMkSrUWdxbOe2Fe1_0-39" value="&lt;font style=&quot;font-size: 14px;&quot;&gt;Thanos Compactor&lt;/font&gt;" style="rounded=1;whiteSpace=wrap;html=1;fillColor=#dae8fc;strokeColor=#6c8ebf;" vertex="1" parent="1">
          <mxGeometry x="1095" y="735" width="120" height="60" as="geometry" />
        </mxCell>
        <mxCell id="mJLMkSrUWdxbOe2Fe1_0-56" value="&lt;div style=&quot;font-size: 14px;&quot;&gt;&lt;font style=&quot;font-size: 14px;&quot;&gt;Compact&lt;/font&gt;&lt;/div&gt;" style="rounded=0;orthogonalLoop=1;jettySize=auto;html=1;exitX=0;exitY=0.5;exitDx=0;exitDy=0;entryX=1;entryY=0.75;entryDx=0;entryDy=0;fillColor=#fff2cc;strokeColor=#d6b656;" edge="1" parent="1" source="mJLMkSrUWdxbOe2Fe1_0-40" target="mJLMkSrUWdxbOe2Fe1_0-7">
          <mxGeometry relative="1" as="geometry" />
        </mxCell>
        <mxCell id="mJLMkSrUWdxbOe2Fe1_0-40" value="&lt;font style=&quot;font-size: 14px;&quot;&gt;Thanos Compactor&lt;/font&gt;" style="rounded=1;whiteSpace=wrap;html=1;fillColor=#dae8fc;strokeColor=#6c8ebf;" vertex="1" parent="1">
          <mxGeometry x="1100" y="290" width="120" height="60" as="geometry" />
        </mxCell>
        <mxCell id="mJLMkSrUWdxbOe2Fe1_0-70" value="&lt;font style=&quot;font-size: 14px;&quot;&gt;compact&lt;/font&gt;" style="rounded=0;orthogonalLoop=1;jettySize=auto;html=1;exitX=0.75;exitY=0;exitDx=0;exitDy=0;entryX=0;entryY=0.5;entryDx=0;entryDy=0;fillColor=#fff2cc;strokeColor=#d6b656;" edge="1" parent="1" source="mJLMkSrUWdxbOe2Fe1_0-41" target="mJLMkSrUWdxbOe2Fe1_0-6">
          <mxGeometry relative="1" as="geometry" />
        </mxCell>
        <mxCell id="mJLMkSrUWdxbOe2Fe1_0-41" value="&lt;font style=&quot;font-size: 14px;&quot;&gt;Thanos Compactor&lt;/font&gt;" style="rounded=1;whiteSpace=wrap;html=1;fillColor=#dae8fc;strokeColor=#6c8ebf;" vertex="1" parent="1">
          <mxGeometry x="80" y="208" width="120" height="60" as="geometry" />
        </mxCell>
        <mxCell id="mJLMkSrUWdxbOe2Fe1_0-68" value="&lt;font style=&quot;font-size: 14px;&quot;&gt;query&lt;/font&gt;" style="rounded=0;orthogonalLoop=1;jettySize=auto;html=1;exitX=1;exitY=0;exitDx=0;exitDy=0;entryX=0;entryY=0.75;entryDx=0;entryDy=0;fillColor=#fff2cc;strokeColor=#d6b656;" edge="1" parent="1" source="mJLMkSrUWdxbOe2Fe1_0-42" target="mJLMkSrUWdxbOe2Fe1_0-6">
          <mxGeometry relative="1" as="geometry" />
        </mxCell>
        <mxCell id="mJLMkSrUWdxbOe2Fe1_0-42" value="&lt;div&gt;&lt;font style=&quot;font-size: 14px;&quot;&gt;Thanos Store&lt;/font&gt;&lt;/div&gt;&lt;div&gt;&lt;font style=&quot;font-size: 14px;&quot;&gt;internal&lt;br&gt;&lt;/font&gt;&lt;/div&gt;" style="rounded=1;whiteSpace=wrap;html=1;fillColor=#dae8fc;strokeColor=#6c8ebf;" vertex="1" parent="1">
          <mxGeometry x="330" y="208" width="120" height="60" as="geometry" />
        </mxCell>
        <mxCell id="mJLMkSrUWdxbOe2Fe1_0-43" value="&lt;div&gt;&lt;font style=&quot;font-size: 14px;&quot;&gt;Thanos Store prod&lt;br&gt;&lt;/font&gt;&lt;/div&gt;" style="rounded=1;whiteSpace=wrap;html=1;fillColor=#dae8fc;strokeColor=#6c8ebf;" vertex="1" parent="1">
          <mxGeometry x="580" y="510" width="120" height="60" as="geometry" />
        </mxCell>
        <mxCell id="mJLMkSrUWdxbOe2Fe1_0-44" value="&lt;div&gt;&lt;font style=&quot;font-size: 14px;&quot;&gt;Thanos Store dev&lt;br&gt;&lt;/font&gt;&lt;/div&gt;" style="rounded=1;whiteSpace=wrap;html=1;fillColor=#dae8fc;strokeColor=#6c8ebf;" vertex="1" parent="1">
          <mxGeometry x="580" y="280" width="120" height="60" as="geometry" />
        </mxCell>
        <mxCell id="mJLMkSrUWdxbOe2Fe1_0-45" value="&lt;div&gt;&lt;font style=&quot;font-size: 14px;&quot;&gt;Thanos Query dev&lt;br&gt;&lt;/font&gt;&lt;/div&gt;" style="rounded=1;whiteSpace=wrap;html=1;fillColor=#dae8fc;strokeColor=#6c8ebf;" vertex="1" parent="1">
          <mxGeometry x="580" y="360" width="120" height="60" as="geometry" />
        </mxCell>
        <mxCell id="mJLMkSrUWdxbOe2Fe1_0-46" value="&lt;div&gt;&lt;font style=&quot;font-size: 14px;&quot;&gt;Thanos Query Prod&lt;br&gt;&lt;/font&gt;&lt;/div&gt;" style="rounded=1;whiteSpace=wrap;html=1;fillColor=#dae8fc;strokeColor=#6c8ebf;" vertex="1" parent="1">
          <mxGeometry x="580" y="430" width="120" height="60" as="geometry" />
        </mxCell>
        <mxCell id="mJLMkSrUWdxbOe2Fe1_0-47" value="&lt;div&gt;&lt;font style=&quot;font-size: 14px;&quot;&gt;Thanos Query all&lt;br&gt;&lt;/font&gt;&lt;/div&gt;" style="rounded=1;whiteSpace=wrap;html=1;fillColor=#dae8fc;strokeColor=#6c8ebf;" vertex="1" parent="1">
          <mxGeometry x="240" y="400" width="120" height="60" as="geometry" />
        </mxCell>
        <mxCell id="mJLMkSrUWdxbOe2Fe1_0-54" value="&lt;font style=&quot;font-size: 14px;&quot;&gt;query&lt;/font&gt;" style="rounded=0;orthogonalLoop=1;jettySize=auto;html=1;exitX=1;exitY=0.5;exitDx=0;exitDy=0;entryX=0;entryY=0.5;entryDx=0;entryDy=0;fillColor=#fff2cc;strokeColor=#d6b656;" edge="1" parent="1" source="mJLMkSrUWdxbOe2Fe1_0-48" target="mJLMkSrUWdxbOe2Fe1_0-7">
          <mxGeometry relative="1" as="geometry" />
        </mxCell>
        <mxCell id="mJLMkSrUWdxbOe2Fe1_0-48" value="&lt;div&gt;&lt;font style=&quot;font-size: 14px;&quot;&gt;Thanos Store dev&lt;br&gt;&lt;/font&gt;&lt;/div&gt;" style="rounded=1;whiteSpace=wrap;html=1;fillColor=#dae8fc;strokeColor=#6c8ebf;" vertex="1" parent="1">
          <mxGeometry x="590" y="290" width="120" height="60" as="geometry" />
        </mxCell>
        <mxCell id="mJLMkSrUWdxbOe2Fe1_0-63" value="&lt;font style=&quot;font-size: 14px;&quot;&gt;query&lt;/font&gt;" style="rounded=0;orthogonalLoop=1;jettySize=auto;html=1;exitX=1;exitY=0.75;exitDx=0;exitDy=0;entryX=0;entryY=0.367;entryDx=0;entryDy=0;entryPerimeter=0;fillColor=#fff2cc;strokeColor=#d6b656;" edge="1" parent="1" source="mJLMkSrUWdxbOe2Fe1_0-49" target="mJLMkSrUWdxbOe2Fe1_0-11">
          <mxGeometry relative="1" as="geometry" />
        </mxCell>
        <mxCell id="mJLMkSrUWdxbOe2Fe1_0-49" value="&lt;div&gt;&lt;font style=&quot;font-size: 14px;&quot;&gt;Thanos Store prod&lt;br&gt;&lt;/font&gt;&lt;/div&gt;" style="rounded=1;whiteSpace=wrap;html=1;fillColor=#dae8fc;strokeColor=#6c8ebf;" vertex="1" parent="1">
          <mxGeometry x="590" y="520" width="120" height="60" as="geometry" />
        </mxCell>
        <mxCell id="mJLMkSrUWdxbOe2Fe1_0-61" value="&lt;font style=&quot;font-size: 14px;&quot;&gt;query&lt;/font&gt;" style="rounded=0;orthogonalLoop=1;jettySize=auto;html=1;exitX=1;exitY=0.5;exitDx=0;exitDy=0;entryX=0;entryY=0.5;entryDx=0;entryDy=0;fillColor=#fff2cc;strokeColor=#d6b656;" edge="1" parent="1" source="mJLMkSrUWdxbOe2Fe1_0-51" target="mJLMkSrUWdxbOe2Fe1_0-57">
          <mxGeometry relative="1" as="geometry" />
        </mxCell>
        <mxCell id="mJLMkSrUWdxbOe2Fe1_0-64" value="&lt;font style=&quot;font-size: 14px;&quot;&gt;query&lt;/font&gt;" style="rounded=0;orthogonalLoop=1;jettySize=auto;html=1;exitX=1;exitY=0.75;exitDx=0;exitDy=0;entryX=0;entryY=0;entryDx=0;entryDy=0;fillColor=#fff2cc;strokeColor=#d6b656;" edge="1" parent="1" source="mJLMkSrUWdxbOe2Fe1_0-50" target="mJLMkSrUWdxbOe2Fe1_0-58">
          <mxGeometry x="0.0001" relative="1" as="geometry">
            <mxPoint as="offset" />
          </mxGeometry>
        </mxCell>
        <mxCell id="mJLMkSrUWdxbOe2Fe1_0-50" value="&lt;div&gt;&lt;font style=&quot;font-size: 14px;&quot;&gt;Thanos Query Prod&lt;br&gt;&lt;/font&gt;&lt;/div&gt;" style="rounded=1;whiteSpace=wrap;html=1;fillColor=#dae8fc;strokeColor=#6c8ebf;" vertex="1" parent="1">
          <mxGeometry x="590" y="440" width="120" height="60" as="geometry" />
        </mxCell>
        <mxCell id="mJLMkSrUWdxbOe2Fe1_0-51" value="&lt;div&gt;&lt;font style=&quot;font-size: 14px;&quot;&gt;Thanos Query dev&lt;br&gt;&lt;/font&gt;&lt;/div&gt;" style="rounded=1;whiteSpace=wrap;html=1;fillColor=#dae8fc;strokeColor=#6c8ebf;" vertex="1" parent="1">
          <mxGeometry x="590" y="370" width="120" height="60" as="geometry" />
        </mxCell>
        <mxCell id="mJLMkSrUWdxbOe2Fe1_0-71" value="&lt;font style=&quot;font-size: 14px;&quot;&gt;query&lt;/font&gt;" style="rounded=0;orthogonalLoop=1;jettySize=auto;html=1;exitX=1;exitY=0.25;exitDx=0;exitDy=0;entryX=0;entryY=0.5;entryDx=0;entryDy=0;fillColor=#d5e8d4;strokeColor=#82b366;" edge="1" parent="1" source="mJLMkSrUWdxbOe2Fe1_0-53" target="mJLMkSrUWdxbOe2Fe1_0-44">
          <mxGeometry relative="1" as="geometry" />
        </mxCell>
        <mxCell id="mJLMkSrUWdxbOe2Fe1_0-53" value="&lt;div&gt;&lt;font style=&quot;font-size: 14px;&quot;&gt;Thanos Query all&lt;br&gt;&lt;/font&gt;&lt;/div&gt;" style="rounded=1;whiteSpace=wrap;html=1;fillColor=#dae8fc;strokeColor=#6c8ebf;" vertex="1" parent="1">
          <mxGeometry x="250" y="410" width="120" height="60" as="geometry" />
        </mxCell>
        <mxCell id="mJLMkSrUWdxbOe2Fe1_0-62" style="rounded=0;orthogonalLoop=1;jettySize=auto;html=1;exitX=1;exitY=0.25;exitDx=0;exitDy=0;entryX=0;entryY=1;entryDx=0;entryDy=0;fillColor=#d5e8d4;strokeColor=#82b366;" edge="1" parent="1" source="mJLMkSrUWdxbOe2Fe1_0-57" target="mJLMkSrUWdxbOe2Fe1_0-26">
          <mxGeometry relative="1" as="geometry" />
        </mxCell>
        <mxCell id="mJLMkSrUWdxbOe2Fe1_0-57" value="&lt;font style=&quot;font-size: 14px;&quot;&gt;ingress&lt;/font&gt;" style="whiteSpace=wrap;html=1;aspect=fixed;" vertex="1" parent="1">
          <mxGeometry x="1035" y="320" width="50" height="50" as="geometry" />
        </mxCell>
        <mxCell id="mJLMkSrUWdxbOe2Fe1_0-65" style="rounded=0;orthogonalLoop=1;jettySize=auto;html=1;exitX=1;exitY=0;exitDx=0;exitDy=0;entryX=0.25;entryY=1;entryDx=0;entryDy=0;fillColor=#d5e8d4;strokeColor=#82b366;" edge="1" parent="1" source="mJLMkSrUWdxbOe2Fe1_0-58" target="mJLMkSrUWdxbOe2Fe1_0-28">
          <mxGeometry relative="1" as="geometry" />
        </mxCell>
        <mxCell id="mJLMkSrUWdxbOe2Fe1_0-58" value="&lt;font style=&quot;font-size: 14px;&quot;&gt;ingress&lt;/font&gt;" style="whiteSpace=wrap;html=1;aspect=fixed;" vertex="1" parent="1">
          <mxGeometry x="1030" y="760" width="50" height="50" as="geometry" />
        </mxCell>
        <mxCell id="mJLMkSrUWdxbOe2Fe1_0-72" value="&lt;font style=&quot;font-size: 14px;&quot;&gt;query&lt;/font&gt;" style="rounded=0;orthogonalLoop=1;jettySize=auto;html=1;exitX=1;exitY=0.5;exitDx=0;exitDy=0;entryX=0;entryY=0.5;entryDx=0;entryDy=0;fillColor=#d5e8d4;strokeColor=#82b366;" edge="1" parent="1" source="mJLMkSrUWdxbOe2Fe1_0-53" target="mJLMkSrUWdxbOe2Fe1_0-45">
          <mxGeometry relative="1" as="geometry">
            <mxPoint x="380" y="435" as="sourcePoint" />
            <mxPoint x="590" y="320" as="targetPoint" />
          </mxGeometry>
        </mxCell>
        <mxCell id="mJLMkSrUWdxbOe2Fe1_0-73" value="&lt;font style=&quot;font-size: 14px;&quot;&gt;query&lt;/font&gt;" style="rounded=0;orthogonalLoop=1;jettySize=auto;html=1;exitX=1;exitY=0.75;exitDx=0;exitDy=0;entryX=0;entryY=0.5;entryDx=0;entryDy=0;fillColor=#d5e8d4;strokeColor=#82b366;" edge="1" parent="1" source="mJLMkSrUWdxbOe2Fe1_0-53" target="mJLMkSrUWdxbOe2Fe1_0-46">
          <mxGeometry relative="1" as="geometry">
            <mxPoint x="380" y="450" as="sourcePoint" />
            <mxPoint x="590" y="400" as="targetPoint" />
          </mxGeometry>
        </mxCell>
        <mxCell id="mJLMkSrUWdxbOe2Fe1_0-74" value="&lt;font style=&quot;font-size: 14px;&quot;&gt;query&lt;/font&gt;" style="rounded=0;orthogonalLoop=1;jettySize=auto;html=1;exitX=1;exitY=1;exitDx=0;exitDy=0;entryX=0;entryY=0.5;entryDx=0;entryDy=0;fillColor=#d5e8d4;strokeColor=#82b366;" edge="1" parent="1" source="mJLMkSrUWdxbOe2Fe1_0-53" target="mJLMkSrUWdxbOe2Fe1_0-43">
          <mxGeometry relative="1" as="geometry">
            <mxPoint x="380" y="465" as="sourcePoint" />
            <mxPoint x="590" y="470" as="targetPoint" />
          </mxGeometry>
        </mxCell>
        <mxCell id="mJLMkSrUWdxbOe2Fe1_0-75" value="&lt;font style=&quot;font-size: 14px;&quot;&gt;query&lt;/font&gt;" style="rounded=0;orthogonalLoop=1;jettySize=auto;html=1;exitX=1;exitY=0.25;exitDx=0;exitDy=0;entryX=0.5;entryY=1;entryDx=0;entryDy=0;fillColor=#d5e8d4;strokeColor=#82b366;" edge="1" parent="1" source="mJLMkSrUWdxbOe2Fe1_0-53" target="mJLMkSrUWdxbOe2Fe1_0-42">
          <mxGeometry relative="1" as="geometry">
            <mxPoint x="390" y="475" as="sourcePoint" />
            <mxPoint x="600" y="480" as="targetPoint" />
          </mxGeometry>
        </mxCell>
        <mxCell id="mJLMkSrUWdxbOe2Fe1_0-77" value="&lt;font style=&quot;font-size: 14px;&quot;&gt;query&lt;/font&gt;" style="rounded=0;orthogonalLoop=1;jettySize=auto;html=1;entryX=0.5;entryY=1;entryDx=0;entryDy=0;fillColor=#d5e8d4;strokeColor=#82b366;" edge="1" parent="1" target="mJLMkSrUWdxbOe2Fe1_0-25">
          <mxGeometry relative="1" as="geometry">
            <mxPoint x="370" y="420" as="sourcePoint" />
            <mxPoint x="590" y="320" as="targetPoint" />
            <Array as="points">
              <mxPoint x="490" y="300" />
            </Array>
          </mxGeometry>
        </mxCell>
        <mxCell id="mJLMkSrUWdxbOe2Fe1_0-79" value="&lt;font style=&quot;font-size: 14px;&quot;&gt;query&lt;/font&gt;" style="rounded=0;orthogonalLoop=1;jettySize=auto;html=1;exitX=1;exitY=0;exitDx=0;exitDy=0;entryX=0;entryY=1;entryDx=0;entryDy=0;fillColor=#d5e8d4;strokeColor=#82b366;" edge="1" parent="1" source="mJLMkSrUWdxbOe2Fe1_0-78" target="mJLMkSrUWdxbOe2Fe1_0-47">
          <mxGeometry relative="1" as="geometry" />
        </mxCell>
        <mxCell id="mJLMkSrUWdxbOe2Fe1_0-78" value="&lt;font style=&quot;font-size: 14px;&quot;&gt;Grafana&lt;/font&gt;" style="rounded=1;whiteSpace=wrap;html=1;fillColor=#fff2cc;strokeColor=#d6b656;" vertex="1" parent="1">
          <mxGeometry x="70" y="540" width="120" height="60" as="geometry" />
        </mxCell>
        <mxCell id="mJLMkSrUWdxbOe2Fe1_0-80" value="&lt;div style=&quot;font-size: 14px;&quot; align=&quot;left&quot;&gt;&lt;font style=&quot;font-size: 14px;&quot;&gt;&amp;nbsp; labels:&lt;/font&gt;&lt;/div&gt;&lt;div style=&quot;font-size: 14px;&quot; align=&quot;left&quot;&gt;&lt;font style=&quot;font-size: 14px;&quot;&gt;&amp;nbsp;&amp;nbsp;&amp;nbsp;&amp;nbsp; env: internal&lt;br&gt;&lt;/font&gt;&lt;/div&gt;" style="rounded=0;whiteSpace=wrap;html=1;align=left;fillColor=#f5f5f5;fontColor=#333333;strokeColor=#666666;" vertex="1" parent="1">
          <mxGeometry x="70" y="380" width="120" height="60" as="geometry" />
        </mxCell>
        <mxCell id="mJLMkSrUWdxbOe2Fe1_0-81" value="&lt;div style=&quot;font-size: 14px;&quot; align=&quot;left&quot;&gt;&lt;font style=&quot;font-size: 14px;&quot;&gt;&amp;nbsp; labels:&lt;/font&gt;&lt;/div&gt;&lt;div style=&quot;font-size: 14px;&quot; align=&quot;left&quot;&gt;&lt;font style=&quot;font-size: 14px;&quot;&gt;&amp;nbsp;&amp;nbsp;&amp;nbsp;&amp;nbsp; env: prod&lt;br&gt;&lt;/font&gt;&lt;/div&gt;" style="rounded=0;whiteSpace=wrap;html=1;align=left;fillColor=#f5f5f5;fontColor=#333333;strokeColor=#666666;" vertex="1" parent="1">
          <mxGeometry x="1480" y="870" width="120" height="60" as="geometry" />
        </mxCell>
        <mxCell id="mJLMkSrUWdxbOe2Fe1_0-82" value="&lt;div style=&quot;font-size: 14px;&quot; align=&quot;left&quot;&gt;&lt;font style=&quot;font-size: 14px;&quot;&gt;&amp;nbsp; labels:&lt;/font&gt;&lt;/div&gt;&lt;div style=&quot;font-size: 14px;&quot; align=&quot;left&quot;&gt;&lt;font style=&quot;font-size: 14px;&quot;&gt;&amp;nbsp;&amp;nbsp;&amp;nbsp;&amp;nbsp; env: dev&lt;br&gt;&lt;/font&gt;&lt;/div&gt;" style="rounded=0;whiteSpace=wrap;html=1;align=left;fillColor=#f5f5f5;fontColor=#333333;strokeColor=#666666;" vertex="1" parent="1">
          <mxGeometry x="1490" y="430" width="120" height="60" as="geometry" />
        </mxCell>
        <mxCell id="mJLMkSrUWdxbOe2Fe1_0-83" value="" style="whiteSpace=wrap;html=1;aspect=fixed;" vertex="1" parent="1">
          <mxGeometry x="50" y="695" width="140" height="140" as="geometry" />
        </mxCell>
        <mxCell id="mJLMkSrUWdxbOe2Fe1_0-84" value="&lt;font style=&quot;font-size: 14px;&quot;&gt;legend&lt;/font&gt;" style="text;html=1;strokeColor=none;fillColor=none;align=center;verticalAlign=middle;whiteSpace=wrap;rounded=0;" vertex="1" parent="1">
          <mxGeometry x="60" y="690" width="90" height="30" as="geometry" />
        </mxCell>
        <mxCell id="mJLMkSrUWdxbOe2Fe1_0-86" value="&lt;font style=&quot;font-size: 14px;&quot;&gt;tls&lt;/font&gt;" style="rounded=1;whiteSpace=wrap;html=1;fillColor=#fff2cc;strokeColor=#d6b656;" vertex="1" parent="1">
          <mxGeometry x="80" y="720" width="80" height="40" as="geometry" />
        </mxCell>
        <mxCell id="mJLMkSrUWdxbOe2Fe1_0-87" value="&lt;font style=&quot;font-size: 14px;&quot;&gt;http&lt;/font&gt;" style="rounded=1;whiteSpace=wrap;html=1;fillColor=#d5e8d4;strokeColor=#82b366;" vertex="1" parent="1">
          <mxGeometry x="80" y="780" width="80" height="40" as="geometry" />
        </mxCell>
        <mxCell id="mJLMkSrUWdxbOe2Fe1_0-88" value="" style="shape=image;verticalLabelPosition=bottom;labelBackgroundColor=default;verticalAlign=top;aspect=fixed;imageAspect=0;image=data:image/png,iVBORw0KGgoAAAANSUhEUgAAAHoAAACwCAYAAADAKno2AAAgAElEQVR4nOy9d5Tdx3Xn+an6pZdDv84R3cgZJECApEiCOYikEiV5lBxkWQ7jkcY7x/aeHQft2uu1vU4zY481DpIly7IiKZEUE5gARgAEASLHbqBz9+t+Of5C1f7xAJC0qEBJFuG1vucA6H7d5/erut+6t27dUBBaa81P8P97yLd6AD/Bjwc/IfrfCX5C9L8T/ITofyf4CdH/TvATov+d4CdE/zvBv3miLwQBtNb8JCDwnfFvkmgNqPNfiwv/CnHx60DDv2YY6N9ijMl8qwfwZhAAQoMUrxJ8tuYzVnZR0mQgYtAfkkSM1k8VP5qVrNEESoEAgcAQracGOjhvRVrvkwikEN/xOW8lxL+VEKjWGnFeiEdKHmerHscbkscXPTbFTaTQ2ELQ5wj6Q3BTxsIyDDSvLoofBErrbyNPnzcn4g1WUaAVUgjED/XWHz0ueaJfS9T9cy7P5pqUlMGBukFCNVkRM7k8YdAIYLqpmHU1UkC7oXhfb5jLEsYPPYa5Rold8yc4Xp5BKUHerSC1QdIJIyW0O1GipsM1mZWMxNtfP/7XLNC3Epc00ReEVFOaPx5toBS8p8fhf443iBmCj/Q6/ONUkxVRwYqI5FxDM2L7jHkW98428TT87yMhtrdZb6iZ3wlKK6SQTFTz/O2Zp2koj82pJTR8xan6FH1GlJHUADtmX2FbchlTfpnT5WnKXpNMKMb21AhXdq2hKxL7V5bQ949Leo8WQlAPNJ8602B9GD7cH6amQClFyBDsWGjy6wOCxwqCZwuK/7zEIWE6XIvmZ/tsvj7b4PfONPADxU0dTstJQ2N+F8IDrTCE5IHJA3x5cg8/O3QtV3UsJWrazNRLTI/liNlhtmaWAJqT+Qmu6VxO2nLQwOp4N4eKU/yfR+9jS3op7x/YQsy2f1wi+464ZL1urTWBhj8cbbAhrPnIQBgh4DOTDVKG5pqUwbQrqEibK5ISS8JXZz0OVQIWXSh6mvURuCkl+Opsk2qgMQTflWQAQ0gO5Wa499xe3tV3GW/rXEbUbBEltMCWBj7w2MxhDGnyfPEc988eosOJ857eLVyRWcZHhq/mTzd9gMl6lt89/HXqvvdjkNh3xyVpugMNhoAH5z32Fn1+a8SmFEgiJnzsYJVtaZu7umyazQZfnFP0hU1WRCQvFDzqCtbFTEwJEUNwTRx++USTn+qy2BKHJwvw4V77DT3yU/kc55qzPDx7kA8PbKM/mmHP4hhd4SQTtUUenznBufo8XVYU07AQUmALk5JX57NbP8ZoeZF9xbP0h+Jc3bkCgN85dB8bUgO8d2DLj12Or8Ulp9Ga1vGp5GuezPn8bJ/DaC3gK7NN/n7SJWlJbms3GQnBUEgy39SM1hSro5L/POhwWcIEoTlS9tkQExS8gLgBn5tqMl7XPDVfw/c9xL9Y3kor+mNxThWzFN06l2WGiZgOB4sT/D9HHuTeiX3EHZufX3ItITtMwa8jtOBoaZqcV+MT+7/It6ZeIiEEK5N9aDRKa3566GpeWhx9S2T5Wlxye7Q+f05+fMFjVdRgOCJ5ORfQY2r+aipgU8JiZVTia/hfs5q7Oi1yvuaZxQbv6A5zT5fF3066TDYU35jzQAjipqAZSEZdSXvIwjQtlH79sUsKSdiSlFWNhBniq+N7eHD6FdbFe/mloas5UpkjZEUYinaytlkg24ixvXMVvla8lDvLE7OHmXeL2EJwVftaBAKNYmm8i4Lf+KGPeT8sLjmNlgLqgWZvSTEYFozWNdNN2FWGHlvQKT0+M9Hks1NNVscM7u6yuSmhKQSCZ/KKnTmPsq+5Lm1R8CHvaSbqihszFrsLHpZsTVm9JmB6Yfeaqufxlc9QtJ2/H3uWQGsSpkNBe2xODdJmh/gfpx9jWayT/kiaUtBk0EmQbeR598BWtqdX8+nxZ3ksexAVtBbPBdPR8IMfvzBfg0uK6AvewlQjoOwH9DgGlUaT3pCk4mlWxQx+fXmcmtI8nA1YarWE1x8PcXvG5GzD5x+nXVZEJANhiY8mY8NQWHKgHHC0EpCwWnr1Ou06/81krUjIsFiX7KPbSbApPcBD80d5PjdKXWiaSnF79zpeKUxyeWqIcrPK34w9wzXtKxkMpxiMdvAnG/4DfzP6NP9wZhdT5QXQAqUVjvHWivqSIloI8JTi+UJA0pD0O4IIAcUAekIGEQOeWvRxpOQ3hm0eXNTcN9fyaKva4Eg54OqUxWRT8/iix4czmu2xgJhlsDFhMBiSF1fTa1MgF6JYs/UcIHhq7himlFzVtpQPDV4JCv55fDcz9TydToJ7erfy/OJplJJsTq+i6dVpKI+SX+bmjlV8aOhtPLZwjHQ4TqnpIZFveWj0kiIaoNRwOVUNMKXgK3MeX85Jir4mZcB/aBf883SDhAlXpkze1+OQb3r8r/Emj2VdPj7goLTmeCVgacQgHAqTCwxCAu7pMul2JJWLFvT1gldo0DBeXeRcPcfVmWUcLk2xNtbPmkQ/EdPmxdwZjhTnWGiWuCq5hCZNLK3IhNvINisMhdp4bv4Mq6ODEPgcLc+glSZhhn/scvyXuOSIzkRCLI9bDIZgTQQ6HYMHFgJmGj67awbXtDl02pIFV9EfEmyOGzy84OEiEAIKvmIgJLkmIXhkweVr84qP90qihmS2qSj7LU02/mX8WmuOlmeYqOcZiXYw2ciz0KzwfP4kpiHYmBrgps7VHC2P83fndlFBsTkxiGXDweI4d/ZcRkV7vFA6w4HSaT6y5EoemnqFrL9I0nbeClG+DpcU0YrWGdpG0xcSbE2aXBsLCKFZDASPZD3SFiRMyYGy4uGsx/MVwaeWOvTbit873WQoYvDxQZv9JY+zdcU70wEHK+cdIg01z8fzfQpNH/WaEELDDzhYmCBkWAyEU7yj8wpOlec4VckiheD6zDq2plYyGG3n5s5V/PPEC+zLjdJtJ7g8PUSulmdVvI+SVyOFSdgKU/NdHpo+RC146wMmlwTRF8R9oqp4cqGJqzTHqpqwKckGBlNNCKHpd2DIDvADj2fzPt+Y9+izYW3cxEOyOgK+FjyX85lwDZaEYCRioBE8mfOp+4qcknx1XvFCSeOqV8ewd+EU840SPeEk2zPreD5/gohpU/UbCA1uoMh6JX5t6dtRCtYk+jlcnePZxdOsSw1Q0x5/evJBbu+4nFg4wXyzRG84xf7iOFcmB94Sub4Wl8Q5+oIRXR2VDBjwlazmcDngaDngj8fqXJ5y+FivwaKneDyn6DN9BkI2GUNxtqH49ESTJRGDj3SbfHbG5/GFgK1JgyUhwcMFGA4HHKpJwobkqrTJiqjBlqSBQl9MnLSZUfJejYwVRwmfsl8lJC02pgY4U5tnf2GcP934AQrNGklhkolkCEkTxzD5/NnnSJphOp0EOa/EDd1rsA14fP4Y906+zHCi/y2VL1wiGv1axEIO29I2YUPw6QmXsGlya8ZkIGKxMu6QsiQPFgxcDR/pBAPN84WApoLTzdaS6XEEvobdFcFIxKDdFGyKSzbGDUJSMF5veWRKi4spxLZwkjY7ykwjx9MLx1iX6GdDcoDTlTnWxoZYHe/lC+PP8UphjNmgimNYvL13I91OGl8F3De1n6jhMBRt5/HZY8zUi2xND5OxoyTtnzhjb4i1McnlcYMjFZ+PdmraLcGOBY9nch5rQz63ZCRlT/HfplunpT9fZhIoxR+dqVMOYEVU0mFL3t8uOV7TGJZFxVfEDcFwWLC32NqfTdFywpTWTNazuLr1+bpEHyk7wg1dq5luFDElfHzpdcxUsnx1Zj+doQTbulbSF0lhGQanynN8qPdyesJJvjK5m735kzydPcFMLU/SDlF0m2+1SC89ooPzG/aymIEpBE8UBSfrilM1xYKnKWiLtycDVkcgrwwsCUVXETIMhsKSMzVFVEC3pXkoF3Bjm4kj4JVyQCHQHCkHFH0onN+gFa089ZHyHCYGW9JLiBgOXaEUxxbP8lur72SiscD+wgQ9oRQ9ToKT5XlmSyXOVOY5VZ7hnoEtLEv1MRLrYLpZoBF4lN06f3D8YRbcKsdKE2+hRFu45IiWgNJwWdxge5vJmbrmHyabNAIo+xpLSs66ElsKbk9pwobkK3nJzkWXFVGD31nqIKXgH2Y8PA3LI4KoAScqAXlP0eUYrIhK1PlQqEByupzlidkjgObl4jkWvTp5t8ymzqUMx7u4u+dy/vDot6gJzSeW38zqRDf3T+/mM6PP0GEnuaN3A1s7lvL0/Ak2RnvoCaXYkxtlwEkQMqxWcOWtjYBeekQL0fLC46bgyrSJI+E9XQ7HKj7PLHr8/WSTVyqQMAWXJU26HYOi69Mflngaih4Mhg3e2y5p+oo/GnPZWwowBKyJGtyQEjQVLJzXaAEcL82SskP0hTJsTa7kc2d3crQ0S9JMAuCpgI5wAi/wSDoR1if7mXDLhAwTLeBYYZqTxWnCpsN0s4htmNzds5G0HWU42sGJ8iy7Fk4Cr4/I/ThxSXjd/xLGebKvS5tUPYeHs00+2BvC05pvzLk8sehzoGxwZQoWPMWVSYtpV3NtWvJswUf4Ph8ciKDmPR7MeoRkawFtbzPRKEZrCvf8HuFrxR29a3hg+mUQinWpTobjt3CiNMO9Ey/iWCa7F0f51Pp38tjUIT575hk87XN9+yqSVoKp5jyn8hPsK08TshwG4h3UPJebOi+jwzxDJhTlv5a+wc7sMa7vWoHS+tuCNT8OXJJEQ0vTTAF3d1ksc3y+mfNZ9BRXpS0m64oncx5n6z5hKegLSwIt+OuJgIyh6bc0fzjWxNAaU2h8Wk7bfzlRx5GCiheQ8ywALClZqJbJNcsgJTE7wqZ4B5uSQzwyvYcdc8fY2jaMrVvRsf+4/594T9/lvL1/AwAvZDUPzOzD9X085bM+2ceGyABPTO/hss4VvJw/S9VvsC7Z15rXWxTzvmSJvgCtYXUqzOoUHKwEHCr51H2fdTGDhtIUPOg2NUUvoOAZTNY199UUhAxEo0rUFDhSoDT0OoJNcZOvzSoOVgKuz1hMVkrsyZ5AIGi3oxzIjjJey7E0nMAQku5QklXxbh6f2M8zuTP84pLtzLkVns+eYVv7CEK5dNgxxtwFru9YRsoKs684ykS9yuTMft7Rs4kOJ8495ytM5FuUlb7kiRbifMJJwIaYwYaYwYJncbwSsD5m8uCCjwoCtrdZDMcsnst7HCgFrIr4tNsRDlc1082AOVexMeFwc8bidC1goqFpBE2OFafY2rGKxxaPcmv3OjYlB/ja5AGeqOeJWCHu6N3ITC3P86UJru1eTX+onYwXZV9+jGOlaZQO8LWiL5ohbEUounUsw0SgUMqgy05Q9Go8MHmQu/s3XKww/XHjkicaWmQDBOcZT5qSK5ItTf1gj8W9Uy67y4LhKNzRbnF7u3WxW2N7RnOsYiCBwxWfE2d8moEmakn+YbzJVitD1JbM18sMhttYEu9kMJKmJ5xgulFgrDLHzoUTbEkOMWRnME2HOAEhDY/OHmJtqh9bGPzyyM0cKp1j7/xJ/suaO+kOp/jCuRf467GdREybuBGi5ioi9psjWWlF2fOIWiYSedGZE2+yK+Qt97qV1gSAr1t/Ag2+1q9+T+uzQJ/PG4vWoG0pCDQ0lGZZIsw7Oiz2FxosVhsXSdYaHCnYlDD445VhPtRj0W61vHKBpjca5vL+TgSalB3mQHGSfxx9ljt7N7I1OUAEg10LJ9iSWsraxAB1LVls1JmtV9hXmmIk1slkLceQk6LsFZBo7hrczK6FkziGRd6tUmiU6A+1cX3PijdNMkDFc9k1c4iq30SKVjuQIVr57UCr79uL/1erAn3tQ39cu5IKfCqeIhGyL5r7C+/W+lXLMNdUOIYgZbY+CDz4lf2fpyeSZH1skI5ImBOFaSTgWBGWWBnCjqSqAmYaZV4unKE/nGG8toipFNdnlnOgNMntfZvZ2NbP0dwc98/sJe/V2Jzs54n5k3xs2Q1ckRlCo79nu85ruzsOLEyQME2Gkz2czE+woJrYCPqcJL2v6Qr5Xh0hPxLTrWkFOV5bHP/dpqIAX4EpNDsWfJ7J+1T8VhNb0pRUA4WvBOJ8vZU+r91ps9W1IYCUJYlbkg5bkLYEaVMwHJa0h1pTujBnfeEvcd4qCOhyWprl69Z4p5t5cm6FX156M5syvfzJ8Ud5NnuSO3rX8/PDV5JrVDlcmsQGjhTGWOKkmWuWcKTBlZll7MyPckPHWvAEj47vJR9ofnboRr4w/iyNwKQv0kbL9//euNBAADBZXeSx7CHmG2XmGiX6Qkm6I2nKbo0TpWlidpT3DV7BTV2rEUK0onzfQfI/FNGtzofWMahlLVsvKXiKsg81DcWGT7nRJLBDvFQMqAaaptJYQvALgyE2hQM8JSkEBn22ZllIo6TTeqZsDVsDpmzpQdVX1JpNKkqyoAy8QDFaCyh4MN/wCZuCzpDJ6pBiTdxiKGJeXHXGa8mnVcyvAngpN07er3CiMkXKdii4FTYkB8g1ytw/cZA7+jawKT3IX556gv5wmkrgMdso8d7+rexcOEHMsKn7DZLxfg6Ux6mKOofLY5yrzVML6iy4FdYlhmhJ6I2JqAcejjQwhORMeY6HZw7xdPYky2IdLI938q7eLVyeGcIUim9M7ifhRJlvlPj82ed4MXuKDw9fzVC0HV8FmPLb+81+IKIvlK5eENxCM+BUHcbrPiVXMR9IZuo+7abGE5J222bEhA1xSX/YIGG0Wm0ans9IIsRdMSj7sGexykAs+sbvPG+aMpYB4cgb/s6xQoOMqZjUFjuyLnvKPmnT5xcGHCq+xhKalG28TtRCQn8oTtqMMBJt569OP4FtGHxi+a1U/BrfnDnEI5N7mWmUiRoRIsLh5co4t3ZeRtP1WRbNEBcWs9UFDlemuaVjPYFf52RtEV8HnCjPMhjNELHeWNQX5jVeWcRVHifLCzydPUKfk+DtHauw7RDv6buciBXimfkTPD13jLQT47b2lTy1eIpbu9Yz18zzB0cf4heXXsflbUvecHv4gYgWQKPp8lxFsC/v4iIIG5JOC1bEbW4MCdosi7T1qvMx3VR4Cg6WfMoKlkckp6qKXscn5ZhI5VHRFk/lfDotgXte7SqBph5oZpuKnKdZEW05UgiBQas8uOJrztY1UVOyLiqJmprfHAlxpOTzTMHnr8abrIsZbEu+3hm6kNCwDYmvFXPNMmHLZmW0k/ZwhHYi3CMu55/O7uSV8jQ3d65nwW+wLbOUlBPiyfnDfHToeqJWhP/72H1YQvJU9jC3tq/lho7VaKH55tR+qsH3zl4NRdv4zVe+hqUVH196I18bf4HnF05TQ/Ny/hwrEz08NXcMNwi4s3cDj88dpRC4bE6OEAsZONLmz048yocGr+GOvrXfRvabJloFPo8s+jyU9RmOGFzXHmJlzCAsNCFD4PsehyrwYhF2LdQp+z5RQ2AbBsMRgxlXUw8UWdfkyQWXp3ICR0A1UDjSoOhrYoYgZQuGwyaOAdlmQMwUzLuapg5YFpbUlOJsXaE15HxNly2xleaLs5qi69JUioGQyZ2dNo8ueLxSDri9w3rdXLRSIA2aQuNpxWfHdvGuvsvZ2jbCnvnTbO1chq8aNAOfkVgnh0vjtNsx7um7ji+OP8v21AqOV7IU/BJv717Pk/MnKHoNDlWmSTcLbEou4UvnXsRX6jtIsxUp87Xi82efo+TXuTw5wB8cfQAPn4+ObKc3lOBgfoqvTe0hboQYiqX4+tTLBFrxM4NXcbA0RiXf4Hh5ml9bfidfmnweV3u8s3/T687sb4poT2n+crTGHDafWhGl3RJUfM2LRZ+Xij4TDcVoNWBz0qDNMVgSkfSHQtzW4dBpw7GSx468wpatQr1fHbC4JuMQAE0/YHfe5ZG8JCwFd7RLQihWJRxips19cy5j9QALuCNjoFXAwwtwoAYdluSGtKAZaG5MW8w0JF9fUGxJmTy64HG2HnCyClMNTY8jkOcXujifwQqUohF4LI91sSbey2ythudX2TF9iIl6ge3dqzhUnGFRl7i9ax1fHn+WLclBuuwkj8wdpEbANalhfmvle/nsuSe4d+olbu5aw9pkDysTvd9To//+zC6emj3CJ5bdzO+ffIRA+fzTlb+E0op92dNMN/IsibTTZkfpi6RZEe7gVHWeh+cOsjzWTTPwiVgO3eEk/9vKW/mLkzsYjmXYkBq4uDUYn/rUpz71/RJ9oKR4uSr4g+UhIoZgV97n0+OtGq+rUiadjsGyqCBumYw4mg+0Q1mb7Cp4+BrGKx7TniBiCpTWLIlYjESMVvxZwZ4SvKvTQqiAetAiZdKTPDjvcrAccEW85WXvryi0YXKkqombLYuwI68YthUJQ2JaJje1WzyT9zCF4JNLQozVAw6UA27KvKrVF3qmjxSneCZ7ius6V7AuPowhDEbrc+xaOEXYtDCFiSkNbulazYvZM2xKDhCTEQ5Vsky5OTwdMBDvIGIJjpQnSRshCl4dS1r4WlF0a9zVt/ENZerrgPunXmFlfIAvTLzA2mQvK+JdLLhVhmMZ5rwyEcPi7T0biRkW+xfHsBH8xto7ubt7M/84/hxnalnC0mK6nmM4mqHsN9iVPcH2rpUYouWYvakT/MMLHquiLXV4KOvxlRmXXxx0+OSSEAGtUGPIMOgzPDTwwGLAppggbgj+29km+2sSrTUnygG3t9t0OpJdudax4+VigK0D1sUN3tVlsRBIytrgdDXgoQUfx5DckZHUFDybD7hvtsmVKZP3dLbuLnlHh83uqsFnZgOGwwbDDnRZmqyneS7ncUvGYl/R54W8d5HkCztYyo4SNkzWxvqYrM6z2FzEByKmTc6tsr8wzvUdq0kaCUKGxHGiCNNgrHKOhBnmPT3b2LMwxl+ffprLU8u4pXMtg5F2VsW7qbhVasr9jjIdq8zjqYC0FWa2UaTTjvPrK+9irl7mT44/QptMszTWScqJkjAdbu1ey4Sq8c2Zg9w3/TLb21fzyaW30eHEqGuP3z38Tc5WF5moF5irVS6+5/vW6EDDkzmPJWGD0Zrm8QWP317qMBA2eGLRZ+eijxKwNqS5pSvMpCs422gVCkQMweqYwdFqgKaVM2x4PtenDUzTYOeix6ma4v09DrYUOIak3ZL8zaTLaC3g90dMlkUN/mLcJ24aXJk0GG9omkHrGouRECQM6HJMEgbsLfqcrvr4WvCBTpNHFn0qAUy7mnMVl5vbJKZh0lQ+exZHOVqcYrpe5JqOFSxPdvLg9AEW3SpdoSS1oEWS8D3G60Xev2QrL+VHeXTuINs71rMpNcTRyiRFr07er7C9fTVzboUV8XY2pAc4V13kYGGC9w9ufV1AQ2uNrxUPzRziXG2BsVqW27vXk7TD7Jw/xvVtS8kHDV4unOX69jWcrkyTMJNIrbmpew0PTu1nT+4Mt/Ws46ae1SQweGj2EDXt0ekkmGrk0FqyPNyHY8nvX6M9rfECzcqoyTdmW1WXtiH5n2drPLrocWdG4AhB1LF4pRyQMRXv6TTYVQgo+AohwJItL/nGNoOGMPj7aQ+tNS+VAsKGIGIITAGTDcXfTbo0FNyYsZj0TUZrMBw1OFz2ONfUfKIXSq7PtxZ8Fps+uUByddrgA702/abHl+YCLClZdH1+pluyPtIKqyZCNjuLrTlZhsXmtiU0A5/Jep5HZg4yW11kc2aYkGFQ95usj3Zza/sqns2NUtYNjhXnwW2SsaJ0RGK02Q5T1QVsBFe1Lefvxp4gJWNsyYycVxB9MUb/WpKFEMzUCzw1d5yq7zJfL3Jr12pWRbs5Xp7hrFvklo5VdDpx/vDEAxjCRgV1YnacqcoCS8JpViV6OVtb5NDCPC/kJ7kys4x3915ByLBoeB6T9QUSYfPNabSn4HBZMdMMOFULcAzB1+ZcOh2TDXHJgQrc2WHxfMFnpqm4OqrYVwq4qSPEuYbi6ZzPmljreqi0JRmwNblA8ldnGyyNGtyWsThZU0w0Ah5dDHAI+FifTcgyOFEJeLHosy1lETYEs02Nr2BtFAra4NmSZmPCYMCGRhCwu2qwJa45WtNMNOEdXRbL4w4nKj4v5ANSpuCKtAVaY0uDpla8nDvHQrOIG/hk3Sp3dV2GiSYwDM7UstzWs5GZRo7Pjz/PiJPmQ8NvY3d+lOPFKdan+lmb6OFkNctsvUhnOELda7Xi3D+zj7lGmXt6t2Gej2MI0UqbpuwIJyuzPL94hrdlluIGHtNuif+47AaeWjjFnuxJ3tGzhdnGIs/mRrFNk5TtUPQbDMd7uL5zFbtzZ/j69G62tS3hwyNvw9EmpyqzzLtlAq24un0ZEdP+/ok2hGBf2We8odmesZhtaIqBps9p9UalLcnBcsD2NpO0LfnGvM/WNoeMJThYUZjn7+i6LWOy4GmipmCirqkEmna7ZVqmm5rHFnzWRA1ubbdYFrOYbmr2lALWRSWTTc26uMn2NpN/ng/QCNZEBSNWwKQnWfQ0uws+thRsjJv0OAaWlBytCbrNgDkPphsaKSVro/LiOb/WrHCqMkdXpI3Hs8cxkSSdKNtSK6goj2yzQMKO4AceKvDIqSZNHdAhQxyvL5C2YyyLDSDQjEQ7CBs2zUCxN3uS2Wae2WaZm7pWkbDDF8+3+xYmmaovsGP2CH7gsTLWSVG5LHfa6A530m47zHo19ubPcEvHSrL1Mq+UprGlRdqO87aO5TSCBoeKU7TZceqBx3xlkbPNRY6WZri5cz0DoSRT9Txrkn3fP9FCwLOFgIbSbEtZTDYCrk2bHKoERM3WkSViSixa5IVMSV3BUzkPEKyOCK5OGpyqw0hI8GhOs+BqPtprk/PhvqxP2fO5ImVR9xVXJA2OVOFUNWA4LBivawZDkowJp+qKPlsy3oSQabAiDA4BL5Qh6wkGQwJfwRWpVtP8kbLP3lLAnoLi2oxFwW2NeVnUQGkYrxd5JnuClB3jf2z8EIdLEzyXO03ENGgzQtzVd5ji7J0AACAASURBVAU75g5ysDjJTw1dSbcT45HZoxSVy1CknWyzxLlajrt6NrEi1Undb3Lf9D7CEuoqIGI6LI2k6Iu2khACQdqJkGtW+NbsQa5sG2ZltJumFMQtmx1zR+gOtdETTjFRX+SLE3u5o3c9t3au5itTe0kacdqsCA/PHWRdpIufGr6SpBni/tlDnK0tIpB8fOl15N0qea/GpvTgm/O6u21BpwWLnmJ73CfnKzodSd6FjCnYnoB9FcXhcsB1SYGhAk5UFUprtsUUQ1GTK5IGDy0qJmoeWxOC2YZH3ffZGoMlUYudix69YZN7swEvlzy6LcWAGbA8ZtAflkjtc6qqUEJwS5vEAOaaAVkPXNUq3t9fDqgFiqgBUUNwc5vBswXFnNsKsKyOmewuBhwvu+xZ8DiUrzBWyRLoAENKNqWHeFt6KfdOv8zpxiLP5o7T7sS5u3sTLy2cYbpe4uMjN3KummW8mqXg1TGUT1U1EEIwUc+jUGxuX0Heq9PjJJj3W2fpC3XkYdMkZocIlMKxHO7o28rmWD9JK8R4fZGvT+0h75bocOJc276aiXqRlxdG+cjAdZiG4FNH78VVmut7NuBIC0OYLIu2c7I8y7Xtq0g7EV7Mj7Lk/OJ6U0SHDcELBZ9zdY1phxgKmygtWBGTzLuKPUWPpY5mc0LwlXnNEwXNxoTJgOlzqNp6xtm6ohwork3ARCPgG4vQ4Zj86qCNAFbEDPYVfU5UAyYbrUWyqC3u6rDodyQP5KDLah2dLAGDpktZCcY8gw4LLAF9IUnMMjlUagVxPjPlcm0Cbmm3CJRCqQCBoKEFfTHBTw+sYTjWzcnSLAeLE2xOjbA80cvNnat5cv4Inz/3HBO1PI7pcHn7UgbDaR6Y2csvjVxPREtKbpWAgFOVaXbOnuJ4eY7fWnM33eEk47UchUaF2UYBeP1NhHtzY7gEDIXTvFg4jiNhoppna2aEhvL56zNPsyE+wn9d93bSZoSTzTwhadEMfHojaaSAF3OjzFby7F4cxRYGg+EM13aOMFnLMV5dZEvbkjdPdJfhM9GEnBtwoKLJNnx+rltwVcoiakoeyUOXETBgC8bqARVfYaK5qcOh3RZ8dqLOQ1mXu9oEtmUy60tuaDPoCxk8mIPtKcn6mKTeynkSM+DBHGQsiYnmdMWj05FYhuCyRKvvadw1OFqXrIxI0pZBM9Bsi0siBsy48Hunm2il+U8jUXpCBkIKIqZB0oKwhIGwibShKxzD1wG1oMlT2aMINCvj3SyJtDMUbme0luWb0/toKh+BZiic4b7pA1zVvYpfGL6JslY8MP0KX5x4jg8u2UbKjrBj9jCOYdIbb2eylqfqNTCExFcBu+aO883J/cSkzZa2JXQ5CQ5W5jhVzRKnVau2PT3MWGWGB8b3cmXHCJ9a9052LBxkb/4029tX0uMk2JM7w5+eehRXu/hScnX7crrDKb48vpdbutYSs0Jord8c0YNRm7AlmW0E5DzFog9NYTIYaiUflkUEX1sUfHE+YEVEsipikLAke8swXfN4pSqwpOBITZDzBb/QZ7Mk3LIGE3Wfk3XosiXXpEyGQjDvQpsJhyse38r6jDbg9oTirk6bfSVFzguoakFdaaYbmqgBA1GLghdgaMU351xqGtbHBHlPc7Sq6LEgIhTHqxoz8C+mLLekh2kqjxPlWYrNMrtzo0ghWZ/qRwrB8kg712eWcqQ0xb7SFIWgSdKKcKoyj2Ua3N2zkSPFaRzDZKqSZ+fsKY4Vp1qCd5IMR9sJmzYKjYGBViYVv44lTcZqOVYle5lvlBirLvBi/hy396zl/9jwbgpBmftnDrPYrFJsuEgtuKV7HR12isvTS5hvFJltlBitZHlgcj83tm9gX+4cx8vT3N2/CeDNh0CjpuRUxedYXfDOjKDdMZh2NY8u+AyEJAlDUwok4w1FWCo+3mtSVJKdOY99FcHmpMFwWHKwqlkXlWxImPQ4kkPlgFlXUQ803Y7AFpqkbPVEtzut2PcXZlw6HYO7u0OEpGC2qdhXUrTbgsGQwWhdUVfwkW6DfNPjv0+19uj3dUpcYXL/fJNzdc1d7Qa78j5ro5IbOsMXT7dtVoRvTR/iXH2RNiNExokx55bJuw1u6l7NsJMk7zc4XV0galgMRtrY1DbIXL3M3vwoj84c4urMcra3r+KPTnyLQAf0hVPErQh5r8ryeBcjsU4CFIaUHC9P46qAuBWiGrjUfZeCV6Ho1Sn5Hu/r38JYJU9ahtnWNcK9k/u4f/Zlrm0b5r2DW5lv5Bmt5qgql58e3MbRwjSzbom0E+GJ2aPc2LWKjanBi9y9KY0u+5o1MZOo2fJkr0oanKspsp4mJOH9bbA53mpF7Q6ZjLkmU42AiXrrHjCpNadqiu1xhfI8jpeazNY9agEsCRksCRvsWPTJK0lP1OFXBx3W2QE7sh6bIpouI+ALUw32FgN8pbgiIZhstoIPl8cgKjVfn2nwQsUgIWF7m8XyiEHJ1xhSknUDplxASLrPX0JwoRm+J5Lm2o7ldNtxtnauwJAmz2RPcl3nCja3DbGxYxnzjRJVv0FUxogaDgkZ5gNLtjESSjHfKOFqxe78GFHTQQnBvFcjbUWYb5S44vxeaZ7PJh0sTnJj1xr6wmkOFib43Nnn6HKS3Nq1lus7l/MXJ3ewc+EIV3auZG2kl9XRTlJWBNt0eGL2KK8Up/js2E6uyozQH+2kpDw+OHgl98+8RMMPeGff5tfdK/6mNNoQLY/1xrjP380EPLXoEzMlm+KSiYZmrKkpBoIbMw4KeHLR41g14Lo2i6QlqChBmwlRCatCiiN1zT/OKq5OW9zebnKu5nG8BnkP3pY26bAFjg7YVdAMRk02hhWTruSFomIoJEhZgnVRwVP5gC1xwVVJyf87EXCo4vP7KyJcFjf40lzAoANhoXmppFgaMVjwYEPKoc8R6PMXumutWRJr50vju7GkwWh1gS3pQbqMOJ2hNMfL4+RqRWxp0h/NsKFtgDPFGV5aHONcPc/PLdnOi7lTTNRzfHLZLfi+YEf2IOPVBW7tWsu69KuZpCDweWhiH6vSfShgppZndayDPYVxfmHpdtqcBMfy46yL93KiNMHuwjnu7NvA5vRSXiqcpeDVaQYe3aEUdd/jKxN7aDdsHMNiS9syrkwOM99YpC+W+UGJboUoY7ZJ2pJ8K+uzMmowVlcs+prdxQAQ3NlhMtPU7C349IYkQgjWhBWnm5JhWzPgwK6qydEqtFkwEhZUleZsU7A6Klh0FTk3YGnU4G9nAt7fbbE1IfmnudZd2Bvjkn+a9dmQMKhpyVVxyDYVn8tCUmrWJUyqrofwXGxTkgskD8x7fGIoREMpztQU7++xceSrqXkhBAkrTK5Z4WsT+1id6EYDhyvTlPwqZ2s5+iPdvH94Kz4+hWaFtekhnpw9SToU4Vw9y9vSa3hHzyaeXjjCQ/OvEDVDvKvvct4xcPnFdwAU/TqPzx/nUHGCY6UZru5YwU8PXEmhWWXn4mnmGkUGIhmiVojxeoG0HWNduh/QlPwGIWEwYMW4Z8lWYnaIZ7In+I21d3FVx3LWpXrpiaaJmlHC5qtZ6DdF9AW0muAkYQlSCH5zJESp7nKsBpYQPJB1GaspPKWp+JCxBbtL8O4OgzZD83JdUvIC2gzNDRmLIzXFs/mA4RDckDHZEoNXKpp751vZrxvbbYoNFxDUteR0XXN3RvBw1qcQwPaMzf1Zn5dLAXd3h/hQj839i4oni7AupEjZkjNN+GifxclqQMYSbEtZBOdvKYTz2SwhiFoh9uZGubZ9BVIKxms5Hpg+QCMIGIl0UVJV0kaIQ6VpvjXzCoWgyrHSNPXAJWXF+OeJF9m5cJzbutfzaytvZ0tmybfJr+DW2ZU9zqrYAOPVRaYaeRYaVQZiGY6WZthXGOd0dZ6X8udoc+LYwuLTZx6nfD6vHRchLmsfIelE+PNjj3BX3ybWpwYQtBr7pRCvI/kHJlrQCkRcljB5pRzwxKLPuqjgtq4w17WZvFJWVM7fptsTkhyrtnqSXyp65LyAI1VIWJKP9hrsKsLJmiJsCJaGDZbHTBzTQPtN7s1qPtiuEVKwu6i4sU1SQzLXhMr524eKSvDNOZeGEvz20hDNpsvXFxSrIoKsq5lwBRIYshVKSJ7KK35pKIwtXyUZWtrmKZ+z5SxxM8SBwjhv791E2LTocBKUgzpHSueYaZQ4VZrhUGmaE+VZzlSyrE/2EwCfObuTkVgbv7PuXdzes56oaaO1uqjJF0x32auzNzfGJ1fcRl8owefOPsOx6iwxM8xItI1eK8rSeDddTpzj5RnaQ3E2J5dTcCs8PneUl4pnuaF7NfdPHaAQNPjI0FUI8d3vMvuB67rV+YyMFPBA1uNzUy6/2G8RlpqUhGeKmg0Jk9O1gEMVxaow9FuaHSXJYjNgICQ4UwuwJNjSIGZCpyNZFpIMOorpZutotbOoWR3W3JYxONE0SOGyPBnhz8+5jFZ9lkYkh8sBlyVMfmXQZqHh8+WsImYI3tVpsmehzqdnBZsTMFsL+OSgwbJk5A3roDWaqt8kZoY4VZrnv596jKl6gZ/qvwKFxhQm7VaSL08/z9pEL0dLMySMEBW/QSYU5Z7+rRePY54KMIR4w/abQCn+5NjDbGwfJKkMfvfEQ/z2mru5tnMlAHW/iRCSolfjW+de4pXKHBknTs1v0BVOYCL5qcFtaAFtdgRLfu9CoR9ZAf/DWZfnci7nXMG7M5IzjdZeujQssEyTuaaiGmgGbM1oPaDPVDS1YMy3GAkJRqs+e0qtMGXNV7TZBv1hg2dzLkNhg+URScGHLTFF2DR5sXi+zNfXvLfLYryhmfcUQ2GDVeFW5f6RimJ/WdHwPG5sd/hgt0naMV9XzP/dcKIwzVSzyLHSDKOVLPONChHTIGFGcJVPmxNlW3KA9W2r6Iu+Wpn62uiX8spI7YKdQXsllHQwDIez1QX+7vROHp8/xtJYB/9pxc1U/SaVps/B8jlc36UcNOkNp2izo9T9gHsGN9MTSvxAHZk/0k6NF7JVPGlwui7INlsBlaQpWBaRrIwZpIXPnCe5LC7ZW/AYslvlwGd8k21JA0NrDlcU065mwAxY9DSutHgm59JuSQZDggUfXi56WAJihiQpPMY9g9VRg5wb4OrWbb7P5j2Uhrszknt6HXrD1veewPdAvt7g0bkDXJNZS388/uoPalOty13Dr719KAAM/NknEaF2jNQGmrO7EE4HVmoVQggafpMds0f5s5OPMBLpYnWyj4wTYUW8m5FoOz2R9MWn+R4gNabx5kmGHxXRWuNpyDUDus4nut1Aca4Jp0tNZjxJTglc12eq7tMTsWmLGsz6khuTBp2VAplChc7V/TQU7Cn6nKr6bEsIhmzNlxYE7+6y6bAFo7WAx3MBd3dYtJngoChgUFRwtAEvFAMaSrAppNkW0SyNtcZz4bL3NzetC71N8ryjA3MNj6fnjnJN+zJ6I1G0X0SqBo25FzDCXVhtl4PhQNDEm90BVgKz4zqEAFU+CUEdmXp9/didz/0l/9ead7I5PXBRnmiNEvqidZDih/tPYH7kvVcajUJgXChxlRKCADfQlJWkaUnmK03GJspMnBzjRMhBOCBI4/e0kRSaQEh8LRgKSwQB5xoQMSQxE05VAjrMVvy7JiTNkE25UEXM5Rl2G6yMCpbHDIZW9WGHbQKlz3uib3YiPojWItFao70iKvcifvEcZaVYXDxJRzABQqCVQvslDAKUjGAYFlpYqPo0RmyYaKIPz+wFFARVQh1bITyAYSeo+AEfeu6z/Mq6u7mxcyWW9cbNCehWurflGknEm2y9/aGJ1vUmKldGhGyU5yNjYYRtoO1Wm+e34egY7t6T1J7eT3jNUmaGBQdmNTfVJbFffw+LpRplM4RHq5S4EujznSGCkq+ImZK0YyAlhFyP0M59xJ54Ge/sHM5gByiN9gOCkEX8V9+Nvaz3TU7o1Q1ce1WC+R34Cy+gsjsQQlP2YsTSy8BM0yidRBBgRAaQZgTpF3HNDFb9LM1GnnB6FU0/QNdnwW5Dmg528yxNz0V5DRJhi1KtQX56kbZVNxF2JDK2HOLLkWacIGiVWtnt25B24l8Ms3X7jRDyfOvMd1/JPxjR500LUuKemqL0Z1/HXNqNKtZQ2SIiYoOpMNo7MPsy6EARzBcIFor4Z+dQDR9rME3bH38MGYpQ/pk/xvnt92EtXfK9HQ2lYHYeqh6VL+9sWY/LloLbwLliLWZ/BwD1J1+m+DeP0P4HP4c50vP9TgwQ4NdxZx/Dm/gK9fxRksledP8HCawODCNKMPstlLCwpMYMpdChYYyO61HZJ5DhThqVOaqnP0d8xc9j99xNvXgIpzmOjAxC5RgKSU1FCLkT1ErjHJA5htUYHeUIZtcV6NoklewhXK9OJm7ghzdgpdfRVCYiPIjddhlGbOjbOfmRHa9eQzCAWizRePEYjeeO0HxlFHtlH/EP3YRIxgjmCzQPnqH21Wfw5/IYnSlkLNwiQisau49jJCIYy/vw8yW6v/Y7Fy2Afs3rLoSutNJIKf4/9t47Xq66zv9/fk4/M3Nn5vaW29N7ISQEklASIPQVBOyrX7GjKHbX1V3X1dVd/a5+XVBUVASXDlKlBEgCKSQkuem93N5n7rTTz++PuQlFmi5K4m9fj0f+yJ0z8zmf8zrvz+f9eVcCx2P4yz/H3d8Fro+xcCpqcxX+SBpn40H006aS+MgKUBVy963BeeEApf/8gTfRaGxssNHtZHf9B3a2m2TTuXhqA36uCxGfiFk2FSSDfPfj2F1/QFYN4jP+ETdU8Tp+h2HGQQhyAzsx296P0/MH5GgrWtM78XsfJ3/0Psy6ZTj2KJG2D+B2PYrrpFm5fyVVzghzpl2GYw0RWP0o1Wehxlrxux/CHnwWWbhoZjWjQ3tIlJRSEElCo5GSqlkIsxkSM16X8DdvMDn2A0Lg7usi/9A60v/1ewqPbkSoMmpLNSXXrECb3kKYK1BY2Y53pA9j4VTMZbPQWuoxr1xM/CMrUCriONsOgizj7esGPyB29TlgOwhNRYzxK47lN4dFksNMntEf3o29up2gZxgRNZHiOn5fmqBvlNDzcLcfJP/QBpTqJOZ588nf/xxyMopcWw5CvA7ZAj97hOz27+Lke9BrzkJJzkMSAUKL4/U9iZrfhWONokYq8a1BhBxDEgFKvA0v34fQSnFSexB6KXrjFailM7F7HqPQ+SDCHEekbhmF3lXgj0LuAHJ8PLrRSsR6nL7yCtqUVjJ9T+BnO1BLxqObpSjRakSkES9UMcpnYU65Hqn6fNAqcfueIOh9hOzQDkSkGcWohFfJpPzTiBaCIJ0lfcOD5O9cjb1xDyKA5BeuQB1fh2Rq5B98nuwdT1NY1Y5kCPQZ44l+aDnSzEa0MpPCI5sh74Cu4PWOUHLVmXgdfUjJONryOYh0Dinx8u5vYRAgJAmvo5uBD/4Q73AvYcHBWDSVyOIZRK84FVFTibfzCOaiqcSvvQB/IEf2jlUE/UNIyRIK63YROXMWyNJrEu0HUNjxHeRoM0KSCe00YWYrcnIOatVStMqFFDofJnALIBmoJc1Emq/AyRzBOnIP0fozQAjs7pWoZbOLL6mSgMABP4/kpQjkJGbZZOz0IdzUNrSqpUh9jzIYa2RQ5Kg5vBJHlklO/CBevgv7yK0gNOTKczBrl+D3PQapjbhSGXrNEoxIBUrNcnw3R273D5DcftSyU0D646Pkmw/gH0wx8tVf4Gw7Svl3302QsSg8sQV93gRyD6wne/PjKNMaURsrUeoriH/0fELLw9q4H6k3g9sziHnGZAqrtuJsOYJQFYJ0FhyP2KWnYc6Z8EckF98vgZe1GLr2P/EODiDXlhG7dBHxj19M6AekvnUH7oZdlH3nQ6gzW7HX7MbrGsA8ezbWuj04Ww8hlcWInDsPpNcm2hnejJ5vByT87GHk8tOIjjsfSQSEWiWicIgABTtzBC93kGjjJRBtI8wdxst3EPo2zsBzGJM/gyyruB234zs51PK5aFVLCXoexBvdRqhXo9VfjIxHqv1bRBvOoSQ+ndLeDUQqZmDWnANOL0akDD/fhSgcRYtWQ8lkQrMFu+tRZEXDGViHSExHLp2DXr0YAptC9+OI0EEtPwVC/2VdUt9YRx87Jo3++PcoExup+s3nyd62GnvdXuTqJKnv34kIQ2qe+jdiVy0BScZauwunvRPjjBnojZWM/vwh3N19qBNbKHnPMtyOfpz1uxG1FUittUiTGoqZja+mLgQhI1+8iTDtok2sR9JUpOoEUomBXBlHrowjJUvI3b0GuSyO0lKF1lKH1zVIaDt4PUNICMKsXST5pZmNYcgxjSDofhgkFT9wce1B9Gg5GLWEsknYeRtk2tHiDcTbrkQxqikMbMQf3Q9KjJJJn6TQ/zx+KCNrSWQ9SSAMNPswvl6Hn9qA1nAJerQOu+Ne7N6nCFEwG68g1b2G3J5fUJI8BW3C51Brz0WULSE7uBNNkTCarsQZ2oB94GZkuwOt9iyc1C6c1C5kxSRI78Id2kx0wkcQeg1eagfY/fCKc/frEz2meOXvfw7f90l+7nLCTJ7cw5sQFQmiy+dhXrgAeUoTwsvjHezF2XoA8+xZWM/vxVr9As7eQ0SvXIo2uwlr3W6szYeJLJ6OqI5jP/ECwZF+lHGVxczGV5G20RsfxD/cC6aKXFeGVJVAm15L7u41pH/yIPFrzif2oXOxt+5n5Bu/xu8fxbjidEQYIkUNlHEV2Hu7CK1C8ffHFEkCf2w8QTC6C5HfR5iYi2x3EalfQZBqxx/ZTH5wF5an4o4exLJdMOuI1J1NYA1R2PlvaPGJWP3PoZS0Eq1dQnDwR1iD2zBn/iuuPo7cpusg9PGdPEGkjUjFbLyeP+DlOoiUT0M4w+RGDzIcGPioIOlIIiT0HcKy0/GdEbTyuQRenpFdP8VVy9FEAaN2KX73fXiHbhqbl4petQjP6gNvLBUlfPGlfu2le0z5CjJ50v9+J5FPXYpWkSBz65Ook8ahttSQv3s10U+/g8j58xj4u+/iDaapuuFaQj8Eyybzy8cJUzYlHzwXbVoL9vqdjN74MPGPnY+5bDLpHz6MpEqEJRG0mlKEeSzsIyjudxv3MHrzowjTQKkrJ/mZv0OKKeQf2kqYs9DaKgglGf2M6WhzW0h/7x4o2Ii8DSEkrnsHQkDhv59BHl+J8AWB6yNFJYSsgVcgHHkOd+BZQiWOVnU6mf2/xpjyRYRZR67zMTQzSRjk8UQC3UjipnchxVrRjSSBHMHtvhchJKKTroXRrYSBjS9KkNUYqlGKPbQFe7gdRY0iJ2Yhl50KoY078Azu4AaM+ouIt72XeOY5ClYaTYsjjv4Uvelq5Mql+LlO3MII+KNIWoLs7p9Q0nQJoVaJO/Acrg9G9WKEXobbvxbFPoxafxkoJWOarHh9ootncEH2lscQ8RjxS04jd/9zWM9sJfGxC3C3H0Gb1YK35SDWM9uIX3MmUjKBs+UwkfOm4azbi9c/itpUjdc1QJjKYW8+gDajCUlVyd63Hu9wH5Hz5iH7Hu7BPvRZbYS+f1y6R394N2HBIUhlKfvGe1AnNCBNGkfu1pUEI3ni15yH0lSDvfkA7raj6DOaKTzxAt6hPuLXXkaQt/AP9eHu6kA/bSLKuDi5O5+DvEN+/wsg1qOapYSRCai5dgp965BVA6P2HGTFxBnahJ/Zi16zDL3iNMLcXvK9axB+DqXuYlQ9htfzEKESx3dzKKVzkSsWIbw0hZ6VBLnD6NFy/Hwvsiyh1l5E2H0HnheiJcbj+QHe6F6MxssQpQuQ+h4id/h3SFXLkavOAqEgx5oJhtajS1kcawQ9UoUT6ITOMErZHHw3j+eMgDWIpirg9KI0XD0mqC8u2K9JtBACbzBF7rZnKPnwWaR/fC+ZXz5O/L3nUHhoA+rMFmLvWEz6x/dC3iHxmQsw5k/D3nqQzE1/ILRtktdfTJD3cbYfxl67CzSFkvcuI79yK97ebvy+ESIfOJeSK89Eba1F6GqxHIMkcNoPYm87jKRrKM3VxK46CwDr0U2Ejoc6uR7r2b2YZ01B1gwKD24gsF2MuRMIshb2ut0ITUFtrcE+0k+YzqO2NaDNaEGb0ooazyGXT0AqnY+f66Aw1E6glINiImulFHpXoyYmI8xGfKsPtXQWgWfjDK5DMqoQXj923zqMpqtwRvcTZHai1ywGoxYJFwYeZaRrNWblfMxp/0DgjJDd+QNCrRo52oQarcJItIJWgTz0BCI2Hs/3cNMHCH0XNVqH0MrxUzuQVRPXcZEKB1ETU5AlH9cu4Kd3UTLh7/H6VhJ4KSQhE9iDKLUXjJlw5TcmGqDwwFpC10OfO4nMLx7HmNlKWHDQz5hGdMUCUt++DWPhZPSZLeQf3YI+qwkpFsNetwupNIEUjRCk8whdRY4YiKiOvXEvQpWJXX0a1q1riF61FLmmFPIOIqITBsVAg/xjG7FWb0NKRpGiJuZZswhtl8zvnib+zsWYZ88m6BzEWrcPd18X6rRGQsfFH86iNlTg9wzibD2MecEpyNVxsv/1CFpzDcayOUgxEyk5DskoWtFCuw/JHUIzoxRGduOn2lGjdRhNV6BWLgC7n3zH7wnzh4hN/jRapIzRbf9KqCZQ45PRas5EMauxjt6HhI/VtxqCAlrNMnBHUNUIvjWMNbyTIHQxyqaBbyOSp6BULET4FtaeH+CEEUpmfBFZ0cgdfQjcESRJwXPzuFY/ZsUsvMw+ArMNVTUI/TxB1x3o5XOxMx2k9t+CXDoPvebMMWl9ExINkLv7WYQqk71tJXJlKVJ1En9wFGPeRPIPrUPIMvGPX4I6vg7vaD/22j0UntlK7F1nE7loAYVHNuL3jmDMm4DXNUhQsAkO9GCeNQt3dw/h6h2oS2cQDA6D5CFXlCEkAa5H4ZHnEYqC0BSEIiNVlDD6s4eJLp2EnwkkTAAAIABJREFUNn8aSDJKSym5e9fhHuhFqUyittYiqRJSmYGUiCOpCsFQGmfzXvzBLNFPXlKcWDYDJZFi20ghkPwsjKwH38FzRolUzEaKNiEnZxeL4hjVWEfuwHdHUZNTcLLdlFRMxbXSkNqIVnUGUukccDOktn2X0Hcwx38MfdyFKOEo2R3fxfNcos1XgZsi2/koSvUylPgEvCBAOP24hSEkr5/QaEWtXIQUerhHf4fvFSAURCpmIoRMmFiInz2MyGxCiTXgylUURnbi5bswY5WoZQtRy2a9bH+G19G6AyuD19kHQUAwlEOf2YJk6sTffw7Z254ke+tTRC9bVHxxdI3oRQux2w8RZmz0eQ34Hf2o4+swTpuCtW43fiqHv/MoxjUrUCaNIxhKU1AFmd88gbOrGzHpRdutP5DG6xom/ulLAVCqSsnc+DDOtoPIY7ZsAGv1bqSoiTa9icKqdvzeEaKXL0ZOxpEMDXPZbJwdHdjP7iPMFZArNLz9XfiDo2PlJsceRLSVvBNQcHyU5HSU1o8QDK3DG1oPgYfT/wxK6QzMilPI7L6RIH8UYuOJNV+KVnceTvcD5A/ehp3aiVF7JkqshcDqBi9D6KQJE/MIkfHTW9HL51LScB703ouX70HkD2L3PYM27mLM5qtR+u/DOvoAAg+tdhlhejNBoQsnfYAwNhW1bCaEHo4LjuOiJaaAXyD0LIJQQk9OeFVqX1Oivf3dFFbvQG2pRSo1CYMQY04bUmUpXscQ0QtPJXfPaoIQlNoy8netRiQi6HPHk7n1Kfy+FCXXXIDXM4y76yj+kX7Ms2ehJCNoUxrxu4coPLEZta2W6NVLEVUVyGNlpdy9XVgbtlHygfPJ3voUSm3p2BYyHnd7F4Ghkt96kKD9CLFrLsBtP0Q45jkLhkdRW2oxz5tPYeUWQsdFm9mG2zWI99wugoyFpKj4h/vwe4dQmqqBkELH/ejWbny9Cb1mKXK0kez+XyPsLnRdR42OQ0gynp1FhA6y249UfT5ScjZO+gD5Q7cgK1HMhksxyqfiDG/F6noUz8ljTvokeHmsvjXIUoA+4VMItYLc3v9CSa1Fa3gncnIOItIEQia750coioaUnI0UacTLHSH0CijROvyRzYRehmjTZfiuhdX9MH7+CPG2dyHlDxGoFShBBrRykLQ3lmhhmkimijqzkTBwMU+fjL3tCENf+gXa2dOIXL6YxHUX4249RP97v4vbN0LiuncQKhL4IFcmsNdvJcwWCG0XY0EbQtcIRy3yj20i//Q2RMQgsuIU9JltKLxojHf2HkVtHIfwQ4LeIUJJJvmlqyh533L0U5rIfvd28j+8B+OC+dhrtqFUl5L42IWEloO99QDyuFKcDXugqpT4+5chVZiQd9CXzkGKRcg9/DxSczXahDEXpjuKbsQRaila6hn8/pWEcglG+Szy/WuxUgcRFPOxSxpXIKsxCrYFqfWE/Y/jpXdgls/GrJ6PCC1cK4UibMJCF6FWRdj7KIbqEWl9HwEK7qFfI8sSsiSRtzx8v1gGizDEdzLoFfOxc704o4dB6BjjLiNatwS7dxX5zj+glc2GkukIScV3C2ixegJrCLXmbLTGK0GEhIH1Mj5fk2ilqYbQcpHLogg1hr31CEKVCSwHf28HXs8A8rh69DmtSMkoQgjSP3kAtbKU0n98D8FQjtxdG3B3daC2VZP47N+htNTiHuzGO9AL2QLavAmok4ppI+KlVrGsjT63mUD2CFUVQYiPwIsphHkLdco44h89l9Q3biH38PNE3rcEJB+pNIbWWsfIt+7C7e7CXHEqyvhxSFGd0PNx93YQpDNEVszD7x5GVJQWjyFaKdrET2NnOgnMZuThVYxu+CiSXoFRcRrZ3nUEmf0o0UZCyUSqWY457kK83kdI7/hPUBJEp1yPHGtGEGINbyPft4lozQKksEC28zF8exC95iwiLVdjDW0ms/ETROuWUTLz6/hddxD0PY599Hb8/FEibR9DjdRg9z6FpEZQKxfio+AMbcKoPgPfdQiP/hJ/eC1KtA6t7ZPk+p4FNYkka1B2BkIrfxmfr6uMyc21pL9/L9EVc4tSEDNJfvpiguE87q4OnPaDuHs7SX71XYTDo1irtiHpGsFgGqk0SjCUwd68n+Tnr0RKxFFba8mt3kbhnmfRpjagTW1CGVeJMm6sSq0QBJ6P9dRW5LIY+fvX4Ww9hLl0Bu6eDuzHNuH3ZUh+/kK8Q8MEw1mkRBTvQA/YDtHLzsA72od7qA+1qRp9Yj3Opr0E/Vn8VAbvQA+hqmLMbUCb0oxkGoixehOhFEMMP0m+kEWvPhutchHZw/ehGqWUNJxLoe85/CAkFDJa1VKcgXUU+tcjos1EyqfjeT5KSRv5jkdQ3W70yV9ADnJYR+9ASs7CxyTsfxRFBMjROgKtHt8ZQY3WolQtI7vvJuyR3ZRM+QyBM0KY3oZilBFKBsLuwepfh153AZqZxM33k+t6mMBJEz/lh9iZ/TC6GylSj1I6p2gRe4WV8XUtY0pNGcrUBtI/vhdvfx9edx8lH1yOXJYkzFtk//tpzHPnIycioCrE3nEG+YfW4+w8gtA1gpyFUl2Kd6AHfVozwcgozub9xYgUvbh/RJbNRYpHjhMNkL39KUredQ76rFYKq9qJXrYQZ9V2Cs/swlw+CwoWhSd3UvoP78ZYMp3Rmx4FLyDM5BFt9Rgr5uOu3oa1amfxKGkXz/JKay1aSw3e/l6kqIHaVls0iY65QSUlQtjxO7SWDyJXLkaN1GENPEcgx4g2XoLXdR+hpBOM7sEdWIPReDlytAVFL0GWZXJ7fgqBhVw6H03kcUaPEBrj0EqagABz3EV4A8/guh6RydcSeC5W3xrc1E5CVEoqp5PtXomT2oFWNgM12kxoD2AP70AvnYFWvwI3VMls/Tq+lyN5yr9DoQf38K3EZv9TUTFTIi87Vr0x0WM9DuRkBEmXUFrrkWSfoa/cgiRCnG2HkRMxBCFe3wjanPG4Hf0okxpgNI+9qwM5EcFYPB1/MIW1dif22t1IiSgiDFAnN+Ad6iX2rrOLdT2OVfHrHyF312riHzwfyZTJPbweqTyKs72LxEeX47xwgPRPHiX+oeVoE+tx1mwjetFc3P295FduRV00FaW1EjGYxnpuD0HORpgazu5OJFnCuHgBUk05/p5OpLkTkBX5xbffGIfdtwY5UomcmI4UqUPYvRR6ViLHpyLFWnBSByl03EO0YipKxSLUqjMI7AyFzvtRzDK0igXIbg+SdRTfHkWf+GnUaDVBegfe8FrCyHiU+DSC/CGUaANhvhOnfy165emoiVbc7t+jeCPo9e/A9zOEsUnosXqQEwi7C2vX95CNcrTqZYjRdpz+NcQmfgSpZCIoUV6rgPbruymFIMhaKBWlmOfMQV8xH0lWyN72FGprDfgBhWfacQ904R/oRkQjhH5A5NRmCATqlCakMo3YioXkn9mOXGIS2i5BKk9oO0QvX4zaWgtjPmcA71A3TvshohefRjCaJ/ubpwltj8RHlhOkcng9IxinTcU73Ie94zByIkqYzaMvmo6xcCrW3avwNuwmnNiMNrWR/G0rUac0EGTzeId6SX7pSvzBNIqpIrXWFYkGCAOErCKrJoUDv0StWoJw+pFVHSXWTDj4FLISRVF09IpT8EIN2e1DMmrwfadodIlNRqu/ECGpUH0xQksgsjsIE6egxloIhtcTenm0uvMQkoawuvGtfkKhIvkpnK4HkLQKZL2UXMe9+PmjSIUOCkPbEZktqMEgslmDopoE+U4kxcSYfD0i2vyGoURv6I+WDA0pHiF0XCRZQZ1YT9A5iBSPQUQjDCB6wXy8riGshzcQdAzg7unCH0oTXTGToHOU3OObkMsTRC89jdzvnibIWWjTm4lddSaERWk+Furj7e/GH8lhLplB4cnN5B/aQOnXr0JEZLK3rkPoCskvXkwwkKawchuhH2DMmYQ6uRG5Klk0tjy5FWHqBF2D4PlF33fPMH5vCrW5Bq22FP30GUiK/KJ/eszAIOkVFHpXUeh8ADUYRdRcjJyYjtf/DMgKWsuHkRPTCGNtqImpoCYQkopWeToyAYysRVSciZBkJLMO4aVxhrYgl85GqVyMJATO8CbkaBMiOQsp1oyc2YLrFfDsUUS0DV8bd/yoppi1yLEGpNj44jHOyiLFJqI3XoFSfzFCNsf25Nd3RL65mLGxtyUkxOkbQU9EGf7Wbdib9lL+7x8iSNnF8gmmirVqB6Gpg2Xj7e3A3d+L35/CPGc2oeNhb9xL5MJTKf36e191jNxtT+ENpih57zLSP7wba8MezHPm4O48gjatCbWtDnd/F3JtGX7eJugYQGmuJnLhAtwjfYS5UbSpjQx/5Va87iHKvv0+gqER0j/6A6FjUfHjj6NOaX31eQYeSAq5PT8hKPQha0l8ewTdMHBdl2jtEqg46zUlJwyLsdtSfg+i4kxQSorT8vPFvTP0CAp9+IVuRGYbRKegVCwoBkgLBaweyB2AkkkEfkjopiC1CW/kBawwRrRqFlLlOUjqWPLAcaXrjWOZ/6wo0JAQsgWydz2LvW4r8U9chjZzPGEQkLnh96jvWIxZW461eT+Fu1Yh4hEKj24EWSb298spee+yV3nIxdTG1PfvAMfHOH0iUolJ6vv3QVTHXDCZ6OWL8YcGGfn23YQFm9IvX4nSUMXoLU/gH+lHrikl9pV34q/bT/rGB5BLS5BKo8iVSezn9+JsO0DVXV9FbRr3uktdkO8ms/27lEz/AoE1gN//JL6TQZN9gsDDkcuR9CqEXln0GKlloJYhqyWgVUBuH0GhB0omIexe3FwXuCPgjeKM7EAyxxGpPQPKlxwnLMgdxMv3IvofwUnvQyTmECKQok2oFaehlDT/EQtvhuBj+DMLswuIRSj5++Wo9eWkf/wAyrgKpJpSImfMRK0tx8sVcLYcROgq/mAa89JFmKdPQ58/6dV/NAwAmTCdR5s3HqW1HuvJFwiyBYzZbfj9KYLCKEE6hzaxHrkqQeGpdqLvPZPoJXMZ/fFjiIiB/bvV5J/einnmFCIXzyP1nQcIUnn8oTRC07DXH0DSI8g1ZWPbBS8+sDAApw8pUofZfDW5bd+iZML7USZ/AaBIXv4Ihj2A7zkEmV1Y1hCoJfi5TkI/g66qSJJCYA0hCRfbzmMwhJAUCCVCbRKKOEShY5ig4yEiiWZE00cIRjZT6Hses2wqSvVFaCXNCOMlYcrHQ4OOZ3T/SZz9+T01wrBoFl0+F23BJPL3P0v+4eexVrUjSQLP9pAlCf2M6ZRcuAB1egtCVwn9ACG/yn4ytseEYYjWWo2UKAHTINQUIp+6hHBPJ0Nf+BX6rAmY585DnzcBe/1Ohr98M8acVuLf+xC5W54g86vHkFtriJ63EK97hMiy2djth/D7RwhGc0gyWOt2YsyfjFxbVhw3DCH0Cbrvw1crUKqq0KoWIRtlZPbdhLvzZ5SUteFFJiMkDQjQrH2kR/aiqyqeO4KQdbRIGyLIo5bPgrLFCEJkVCRZIxQSUmARFSq4o8hhgB94BATIkoxSfynxuosRsvGSRxyOWeQkxP8wJefPJ1oIhFyMwZLiUWLvO5fY+84Fp0Do5Qm0BPIrkrFfk2Q4HsQtFAkvbSElTBA+kpDw1+1CndVCmLZw9neR/PJVAKgzG1BbqvGODmHf/yx6YxVOdSn6tGayt69GlEaRKxNE/+50QGA/vwe3ewRtVhvZ258h/qlLEFKOINdBoesRvJ5HURuuQhSOII17J3J8MtGZ/0K+4x5cqw9JiYCXI7BThEIQnXQtSqQGSVZAq3zVaR2j55j8SQB65cs+K36gjYU2B0A4lnYjAOUtaSf1P2+HJL2COM1EaObLJnFMo35NkmGsRiYE2QKiTMXZcRQKIVJFDBGBzE8eIHLhfOytB8k/uBb91MnY7QeJX3MRhZUvkP3Vk0iVCWJXLyEcLWCt34OUKUFrq0WdMA5tWjNSPIqoKiU0FCKXLAIxgr35K1jKOMTIs2i6gT+ygUxmL0ktCqULcYZ3oyBQKk9FqTyDwHPwj/6WIDIHLTkV3x3FGdqKVnna2Dn2+KRfY56vWHRfqSf8hdoZ/lVaFr6pfN6x5+KP5PBeOIg6fQLq2bOwNuwidMOiT7o0Suw9Z5F/8HmcHUeJXb0Ur3MAdVozxjuXkL/h9wSpuUiRYlBgkLfx01nc3UcIhtNgqDgrN6NecQbqqVPwOh/A8iWiE68it30/rnUU5CqMxqvIdz5JcOiOYlaj3og9+CzSkTtRvT6EmyJPEunI3WhaFD8AOb8PueUaOJaU/hpzfiuk88/B296y8DjEmFSrEkKLos+dgCgxIQgJhgoYS2egNFQRDGcIRnMEwxkKf3iBcDSHiJmQzlD2bx8id/863MN9GIsmE7n4VFAUsnevwdndiazIKKdOQl8+VjymdAaSUYuSmIpSuZSCE+I5KRS7A8cZxQj6kfHwrV7U7DbE6BasQpqwfDHxqZ9FCS0w6onVLiBz9AFyO/7tNSX57caJQ7Qk4eMjTAUMFVwXd28XXs8w/kAKIasYi2fibCsG/4eSKEasZAvk71yNubANKaYTu3Qh9vN7CPIe+uwJSJoKeQ9RYhJYDjICb9thnOcPIJQyCAq4w5uJTvwIWmISevkcAiWKCAVi6n9gNl6GWTkfo/48Ygt+RXL69QRCZej5L+BYaQhcbNsmWncOnptmtP2bhIH/slDbEwF/VrGavwiCEFmSyT/6AoUH16LPbiXz26cIPR/JNJASJmHeQooZ4Id4RwfQJtZTeHYnAHIiUUzbjRiY586l8NQmgqE8IiKhTqvDfeEw9p6jxZpirk8Y2GiTG3EGn0eONSFHGxBOhkAtRVJi6PFxyN4wnlZPGPr4+W7C2GTk8oVIWgWhM4iRnICX3o/b9xS272I2XEHh6F1oYWYsrPdN1tD4K+CEkehjilrpV96FXF+BXFWKuWQm3pF+1JYa3L2dZO9cTTiax7xgPvGPXkTuic0Eg2nkigSFNdtxD/ajLJiCPnsCic9dRuHh57A3HECKRorpOKaOXJlErisjcuFphIqGKgU4A+txeldhD67B7b4fKToetWIRfmozwfAGjFg9St35uP3PYnU+it31ENGWqzGmfBmpbC5K6Uw0PYmz4+toyWnke54kTG0cI/nEkOwThuhjkKuTCFVFrq/A6x1CipvY7YcIslZRoktjKFMakOIGSmWc0PEI8hZCV5E0ifBgN6Ht4u8fxLx8MX5/mvQPH0CbUIdQFALLxlw2B6FpSMiQnIEmbLTyeUhaGUrpXLTqMwCfUBiEWhWuk0VRS1DNcjK7foCkGsiJGfj5DlR/hGj1KaiqgdbwDiKyhZvrJb/3BnzPBqSiseNtxglHNGGA0FUKT2+Fgkvyc3+H0lKN1zGIVJnEGxzFWf0ChZVbMc+chdpWh7PtEEJXMRaNB10j+9sncEbzSLMnoDZVodSU4h7oBs/DWDQdoWo4hzqL4ylJPN8GNYpRczrB2N5q9W/A1ZtRolVoFafi5nvxB9cQK58KUgR/4Gnso/cgJWfiS6VYToicnIEy60eUTLkewzuM1f5FAqu3GF/9NitpJ84efQxCUFizA9lUsfd24m45ROTcuUQvWAAEFFZuxXpqF3LcLKbqNFQUPWuJGEFvBndglKBjAAwNf+sBtIZKou85C3vDHuwdR9DnTSDM5EESKNXlhF6OIHMYNd6G2/skqiwRoBN034deMRfPTmH3r8cQowi1BDXegi8lcPpXI5wBAqUEr9BNZFwxlixMt6PUX4SntWId/AXB4CqkSCtSdNwbTv0viRNOokNC5PI4yoRq5LiKe3SQwPZQWmswTp2EXBojDFzsLQdwdncg15aT/Id3I3QFf3gUd8t+pPoK/M378Y70Y81owNvVgXn+KSi1SfIPrgdJQp9ZDIuVtCRu7jC+Z6FULIL+x1GsQ2CMQ1KiyLGJhKFHpm8jkmIgxSbjpraCkIgk6gjyPQROFowqSM4GrZzCkXsQkorR+G4wW8juvYF81+Mv757+V8YJJ9ECgd/Rj7O/l1BSMOe24XYM4e3rxDvcjz6rBak8QZjO4fUOIydjGHMnok1tJHffcwhNQwQhIWGx5MWDG5FmNSM3V5L/7dOo9RWIhInaUIkwdSQtgTOwCiUxFcnpITvaQ6R2Ga5r44/uQZE89LLZiEgboWTgDG/BD3xkfwTfSeH6glj9mXjpvchYiMQMgr5HIMijBBlCvRbJqCYYeAZZiyPpFS8Lw/1r4YSTaACpVCPwAtSpLYRZi9iFs7Ce24XXM4Szpxs5EUWdWI9x2lSCgk36x/fjbD9C9NLTEJLA3rwfc+EUguFs8cy9+wi5H91HkLNQpzSgVCYhhGBMI5ajzXhDGwmkCIpZDVoZfnYvgZrA9z2C9AvoDRciggKe56KWtKIn2sjnRpHUCF7godacQxAEFLZ/HZxhNMmnkO3FT7ejljSj6SZKpIa3Sws/sYgeU1jkqnKCg90wOoqfsXD296I0VaE0VhFYNtYz7Zjnn4KxZDpqXTkIyNz0CH7vCPqpk1Baa8g9sBa1pRpteiOZnz+Bd3QYoWv4fUNoc1oRZSVIY0tpMbOiFyk+lcDN4Y1sINr6XhRFR9hdyNEmgqM3o0Yb0Esn41uDeCJKrKwV04jip3YWXZa5AUK9ASk5G0ubgJ6YghTaSFoSTy4DvaaYzvo2KGYnFtFjxgWpvBypthz3UB9u5wDajBbUCVX4h/rB85HH1+Ed6kFtq8ftGQFNwVw2i+y9z+Hu7yK24hSEaZB7YD1ef5qKmz5DZMUpBLkC+oKpyNUVY5FDxfH0khbw8gT2IKE9RGi2IckGktmAXHMR+eG9WKmDFEb2g1ZGtKwNZ3AjWu15KI3vRZcsnL5VGEP3YSQno9ZdhHAHCbI7UZxu/NQ2fCcFotjI5O0wopxYRI9BroiD7SK8EHwfr2OQ6OVLcA90EeQdop+9BLW1gtH/93vkihju7k7kugSxK0+nsGYHhTU7iSybgxTR8TsH8QdSOFsOIDQVbdK4l0jUsejPatxCNww+iWTW4g+tx9v7XaT4JAhchFaGpqr4mZ1IgYOf2o5euxzHykPoEZZMx+p5AhLz8CUT++gdCC+DVj4fhIrT8xh62RxQtLfNNPpX8V79KQiDAGFqyBVx3APdyLXl+N1DWGvaUVprURrKUQHHVxFxA2f7Ucwl03DWH0KqThK9aAH25oOEYUjyq+/C2XGYke/cgWRqiKgOpn48lHlsQFCT6LF6vPwgTmYfeqQEX8QItn8DuWIBSqQVOXkOsSBLYd8vCKweIpO+QugM4/Q8gpvegzHuMgquhK6VIyQDWbh4w1spUIosZdHrLwBAvEZ5qL80TjiJPtb8QJs9gcB2xwrHhYz8810oTZWoE+vJ3rkaa8Nu1MYqou8+E+9QP9bGvfg9wyiVSbRZzcUMzp5hwpyNMbsNApAUCbnKHBvo5SE5Ztk0CiM7idYuRW96P2HluRRSu8kP7UYtLSbABWotnpRARCdhddyLpJcRhBKek8KsPhVFj5PfeyNqzVnIybkESgwrvQdt2jdBK/vrP8yX4IQj+lh1VmPhRCRJwt3biTy5EaW+FLk8gd+bovCHdoLRHOaZsyCVw88WiJ53Cl4qS2HtTqIXL6T0C1eS/tG9EIaYy+ciV8aLwfyx5KsOa3symhRgjP8ImSN3owib6JwfIDk92B13Edj9BD33ISemYU7/KoEzRGHjRxF2F/FZ3yYIQ8LUZnQzTr5rZbFgTO4gZRPejVY68233Zp14RAP4PsgK5lmzEYqMOrUR4+zZuLuPYm/ch1AFQpbJP7KBwlNbSXziIuQFkwg7B5DiEfyMRSiBFI1gPb8LbfE0hKmjNFUhXun6P6aQNb4DqWIJoZdD8jMIvQq9bHox/lovJ7/7xwSpzUTqzkJIGmr1WQS+T2D1I/IH8TwPpXQ27ugBvFQ7bu8f8PPdSA3voXikenu9WCcm0XLRNmycdwpKfSXZnz2IecECsvesJXB8Sv/p/fhH+kn/4D6MRVOQq8vI37+WyAfPR53WRPanD+LtPII+p624JwM4Pkpj9WuPGYaYEz+KZFQhy0axbLKaxKg5E294EwEqVj4N2b34qR2EA6uR6t+FWbWA7P5f4A6uR1E09KYrCP086Y7HMSd/Edl4MYHw7cQJp4y9FFLUoOR9ZzP8zd8S2h5l//I+Ck+1M/zNWzBmNhO55FQKK9ux1u9B0RTMpePJ3focckMVXs8woeujTW9Gci2QPIy5U157MCFAKh5/wvhM7MFNRCrPRK67mGBoG+7gOmL15+IMPo/jFIjWno5AYHvVaHKAle/G1TRCySQsdCOXL0RUnVWsZ/Y2KWAvxYkp0XBcAszl05ArSrA37cfZdrgYfSpJOIf60aa3oYyvI3v7KtBV8r9bi3b+KShLZkAQErt8EcK2SH3nbtzDg2gLX4doQIxFXpq1y5FzuwmGnwMgOv0rJCZ+gMLQZqyRXQT5DkYP3Ue+dw3u4HOoLR+kpPlSckN7SR+8HTVIUTr12rEyWifGIz4x7uJ1ICJJtMuXIJWY+ANprNU7SHziIko+di4j3/4t3r5ujMXTCHMFRHkc64UDyIMpSq5Zgds7grl8BtaWg0jJGGp9xZsbVFbRJ1+P1f0Yzr7/QgiBUn85JTP/Cb2kESmwCAcfx893E5v2RUR8NoX+9YReChGCqFqO5wWvmqf8duEtb7Xwl4Cbt0hd+xOU8XUYp7WRu/051JlNqI3VOO1H0aY2okyuxzvQg7urA7ksgXnxbIIC2I9vxrrhIYzPXUbsXWcXqxK+MkT5NeBndmHvuxHP94lN+DBSsti91e+6jwDI97+ApgjUwm7yqSNI1cvQyhegVi8lyOxBLp13wkj0SUE0QOi6jN6xGnvVZmTDxO8ewU9niL7jdLyeEYKhNJHz5mGeNx/vQA/OC3tw9nbj9Y7Po3R5AAAUSklEQVQQDqQp+89PoDRUHi8L/YbjhcFYGwMft+dh8ofvQBj1qLEWtMoFoJZh7/kBodWF3vr3yJEmMGoQesXY99+oEPxfFycH0S+xD1sjWYJNe7BWb8fZtI/A84v1SAQokxpQKhMEg2kwdPQ5LdjbjxK7fDGRFfPHjm1/gmL00nRU38bpuhd3cCOGlCMXxDBrzkStOvPlgfsEEIoTZsk+hpOD6NdA6Pv4h3txdnVi7zhE0DmAMHSkRAwRN3H3dxK9+hzMRVP/RxGZbyidYViMSw/fZLLC24CTk+gwLKbZviLFJyQkSOcIBkYREQ2lbmwZfZPL9RsPW1Swjmdgviy78cTGyUn0SxAGAYzVD301Jet1E/v+f4STnug/Qhi+uNSeoMvo24G/PaL/F6+Kv9k17X/f35fjb5boE1X7fbvwN0l0EML9Dz9KR2fX230rJwz+ZogOw5AgCAjDENd1uPnmX7N5a/vxz97KcU5GnNBuyjfCMXKFEEgvaV4WhiGlpaVkszngrV3GT9Yt4aSU6DAM8TwPIQSyLCNJEsMjI7Tv3M2Rjk58zyeTyRXP1m8hLNvm+Rc2MzqaedXPgyDA8zxc131Lx30rcFJKtBACRVGwbIf29m1s2LyVBx96mJFUihnTpvLTH/9ffN8nEilWDf6fOhiOfd+yLL7xre/w+es+xdlLlxAEAdJYeUsASZKQ3gIL3F8CJyXRqfQo/33Xvaxdt55du/aQTMb52DUfYsL4NkpiMdKjo7ieR9QsRnz+OSQHY60NX/pdXdNJxhMcPnL0Zdceu2bdho384fEncRyH6679OJUVb9L//VfASUf02g3P853v/YCe3l6mT5vKP3z18yw943QS8Rc7pvf29eN5HrpRLM52TCKDIDhOIAgU5Y89WceufalkvlQPMAydvr4BPN9HGfOEbWnfxo9uuIkjhw+TTCa4+MIVxEvif/TbbydOOqJ7e/sZGh5hfGsrX7r+OiZPLKa/Oo4DQqCM7dlCCCKxYvfaYyS/cmk99rdjOEZyGIbsO3AQy7YZV1dHWWkxRFhRZVRVwR8jeTiV4nd33M2vb7mVSRMn8k//+DXOOG3BX/FpvHmcdEQvO3spW7dt55FHH+fDH/sUV11xOResWE5bS8vxa9wxhcjUin2UjxG6d/8Bnt/0ApZl09LcxNlLFx//zjGSc/k8/++Gm7j39w+iKCotLU186x+/QnNjI5ZlY9sOwyPD/OGJlfzyV7dw5GgHH7vm//Ch97/nr/4s/hScdESXxGJ882tf4oLzl3Pn3fdy2x138+Ajj3L+ucu45v98kFjExLZtJFk+vrRKksTTq5/lX77zfTK5LE3jGrAcm4GBAa664h3HlSnHcfiP//sTHnnscS5ccR71dTX89Oe/4vY77+FL11+HpmokE3G2tu9gzXPraW1p4pc/+wlTJ08qRo+G4f8qY28lfN/n1HlzmTt7Fl19/dx882/47zvvZdeevdzwo//AcRyC422DYdPmLXzpa9/gkgtX8MmPfZhYLMa1n/0C//mTGzl1/jyaGxsRQrB1+w4eeewJ3nP1O/nkRz+MEIKR4dTxY5rvFyvs5vN5YtEo1193LVMnT8KyLAzDOKHP2Cfm6/c6yGSyyLJMGIbIkkRTXS3f/NqX+IevfJ7t23fy+BPP4LkuIIhGIoRhyM2/vpVpUybzhc9eSzKRYHBoiI7OLoSQ+O3v7jy+h69bv5FYNMK7rrxizMLmcv11n+Jzn/4kAIahEzENotEo2VyOx594auzvxuvc8YmBk4LoY0vrzt17+dyXvsYtt92ObTsvk6DW5kZURaG3vw9JkrBtC1mWcV2P3fv2s+SMRWiaxujoKN/+7r9jWTanzpvDY48/ybNr1yNJEuPqasnl8jy9ag2SJKGq6svuo6unhy3t2znnrKW866oreOChR/jt725nS/t2/ODENo2eFEv3MUJLk0kOHz3Ktht3ct8DDxGNRI734+js6CRZmuTSC1fQ0dmJbTvk83mqqyo5a8kZ3PybW9mz/wC7d+1hcGiI//jet5k1fRqfvO4L/OO3/pXPXftJzjl7Kfc/+DDf/8GPeHrVGhbMn8ecWTMZP74VXdPo6eljNJtjxrSpnLf8bHp6evnJjb9A0zV+ddMNtDQ1vM1P6rVxwhWreT2UxKIsP/ssTNOgs6ubkZFh0qkUju2wePEivvG1L1NZUY7jufz+gYepq6thxrSpzJoxncMdHWzbtp0JE8fzr//0daZPnYKiKCxcMJ8tW7exYeMmrn7nFZx95mKyhTxr165n/YaN3HP/A9z8m1uxXZczF59OeXkZS89YRCwW46yli3Fcl1RqhItWnEcsFn3jSbxN+JuLMDl2TLrt9ruImCaXXXLha14HL64WYy09jmM0k2Hz1m3s3rOXQ4ePsOi0BVxywfl/8fv/S+GkJPrYUealEEK8rtZ77DtvdN2xa1/rmld+dqIfq47hpCT6zcDzfIQA+U8J2H8Jjvu3i/857ik7WfE3S/T/4uU4KbTu18JL39ET2VhxIuDE3ljeAEIIgpfsuf+7OL02Tkqij7kaH1/5NFdc9T4+cM3HOXjkaLG3pee9zXd3YuKkIToMQzzfP67huq7Lr2+5jb6+PgYGBvnwRz/JlvZtKIpy/EU4dv3bcZ8nGk4aosWYr/nYMt3Z3cPA4BCf/fQn+PXPb2T6tKl85vovs2ffgeNHnZde/5fAq71Ex+7zRMNfnGjbdnCCP7/G1jHpPHy0g//62S/I5vIAZLM5HMfl9EWnUVlRzvf+9Z85Ze4cPv/lr3H4aAe243DDTb/kSEfHWzKPV8Mrz9MABw8d4caf34xtO2/pWMeOe77vvyRK5s3jLSPacV16B4eOT/jYzfzsV7/h45+87vjfPM8b+/fqy2p//wBPrHzm/2vv3MOiKvc9/lmXgVER5D7DfUAQUUJEt7FRd3k3Le8cUrPcZp1KU9K8i0pKXrJ9crez3e48x9KwyLxsT2Vey7Y7zaS8aygX8RYgIAwzDDNrrf3HMCOUtVM7z+lJvs/D8zAM612/3/r+1lq/9/d+3/fFoTjcjimKwokzZ1m/MY+s7GU4FIWamutY661IjYoQvacnK3KWIAiwbn0u1yqr+J+3NjAvKxuz2exuv6lSU7mDR2xZ+TX27j+Ao1FL7nA4UBSF/G+O8taGjWQtW47d4XAXVByKgt1ux+Fw/CRRLkKbflYUxS1lcqlebxV3TLTLkQNfHGJ0+jiOnTjpbFgUqbhWyc6duwkOCkBRFERRRJblxh/JLdtxtQNw5OgxXlz5MiUlpe4RJEmSGDqgH3OeexZNVZElCT8/38blJwSURvJkSWLs2AwiIsIIMQTzp1UvEhYaytmCc4CziOKywdXu94PNRYozwH5IiMvfo8ePM2/BIgoKziEIgru90SMeYtozTyIBlZXV7uNkSUKn0yHLMqIoNguypnepi9CmJVpJknA4HBQWl/BV/tec/bbglvOAX6QfLQgC//jnQRoaGqisrHT//fjJU3xXVsark1YhSRKFxcXs2fcZgiAQbTLRKy0VnSw3Kyu21uvR0LhWWYV/gD+XL1/Fbm/AEBzMsAeHMOzBIRw7cZL33t+MpoGiqc3eiRkjh7t/T0vtQVoTDZcsS1wtK+OTnbups9STltqDpMROP/Dlp96xLju92rRxbmxeZ8Fms1FwvhBV1QgxBJMxZhQZY0a5j1EUlZ179lBcXIKXlxe/T72XGFOk+/umFTdzXR3lFdcwRUYAcL2mho8/2cXBL4/w1ZF8BFFCURzkvvUmURHhP1vKfEdEu05SVHyBfZ/uR6/X4+vnC4Dd7mDd2+/Q5w+9iYgIZ92GjeRt2kJVdbXzrlBVoqOjmT1jGl3u6Yylwc71qkqOnzyFxWIhO2cFoihitVhRgYH97uf5zGfRNI1de/bx6f5/gqYxdfosok2RhIWFEhYaSveUZMJCQ24MVjQqOAVBoLComNkLl3Cx9BKCKLJl23ZysrPonpLsfCLIMseOnyT3vfcpL68gNi6WR8dlYDQE39B22xq4cvUKXx89jqqoZC9bgU4nc722FjR4YFB/pk95yimMkCS+PXeeP699g0NffoUkSaiqxvqNeQwe1J8pTz6OTpZZ89pfSU66h15pqczLeoHComJmZk7lvl5pZOes4sAXB/GQZcaNTadr167odToCA/ybBd7/KdGui/jGurexWOsJ9PdD7+lUWxw+ks+ZbwuYPWMan31+gNde/xsaAlOeepzRw4dRcO48OStfYl7WEjp16sjBQ4exWqzIsg6Hw0Gt2YwpKpKeDw4hNtpESteuLF35MnExJqb85xO0btOGtzds5LuyMiwWC98cO0F9fT1eXl7MeT6T3mmpbMz7gNKLF5n13DQqq6qZs3Axly5eZtGC2fj7+fJM5iw2b9tO95RkZFlm76efM3/xC4SFhtC5cwIVFdfInDWPNatXEBjgz4sv/Re7du+ltrYWUZLQNJXqmutERUUycEA/kpMS6dghjheWv0RMtInxGWNY9fIrnDh1ltj2MSyeP5uQ8DA25uaxbv07oKpkTn2aHTt3YzZbOFdUzMEvDyNLElu3/S+901IxGILQNA2D0cADA/sTGX5jzPtWJibcNtGqqiJJEvv2/4NDB78kpWsSJSUXkGUZh6Lwyquv0btnKgkd4yn8+BNESWLC+Id5dNzDAHRJSuS///oXnnhmOvv3H8Dbuy3xcXG00us5nJ/P/DkzGdDn/mbn/K6sjOqqKv5j9EhGD3+IDz/awaTHJjDioSFcN5s5ffoMdruD9jFORei1yiq+OHQYgLxNmykpKWXJwrkM6t8XgOczp7gDs6CohFkLFjGoX19eWDQPQRDYtGUbf/rzYT7csZOJj4ylsKgQm81Gj991R6/34PMDB1m4YC79m6hJAS5eukxNbS3jM8ZgNteh9/Rk9fKlGIKDAHh84iO08/VhzV9eJyN9FCFGI7v37sVWX8+i+XOw1lt5de0bfFdWzvPTpxLg58+Wv28nfdxE0kePYOjggXSIbX9LXcfbItpVtLDV21j9yqsMHtiPfn3uY2rmLARgfe57XLh4iZzsLOdJZB2t9Hp6p6UCuMXvXl5e6HQ6UlKSefbpJ4mLbU+91crQkRnYbDZ31g2g0+nw9fbm1NmzbhskWXZnsT5eXtzbvVszO0NDjFitVuptNi5euowgCAwa0M/9/ZgRw91tbdq0GVNkBPNnP4cgCFjrbeTmfYDisPNu3gcMGzqYxQvmcuXKVbp1TcahqKT1GYhqtzvtVFWkRt14cFAAly9dAZyJVkJCBwzBQc0SLH9fX+yKirnWjNliwWq1MXLkcIYM6s+584VoQFVVNUZDMBMnjKXv/b3Zs+8z1ue+y5at20kfPZzJkyfR6ntypx/DbWXdrkh6e+N7NNhsTHrsEYIMBhrsdhYvW87aN97k6ScmExMdDUBkeBhms5nDXx8FnBmo2WIha8kyCgoKmDZtCvFxsYiCAJKMzWajtPRSoxD/huje28eHK5evomoQ4O9HWy8vTp0+jSiK7lkYTWdj+Pv5Umuuo7CohK7JSWiCwJq1f7upP5VV1dgb7LRq1Yqq6mrmZi3BYrEwedJj1FksLF66glCjkW5dk9E0jaqqKgRBoLTU2TsQm9TcfX19Ka+owKGqhEeEU1RcgsVqdecK+UePsXT5Swzu3weTKYrC84VERoQx6dHxqKpK27Zt8dR5UF5V5cxJ9n6K0WBg4oRxfLgljycfn8g7775PzvJVP7vyd9uP7jPfFvDWhlymT30GP19fzHV1dIiNobDoAqn39uDh9JHud0jH+DgG9O/L2tff5KOPd+Ddti0lF0pp3bo1q1fk0MEUhcPhQJIkPDw8cCgKx086d5EVRcFNXIgxGA9P574UoigSER7GucLixv/7YcwGBwWi9/TAbrcz4qGhfJV/lHdy32Xr1r/Tu3ca9yR2pmNCR4yBgaSPGs60GbP5Xa8+CIKAb7t2LF20gG4pybRr58PKl9cwYfJTLM9eRIjRgCiJaKrK6bMFKIrarKtmDA5GECUkUWTsmFHMnLeQPoMeJCE+npo6M7XXa+jV8/fMmTENQRCJjIpg1Ihh+LXzQVEU/Px8iTZFceRIPj1SksnKzsEUGcnkP06gfUw09/VO42zBeXbt3scfJ4x3Z+g/hVvWjLkSsJWrX+FaZRVzZmbi6eGBp4cHBkMwer2eWTMzaa33bPYO6dmrJwG+PkiiiI+3D0MfGMTsGdOJMUW5M1RBEBAFsDY0kJTY2S2Md3U/QkOMmCIjaB8TjSAIhIeF0TG+AxHhN98O0MfHh6CgQBI7J9BKr6dXWirGECOWehsnTpxk56497Ni5l1qzmfSRw4iKiqRdOx96pt7L3FkziG0fjaZpJMR3ICgggNqaWjp1isffzw9JkrBYrHS554adLn+NxmCCDQbi2scQYjSQnJSEt7c3ek8P4uM6MGniBDJGj0SSZERBYEDf+0mIj0On06FpGrIsYzJFEujvhykqkqDAAL45dozN2z5k6/aP2LRlOwXnzpHaoztDBw/A08Pz3/J228KDE6fOUG+rp1tyl9s53I3/jzUzVeDypctcq6ykvLyCiIhwYhuD52a2fX+O1q3gx/y7Vb/LKyooLCqhpqYGQRDw8mpDcpckPD1+3q54d6wwaWqwqqqoiook33wwwaEozgXgAEEUkZqsUtAUrirazS68oqjuWZCupSx+SuLjcCjNZk26+ss3g6KoqKrirkY1Pb+zSqY1s+vHAkDTNBT1RiHHlTc0nal5s8l9TdHUN0VR7ljGdNtE/5yL/GuFq4ypaRoaIH5vmuyvEc7r7VwGE5wLU97sZvgxtGjG7hL8usO4Bb8YWoi+S9BC9F2CFqLvErQQfZeghei7BC1E3yVoIfo3DLvdzu7du51l05aCyW8XdXV1tGnThs2bN7fc0b9luIZ3ExMT+RcAUXqcwlMWCgAAAABJRU5ErkJggg==;" vertex="1" parent="1">
          <mxGeometry x="607" y="780" width="122" height="176" as="geometry" />
        </mxCell>
      </root>
    </mxGraphModel>
  </diagram>
</mxfile>
